<?xml version="1.0" encoding="UTF-8"?>
<!--Generator: Apple Native CoreSVG 175-->
<!DOCTYPE svg
PUBLIC "-//W3C//DTD SVG 1.1//EN"
       "http://www.w3.org/Graphics/SVG/1.1/DTD/svg11.dtd">
<svg version="1.1" xmlns="http://www.w3.org/2000/svg" xmlns:xlink="http://www.w3.org/1999/xlink" width="3300" height="2200">
 <!--glyph: "uni100150.medium", point size: 100.0, font version: "17.1d1e1", template writer version: "65.1"-->
 <g id="Notes">
  <rect height="2200" id="artboard" style="fill:white;opacity:1" width="3300" x="0" y="0"/>
  <line style="fill:none;stroke:black;opacity:1;stroke-width:0.5;" x1="263" x2="3036" y1="292" y2="292"/>
  <text style="stroke:none;fill:black;font-family:sans-serif;font-size:13;font-weight:bold;" transform="matrix(1 0 0 1 263 322)">Weight/Scale Variations</text>
  <text style="stroke:none;fill:black;font-family:sans-serif;font-size:13;text-anchor:middle;" transform="matrix(1 0 0 1 559.711 322)">Ultralight</text>
  <text style="stroke:none;fill:black;font-family:sans-serif;font-size:13;text-anchor:middle;" transform="matrix(1 0 0 1 856.422 322)">Thin</text>
  <text style="stroke:none;fill:black;font-family:sans-serif;font-size:13;text-anchor:middle;" transform="matrix(1 0 0 1 1153.13 322)">Light</text>
  <text style="stroke:none;fill:black;font-family:sans-serif;font-size:13;text-anchor:middle;" transform="matrix(1 0 0 1 1449.84 322)">Regular</text>
  <text style="stroke:none;fill:black;font-family:sans-serif;font-size:13;text-anchor:middle;" transform="matrix(1 0 0 1 1746.56 322)">Medium</text>
  <text style="stroke:none;fill:black;font-family:sans-serif;font-size:13;text-anchor:middle;" transform="matrix(1 0 0 1 2043.27 322)">Semibold</text>
  <text style="stroke:none;fill:black;font-family:sans-serif;font-size:13;text-anchor:middle;" transform="matrix(1 0 0 1 2339.98 322)">Bold</text>
  <text style="stroke:none;fill:black;font-family:sans-serif;font-size:13;text-anchor:middle;" transform="matrix(1 0 0 1 2636.69 322)">Heavy</text>
  <text style="stroke:none;fill:black;font-family:sans-serif;font-size:13;text-anchor:middle;" transform="matrix(1 0 0 1 2933.4 322)">Black</text>
  <line style="fill:none;stroke:black;opacity:1;stroke-width:0.5;" x1="263" x2="3036" y1="1903" y2="1903"/>
  <g transform="matrix(1 0 0 1 263 1933)">
   <path d="M9.24805 0.830078Q10.8691 0.830078 12.2949 0.214844Q13.7207-0.400391 14.8096-1.49414Q15.8984-2.58789 16.5186-4.01367Q17.1387-5.43945 17.1387-7.05078Q17.1387-8.66211 16.5186-10.0879Q15.8984-11.5137 14.8047-12.6074Q13.7109-13.7012 12.2852-14.3164Q10.8594-14.9316 9.23828-14.9316Q7.62695-14.9316 6.20117-14.3164Q4.77539-13.7012 3.69141-12.6074Q2.60742-11.5137 1.9873-10.0879Q1.36719-8.66211 1.36719-7.05078Q1.36719-5.43945 1.9873-4.01367Q2.60742-2.58789 3.69629-1.49414Q4.78516-0.400391 6.21094 0.214844Q7.63672 0.830078 9.24805 0.830078ZM9.24805-0.654297Q7.91992-0.654297 6.7627-1.14746Q5.60547-1.64062 4.73145-2.51953Q3.85742-3.39844 3.36426-4.56055Q2.87109-5.72266 2.87109-7.05078Q2.87109-8.37891 3.35938-9.54102Q3.84766-10.7031 4.72168-11.582Q5.5957-12.4609 6.75293-12.9541Q7.91016-13.4473 9.23828-13.4473Q10.5762-13.4473 11.7334-12.9541Q12.8906-12.4609 13.7695-11.582Q14.6484-10.7031 15.1465-9.54102Q15.6445-8.37891 15.6445-7.05078Q15.6445-5.72266 15.1514-4.56055Q14.6582-3.39844 13.7842-2.51953Q12.9102-1.64062 11.748-1.14746Q10.5859-0.654297 9.24805-0.654297ZM5.6543-7.05078Q5.6543-6.72852 5.85938-6.52832Q6.06445-6.32812 6.40625-6.32812L8.51562-6.32812L8.51562-4.20898Q8.51562-3.88672 8.71094-3.67676Q8.90625-3.4668 9.23828-3.4668Q9.56055-3.4668 9.77051-3.67676Q9.98047-3.88672 9.98047-4.20898L9.98047-6.32812L12.0898-6.32812Q12.4219-6.32812 12.627-6.52832Q12.832-6.72852 12.832-7.05078Q12.832-7.38281 12.627-7.58789Q12.4219-7.79297 12.0898-7.79297L9.98047-7.79297L9.98047-9.90234Q9.98047-10.2344 9.77051-10.4443Q9.56055-10.6543 9.23828-10.6543Q8.90625-10.6543 8.71094-10.4443Q8.51562-10.2344 8.51562-9.90234L8.51562-7.79297L6.40625-7.79297Q6.06445-7.79297 5.85938-7.58789Q5.6543-7.38281 5.6543-7.05078Z"/>
  </g>
  <g transform="matrix(1 0 0 1 281.867 1933)">
   <path d="M11.709 2.91016Q13.75 2.91016 15.5518 2.12891Q17.3535 1.34766 18.7305-0.0292969Q20.1074-1.40625 20.8887-3.20801Q21.6699-5.00977 21.6699-7.05078Q21.6699-9.0918 20.8887-10.8936Q20.1074-12.6953 18.7305-14.0723Q17.3535-15.4492 15.5469-16.2305Q13.7402-17.0117 11.6992-17.0117Q9.6582-17.0117 7.85645-16.2305Q6.05469-15.4492 4.68262-14.0723Q3.31055-12.6953 2.5293-10.8936Q1.74805-9.0918 1.74805-7.05078Q1.74805-5.00977 2.5293-3.20801Q3.31055-1.40625 4.6875-0.0292969Q6.06445 1.34766 7.86621 2.12891Q9.66797 2.91016 11.709 2.91016ZM11.709 1.25Q9.98047 1.25 8.47656 0.605469Q6.97266-0.0390625 5.83496-1.17676Q4.69727-2.31445 4.05762-3.81836Q3.41797-5.32227 3.41797-7.05078Q3.41797-8.7793 4.05762-10.2832Q4.69727-11.7871 5.83008-12.9297Q6.96289-14.0723 8.4668-14.7119Q9.9707-15.3516 11.6992-15.3516Q13.4277-15.3516 14.9316-14.7119Q16.4355-14.0723 17.5781-12.9297Q18.7207-11.7871 19.3652-10.2832Q20.0098-8.7793 20.0098-7.05078Q20.0098-5.32227 19.3701-3.81836Q18.7305-2.31445 17.5928-1.17676Q16.4551-0.0390625 14.9463 0.605469Q13.4375 1.25 11.709 1.25ZM7.17773-7.05078Q7.17773-6.69922 7.41211-6.47461Q7.64648-6.25 8.01758-6.25L10.8887-6.25L10.8887-3.36914Q10.8887-2.99805 11.1133-2.76855Q11.3379-2.53906 11.6895-2.53906Q12.0605-2.53906 12.29-2.76855Q12.5195-2.99805 12.5195-3.36914L12.5195-6.25L15.4004-6.25Q15.7715-6.25 16.001-6.47461Q16.2305-6.69922 16.2305-7.05078Q16.2305-7.42188 16.001-7.65137Q15.7715-7.88086 15.4004-7.88086L12.5195-7.88086L12.5195-10.752Q12.5195-11.1328 12.29-11.3623Q12.0605-11.5918 11.6895-11.5918Q11.3379-11.5918 11.1133-11.3574Q10.8887-11.123 10.8887-10.752L10.8887-7.88086L8.01758-7.88086Q7.63672-7.88086 7.40723-7.65137Q7.17773-7.42188 7.17773-7.05078Z"/>
  </g>
  <g transform="matrix(1 0 0 1 305.646 1933)">
   <path d="M14.9707 5.66406Q17.0605 5.66406 18.96 5.01465Q20.8594 4.36523 22.4512 3.19336Q24.043 2.02148 25.2197 0.429688Q26.3965-1.16211 27.0459-3.06641Q27.6953-4.9707 27.6953-7.05078Q27.6953-9.14062 27.0459-11.04Q26.3965-12.9395 25.2197-14.5312Q24.043-16.123 22.4512-17.2998Q20.8594-18.4766 18.9551-19.126Q17.0508-19.7754 14.9609-19.7754Q12.8711-19.7754 10.9717-19.126Q9.07227-18.4766 7.48535-17.2998Q5.89844-16.123 4.72168-14.5312Q3.54492-12.9395 2.90039-11.04Q2.25586-9.14062 2.25586-7.05078Q2.25586-4.9707 2.90527-3.06641Q3.55469-1.16211 4.72656 0.429688Q5.89844 2.02148 7.49023 3.19336Q9.08203 4.36523 10.9814 5.01465Q12.8809 5.66406 14.9707 5.66406ZM14.9707 3.84766Q13.1641 3.84766 11.5283 3.2959Q9.89258 2.74414 8.53516 1.74805Q7.17773 0.751953 6.17676-0.610352Q5.17578-1.97266 4.62891-3.6084Q4.08203-5.24414 4.08203-7.05078Q4.08203-8.86719 4.62891-10.5029Q5.17578-12.1387 6.17188-13.501Q7.16797-14.8633 8.52539-15.8594Q9.88281-16.8555 11.5186-17.4023Q13.1543-17.9492 14.9609-17.9492Q16.7773-17.9492 18.4131-17.4023Q20.0488-16.8555 21.4111-15.8594Q22.7734-14.8633 23.7695-13.501Q24.7656-12.1387 25.3174-10.5029Q25.8691-8.86719 25.8691-7.05078Q25.8789-5.24414 25.332-3.6084Q24.7852-1.97266 23.7842-0.610352Q22.7832 0.751953 21.4209 1.74805Q20.0586 2.74414 18.4229 3.2959Q16.7871 3.84766 14.9707 3.84766ZM9.19922-7.05078Q9.19922-6.66992 9.45801-6.4209Q9.7168-6.17188 10.1172-6.17188L14.0625-6.17188L14.0625-2.2168Q14.0625-1.81641 14.3115-1.55762Q14.5605-1.29883 14.9512-1.29883Q15.3516-1.29883 15.6104-1.55273Q15.8691-1.80664 15.8691-2.2168L15.8691-6.17188L19.8242-6.17188Q20.2246-6.17188 20.4785-6.4209Q20.7324-6.66992 20.7324-7.05078Q20.7324-7.46094 20.4785-7.71484Q20.2246-7.96875 19.8242-7.96875L15.8691-7.96875L15.8691-11.9141Q15.8691-12.3242 15.6104-12.583Q15.3516-12.8418 14.9512-12.8418Q14.5605-12.8418 14.3115-12.583Q14.0625-12.3242 14.0625-11.9141L14.0625-7.96875L10.1172-7.96875Q9.70703-7.96875 9.45312-7.71484Q9.19922-7.46094 9.19922-7.05078Z"/>
  </g>
  <text style="stroke:none;fill:black;font-family:sans-serif;font-size:13;font-weight:bold;" transform="matrix(1 0 0 1 263 1953)">Design Variations</text>
  <text style="stroke:none;fill:black;font-family:sans-serif;font-size:13;" transform="matrix(1 0 0 1 263 1971)">Symbols are supported in up to nine weights and three scales.</text>
  <text style="stroke:none;fill:black;font-family:sans-serif;font-size:13;" transform="matrix(1 0 0 1 263 1989)">For optimal layout with text and other symbols, vertically align</text>
  <text style="stroke:none;fill:black;font-family:sans-serif;font-size:13;" transform="matrix(1 0 0 1 263 2007)">symbols with the adjacent text.</text>
  <line style="fill:none;stroke:#00AEEF;stroke-width:0.5;opacity:1.0;" x1="776" x2="776" y1="1919" y2="1933"/>
  <g transform="matrix(1 0 0 1 776 1933)">
   <path d="M3.31055 0.15625Q3.70117 0.15625 3.91602-0.00976562Q4.13086-0.175781 4.26758-0.585938L5.52734-4.0332L11.2891-4.0332L12.5488-0.585938Q12.6855-0.175781 12.9004-0.00976562Q13.1152 0.15625 13.4961 0.15625Q13.8867 0.15625 14.1162-0.0585938Q14.3457-0.273438 14.3457-0.644531Q14.3457-0.869141 14.2383-1.17188L9.6582-13.3691Q9.48242-13.8184 9.17969-14.043Q8.87695-14.2676 8.4082-14.2676Q7.5-14.2676 7.17773-13.3789L2.59766-1.16211Q2.49023-0.859375 2.49023-0.634766Q2.49023-0.263672 2.70996-0.0537109Q2.92969 0.15625 3.31055 0.15625ZM6.00586-5.51758L8.37891-12.0898L8.42773-12.0898L10.8008-5.51758Z"/>
  </g>
  <line style="fill:none;stroke:#00AEEF;stroke-width:0.5;opacity:1.0;" x1="793.197" x2="793.197" y1="1919" y2="1933"/>
  <text style="stroke:none;fill:black;font-family:sans-serif;font-size:13;font-weight:bold;" transform="matrix(1 0 0 1 776 1953)">Margins</text>
  <text style="stroke:none;fill:black;font-family:sans-serif;font-size:13;" transform="matrix(1 0 0 1 776 1971)">Leading and trailing margins on the left and right side of each symbol</text>
  <text style="stroke:none;fill:black;font-family:sans-serif;font-size:13;" transform="matrix(1 0 0 1 776 1989)">can be adjusted by modifying the x-location of the margin guidelines.</text>
  <text style="stroke:none;fill:black;font-family:sans-serif;font-size:13;" transform="matrix(1 0 0 1 776 2007)">Modifications are automatically applied proportionally to all</text>
  <text style="stroke:none;fill:black;font-family:sans-serif;font-size:13;" transform="matrix(1 0 0 1 776 2025)">scales and weights.</text>
  <g transform="matrix(1 0 0 1 1289 1933)">
   <path d="M2.8418 1.86523L4.54102 3.57422Q5.18555 4.22852 5.90332 4.17969Q6.62109 4.13086 7.31445 3.35938L18.0078-8.42773L17.041-9.4043L6.42578 2.27539Q6.16211 2.57812 5.89355 2.61719Q5.625 2.65625 5.27344 2.30469L4.10156 1.14258Q3.75 0.791016 3.79395 0.522461Q3.83789 0.253906 4.14062-0.0195312L15.6152-10.8203L14.6387-11.7871L3.04688-0.898438Q2.30469-0.214844 2.25098 0.498047Q2.19727 1.21094 2.8418 1.86523ZM9.25781-16.3281Q8.94531-16.0254 8.90625-15.6348Q8.86719-15.2441 9.04297-14.9512Q9.21875-14.6777 9.55566-14.541Q9.89258-14.4043 10.3809-14.5215Q11.4746-14.7754 12.5977-14.7314Q13.7207-14.6875 14.7949-13.9844L14.209-12.5293Q13.9551-11.9043 14.0674-11.4404Q14.1797-10.9766 14.5801-10.5664L16.875-8.25195Q17.2363-7.88086 17.5781-7.82227Q17.9199-7.76367 18.3398-7.8418L19.4043-8.03711L20.0684-7.36328L20.0293-6.80664Q20-6.43555 20.1221-6.12305Q20.2441-5.81055 20.6055-5.44922L21.3672-4.70703Q21.7285-4.3457 22.1533-4.33105Q22.5781-4.31641 22.9297-4.66797L25.8398-7.58789Q26.1914-7.93945 26.1816-8.35449Q26.1719-8.76953 25.8105-9.13086L25.0391-9.89258Q24.6875-10.2539 24.3799-10.3857Q24.0723-10.5176 23.7109-10.4883L23.1348-10.4395L22.4902-11.0742L22.7344-12.1973Q22.832-12.6172 22.6953-12.9834Q22.5586-13.3496 22.1191-13.7891L19.9219-15.9766Q18.6719-17.2168 17.2607-17.8369Q15.8496-18.457 14.4189-18.4814Q12.9883-18.5059 11.665-17.959Q10.3418-17.4121 9.25781-16.3281ZM10.752-15.957Q11.6602-16.6211 12.7002-16.9043Q13.7402-17.1875 14.8047-17.085Q15.8691-16.9824 16.8701-16.5137Q17.8711-16.0449 18.7012-15.2051L21.1328-12.793Q21.3086-12.6172 21.3525-12.4512Q21.3965-12.2852 21.3379-12.0312L21.0156-10.5469L22.5195-9.0625L23.5059-9.12109Q23.6914-9.13086 23.7891-9.09668Q23.8867-9.0625 24.0332-8.91602L24.6094-8.33984L22.168-5.89844L21.5918-6.47461Q21.4453-6.62109 21.4062-6.71875Q21.3672-6.81641 21.377-7.01172L21.4453-7.98828L19.9512-9.47266L18.4277-9.21875Q18.1836-9.16992 18.042-9.2041Q17.9004-9.23828 17.7148-9.41406L15.7129-11.416Q15.5176-11.5918 15.4932-11.7529Q15.4688-11.9141 15.5859-12.1875L16.4648-14.2773Q15.293-15.3711 13.8281-15.791Q12.3633-16.2109 10.8398-15.7617Q10.7227-15.7324 10.6885-15.8057Q10.6543-15.8789 10.752-15.957Z"/>
  </g>
  <text style="stroke:none;fill:black;font-family:sans-serif;font-size:13;font-weight:bold;" transform="matrix(1 0 0 1 1289 1953)">Exporting</text>
  <text style="stroke:none;fill:black;font-family:sans-serif;font-size:13;" transform="matrix(1 0 0 1 1289 1971)">Symbols should be outlined when exporting to ensure the</text>
  <text style="stroke:none;fill:black;font-family:sans-serif;font-size:13;" transform="matrix(1 0 0 1 1289 1989)">design is preserved when submitting to Xcode.</text>
  <text id="template-version" style="stroke:none;fill:black;font-family:sans-serif;font-size:13;text-anchor:end;" transform="matrix(1 0 0 1 3036 1933)">Template v.2.0</text>
  <text style="stroke:none;fill:black;font-family:sans-serif;font-size:13;text-anchor:end;" transform="matrix(1 0 0 1 3036 1951)">Requires Xcode 12 or greater</text>
  <text id="descriptive-name" style="stroke:none;fill:black;font-family:sans-serif;font-size:13;text-anchor:end;" transform="matrix(1 0 0 1 3036 1969)">Generated from textformat.size</text>
  <text style="stroke:none;fill:black;font-family:sans-serif;font-size:13;text-anchor:end;" transform="matrix(1 0 0 1 3036 1987)">Typeset at 100 points</text>
  <text style="stroke:none;fill:black;font-family:sans-serif;font-size:13;" transform="matrix(1 0 0 1 263 726)">Small</text>
  <text style="stroke:none;fill:black;font-family:sans-serif;font-size:13;" transform="matrix(1 0 0 1 263 1156)">Medium</text>
  <text style="stroke:none;fill:black;font-family:sans-serif;font-size:13;" transform="matrix(1 0 0 1 263 1586)">Large</text>
 </g>
 <g id="Guides">
  <g id="H-reference" style="fill:#27AAE1;stroke:none;" transform="matrix(1 0 0 1 339 696)">
   <path d="M0.976562 0L3.66211 0L29.3457-67.1387L30.0293-67.1387L30.0293-70.459L28.125-70.459ZM11.6699-24.4629L46.9727-24.4629L46.2402-26.709L12.4512-26.709ZM55.127 0L57.7637 0L30.6152-70.459L29.4434-70.459L29.4434-67.1387Z"/>
  </g>
  <line id="Baseline-S" style="fill:none;stroke:#27AAE1;opacity:1;stroke-width:0.5;" x1="263" x2="3036" y1="696" y2="696"/>
  <line id="Capline-S" style="fill:none;stroke:#27AAE1;opacity:1;stroke-width:0.5;" x1="263" x2="3036" y1="625.541" y2="625.541"/>
  <g id="H-reference" style="fill:#27AAE1;stroke:none;" transform="matrix(1 0 0 1 339 1126)">
   <path d="M0.976562 0L3.66211 0L29.3457-67.1387L30.0293-67.1387L30.0293-70.459L28.125-70.459ZM11.6699-24.4629L46.9727-24.4629L46.2402-26.709L12.4512-26.709ZM55.127 0L57.7637 0L30.6152-70.459L29.4434-70.459L29.4434-67.1387Z"/>
  </g>
  <line id="Baseline-M" style="fill:none;stroke:#27AAE1;opacity:1;stroke-width:0.5;" x1="263" x2="3036" y1="1126" y2="1126"/>
  <line id="Capline-M" style="fill:none;stroke:#27AAE1;opacity:1;stroke-width:0.5;" x1="263" x2="3036" y1="1055.54" y2="1055.54"/>
  <g id="H-reference" style="fill:#27AAE1;stroke:none;" transform="matrix(1 0 0 1 339 1556)">
   <path d="M0.976562 0L3.66211 0L29.3457-67.1387L30.0293-67.1387L30.0293-70.459L28.125-70.459ZM11.6699-24.4629L46.9727-24.4629L46.2402-26.709L12.4512-26.709ZM55.127 0L57.7637 0L30.6152-70.459L29.4434-70.459L29.4434-67.1387Z"/>
  </g>
  <line id="Baseline-L" style="fill:none;stroke:#27AAE1;opacity:1;stroke-width:0.5;" x1="263" x2="3036" y1="1556" y2="1556"/>
  <line id="Capline-L" style="fill:none;stroke:#27AAE1;opacity:1;stroke-width:0.5;" x1="263" x2="3036" y1="1485.54" y2="1485.54"/>
  <line id="left-margin" style="fill:none;stroke:#00AEEF;stroke-width:0.5;opacity:1.0;" x1="1381.77" x2="1381.77" y1="1030.79" y2="1150.12"/>
  <line id="right-margin" style="fill:none;stroke:#00AEEF;stroke-width:0.5;opacity:1.0;" x1="1517.91" x2="1517.91" y1="1030.79" y2="1150.12"/>
 </g>
 <g id="Symbols">
  <g id="Black-L" transform="matrix(1 0 0 1 2831.31 1556)">
   <path d="M109.847 14.5019Q115.373 14.5019 118.569 11.8678Q121.765 9.2337 123.208 3.48938L126.394-6.88336L158.165-6.88336L161.352 3.48938Q162.794 9.2337 165.99 11.8678Q169.186 14.5019 174.713 14.5019Q180.824 14.5019 184.461 11.1308Q188.099 7.75964 188.099 2.19303Q188.099-1.98926 186.66-6.18039L164.522-69.8618Q159.429-84.9258 142.514-84.9258Q126.436-84.9258 121.248-69.8618L98.4655-4.99153Q97.0862-0.917214 97.0862 2.5642Q97.0862 8.0724 100.527 11.2872Q103.967 14.5019 109.847 14.5019ZM131.803-25.9726L142.332-61.7303L142.849-61.7303L153.378-25.9726ZM26.7017 14.4891Q30.9148 14.4891 33.4372 12.1281Q35.9595 9.76723 37.3414 4.45625L39.3393-2.23224L63.3312-2.23224L65.3291 4.74829Q66.6136 9.90477 69.2041 12.1969Q71.7946 14.4891 76.3413 14.4891Q80.854 14.4891 83.7994 11.6643Q86.7448 8.83955 86.7448 4.32932Q86.7448 2.53487 86.4178 0.887715Q86.0909-0.759435 85.3435-2.80695L68.0808-50.3072Q65.7011-56.9132 61.6846-59.8962Q57.6681-62.8793 51.101-62.8793Q44.9635-62.8793 41.0346-59.819Q37.1057-56.7587 34.8051-50.3072L17.6385-2.80695Q16.9482-0.896975 16.5161 0.994165Q16.084 2.8853 16.084 4.32932Q16.084 9.07189 18.9016 11.7805Q21.7191 14.4891 26.7017 14.4891ZM43.3222-17.7529L50.5797-43.8787L51.4471-43.8787L59.0757-17.7529Z"/>
  </g>
  <g id="Heavy-L" transform="matrix(1 0 0 1 2538.03 1556)">
   <path d="M104.629 13.7296Q109.384 13.7296 112.132 11.4785Q114.88 9.22745 116.183 4.27298L120.633-9.12933L153.8-9.12933L158.25 4.27298Q159.553 9.22745 162.301 11.4785Q165.049 13.7296 169.804 13.7296Q175.011 13.7296 178.122 10.8477Q181.234 7.96582 181.234 3.18385Q181.234-0.339242 179.975-3.9577L155.974-71.4148Q151.606-84.1858 137.398-84.1858Q123.839-84.1858 119.417-71.4148L94.9133-3.03548Q93.7051 0.493727 93.7051 3.48135Q93.7051 8.2187 96.6495 10.9741Q99.5939 13.7296 104.629 13.7296ZM125.445-25.8058L137.207-63.3444L137.687-63.3444L149.449-25.8058ZM25.3477 13.6692Q29.002 13.6692 31.2145 11.6338Q33.427 9.59846 34.6472 5.03078L37.4891-3.89314L61.7146-3.89314L64.5565 5.25389Q65.7113 9.71747 67.9803 11.6933Q70.2493 13.6692 74.1596 13.6692Q78.1263 13.6692 80.6974 11.2187Q83.2686 8.7682 83.2686 4.84013Q83.2686 3.26286 82.9694 1.80319Q82.6703 0.34351 82.0246-1.43598L64.1081-50.2499Q62.052-55.9272 58.5511-58.5265Q55.0503-61.1258 49.4204-61.1258Q44.1326-61.1258 40.6987-58.4745Q37.2647-55.8231 35.283-50.2499L17.426-1.43598Q16.8189 0.224503 16.4515 1.87755Q16.084 3.5306 16.084 4.84013Q16.084 8.94065 18.548 11.3049Q21.012 13.6692 25.3477 13.6692ZM41.156-17.5647L48.8639-43.8807L49.843-43.8807L57.8483-17.5647Z"/>
  </g>
  <g id="Bold-L" transform="matrix(1 0 0 1 2245.29 1556)">
   <path d="M98.478 12.8569Q102.295 12.8569 104.501 11.066Q106.706 9.27513 107.828 5.28194L113.854-11.8835L148.828-11.8835L154.854 5.28194Q155.976 9.27513 158.181 11.066Q160.387 12.8569 164.204 12.8569Q168.328 12.8569 170.807 10.5641Q173.286 8.27129 173.286 4.43326Q173.286 1.68786 172.246-1.2353L145.952-73.3248Q142.457-83.3522 131.465-83.3522Q120.904-83.3522 117.403-73.3248L90.7583-0.61424Q89.7617 2.25051 89.7617 4.64547Q89.7617 8.4543 92.1093 10.6556Q94.4569 12.8569 98.478 12.8569ZM117.921-25.5933L131.267-65.5184L131.699-65.5184L145.045-25.5933ZM23.6892 12.7147Q26.6636 12.7147 28.4921 11.0737Q30.3206 9.43269 31.3457 5.76268L35.2755-5.96409L59.9207-5.96409L63.8506 5.9087Q64.84 9.52809 66.7091 11.1214Q68.5782 12.7147 71.7335 12.7147Q75.0174 12.7147 77.131 10.7217Q79.2446 8.72867 79.2446 5.51229Q79.2446 4.201 78.9809 2.97694Q78.7172 1.75288 78.1968 0.302007L59.3533-50.4016Q57.6966-54.9452 54.8344-57.0706Q51.9722-59.196 47.4742-59.196Q43.2176-59.196 40.3992-57.0453Q37.5808-54.8946 35.9903-50.4016L17.1682 0.302007Q16.6628 1.65748 16.3734 3.01685Q16.084 4.37622 16.084 5.51229Q16.084 8.83126 18.1136 10.773Q20.1432 12.7147 23.6892 12.7147ZM38.5228-17.357L46.9071-44.1765L47.9537-44.1765L56.5502-17.357Z"/>
  </g>
  <g id="Semibold-L" transform="matrix(1 0 0 1 1951.32 1556)">
   <path d="M94.2377 12.2553Q97.4086 12.2553 99.2397 10.7817Q101.071 9.30801 102.067 5.97751L109.181-13.7823L145.4-13.7823L152.514 5.97751Q153.51 9.30801 155.341 10.7817Q157.172 12.2553 160.343 12.2553Q163.72 12.2553 165.764 10.3686Q167.808 8.48188 167.808 5.29459Q167.808 3.08533 166.918 0.64151L139.042-74.6416Q136.151-82.7775 127.375-82.7775Q118.881-82.7775 116.014-74.6416L87.8939 1.05495Q87.0431 3.46163 87.0431 5.448Q87.0431 8.61672 88.9793 10.436Q90.9155 12.2553 94.2377 12.2553ZM112.734-25.4468L127.172-67.0171L127.571-67.0171L142.009-25.4468ZM22.5459 12.0566Q25.0515 12.0566 26.6153 10.6875Q28.179 9.31842 29.0696 6.26726L33.7495-7.39178L58.684-7.39178L63.3639 6.36012Q64.2394 9.39754 65.8328 10.7271Q67.4261 12.0566 70.0609 12.0566Q72.8741 12.0566 74.6723 10.379Q76.4706 8.70143 76.4706 5.97567Q76.4706 4.84774 76.2313 3.78611Q75.992 2.72449 75.5579 1.50016L56.0753-50.5062Q54.6941-54.2682 52.2721-56.0669Q49.8502-57.8655 46.1325-57.8655Q42.5867-57.8655 40.1927-56.06Q37.7987-54.2544 36.4779-50.5062L16.9905 1.50016Q16.5552 2.64537 16.3196 3.80227Q16.084 4.95918 16.084 5.97567Q16.084 8.75585 17.8141 10.4062Q19.5443 12.0566 22.5459 12.0566ZM36.7074-17.2139L45.558-44.3804L46.6512-44.3804L55.6553-17.2139Z"/>
  </g>
  <g id="Medium-L" transform="matrix(1 0 0 1 1656.69 1556)">
   <path d="M91.0225 11.7992Q93.7033 11.7992 95.2506 10.5661Q96.7979 9.33293 97.6995 6.50493L105.638-15.222L142.801-15.222L150.739 6.50493Q151.641 9.33293 153.188 10.5661Q154.735 11.7992 157.416 11.7992Q160.226 11.7992 161.94 10.2204Q163.653 8.64156 163.653 5.94768Q163.653 4.14496 162.879 2.06458L133.803-75.64Q131.368-82.3417 124.273-82.3417Q117.347-82.3417 114.961-75.64L85.722 2.3206Q84.9817 4.37995 84.9817 6.05652Q84.9817 8.73988 86.606 10.2695Q88.2303 11.7992 91.0225 11.7992ZM108.801-25.3357L124.067-68.1535L124.442-68.1535L139.708-25.3357ZM21.6789 11.5577Q23.8292 11.5577 25.1922 10.3947Q26.5552 9.23177 27.3438 6.64985L32.5924-8.47432L57.7462-8.47432L62.9948 6.70241Q63.784 9.29854 65.1683 10.4281Q66.5526 11.5577 68.7927 11.5577Q71.249 11.5577 72.8081 10.1192Q74.3672 8.68076 74.3672 6.32702Q74.3672 5.33812 74.1464 4.39966Q73.9256 3.4612 73.557 2.40865L53.5898-50.5855Q52.4174-53.7548 50.3293-55.3058Q48.2413-56.8568 45.1152-56.8568Q42.1084-56.8568 40.0361-55.3129Q37.9639-53.769 36.8477-50.5855L16.8558 2.40865Q16.4736 3.39442 16.2788 4.39781Q16.084 5.4012 16.084 6.32702Q16.084 8.69866 17.5871 10.1282Q19.0902 11.5577 21.6789 11.5577ZM35.3309-17.1053L44.5352-44.535L45.6636-44.535L54.9767-17.1053Z"/>
  </g>
  <g id="Regular-L" transform="matrix(1 0 0 1 1362.68 1556)">
   <path d="M86.8288 11.2042Q88.8703 11.2042 90.0475 10.2848Q91.2247 9.36545 92.0025 7.19285L101.016-17.0998L139.411-17.0998L148.424 7.19285Q149.202 9.36545 150.379 10.2848Q151.556 11.2042 153.598 11.2042Q155.669 11.2042 156.952 10.027Q158.235 8.84984 158.235 6.79955Q158.235 5.52707 157.609 3.92077L126.97-76.9423Q125.131-81.7734 120.228-81.7734Q115.346-81.7734 113.588-76.9423L82.8891 3.97145Q82.293 5.57775 82.293 6.85023Q82.293 8.90052 83.5104 10.0524Q84.7278 11.2042 86.8288 11.2042ZM103.671-25.1908L120.017-69.6358L120.359-69.6358L136.705-25.1908ZM20.5481 10.9068Q22.2349 10.9068 23.336 10.0128Q24.4372 9.11874 25.0927 7.14887L31.0831-9.88632L56.5231-9.88632L62.5135 7.14887Q63.19 9.16942 64.3016 10.0381Q65.4132 10.9068 67.1385 10.9068Q69.1293 10.9068 70.3764 9.78032Q71.6236 8.65382 71.6236 6.78531Q71.6236 5.97776 71.4269 5.19995Q71.2303 4.42213 70.9471 3.59364L50.3479-50.689Q49.4478-53.0852 47.7952-54.3131Q46.1426-55.541 43.7882-55.541Q41.4845-55.541 39.8319-54.3384Q38.1794-53.1359 37.3299-50.689L16.68 3.59364Q16.3671 4.37145 16.2256 5.17461Q16.084 5.97776 16.084 6.78531Q16.084 8.62408 17.2909 9.76545Q18.4978 10.9068 20.5481 10.9068ZM33.5355-16.9637L43.201-44.7366L44.3755-44.7366L54.0916-16.9637Z"/>
  </g>
  <g id="Light-L" transform="matrix(1 0 0 1 1066.93 1556)">
   <path d="M84.5919 11.1427Q86.0998 11.1427 86.9795 10.449Q87.8591 9.75537 88.4522 8.13686L98.6353-18.8237L138.775-18.8237L148.958 8.13686Q149.551 9.75537 150.43 10.449Q151.31 11.1427 152.818 11.1427Q154.376 11.1427 155.351 10.263Q156.326 9.38341 156.326 7.80513Q156.326 6.81995 155.824 5.60357L123.686-78.1736Q122.299-81.7323 118.73-81.7323Q115.141-81.7323 113.834-78.1736L81.5962 5.63373Q81.1438 6.85011 81.1438 7.83528Q81.1438 9.41357 82.0636 10.2781Q82.9835 11.1427 84.5919 11.1427ZM100.736-25.0061L118.539-72.2626L118.841-72.2626L136.644-25.0061ZM19.522 10.64Q20.8188 10.64 21.6532 9.96148Q22.4876 9.28292 23.0405 7.78505L30.057-11.4049L56.6257-11.4049L63.6422 7.78505Q64.175 9.31308 64.9993 9.97656Q65.8237 10.64 67.2411 10.64Q68.7189 10.64 69.689 9.79058Q70.659 8.94112 70.659 7.50358Q70.659 6.8602 70.4932 6.26709Q70.3273 5.67397 70.1262 5.0507L48.1315-52.2281Q47.4982-53.9471 46.2868-54.8569Q45.0755-55.7667 43.3162-55.7667Q41.5871-55.7667 40.3758-54.872Q39.1644-53.9773 38.5612-52.2281L16.5364 5.0507Q16.285 5.64382 16.1845 6.25201Q16.084 6.8602 16.084 7.50358Q16.084 8.89086 17.0139 9.76545Q17.9437 10.64 19.522 10.64ZM32.0374-16.9842L42.9342-46.8299L43.6982-46.8299L54.6252-16.9842Z"/>
  </g>
  <g id="Thin-L" transform="matrix(1 0 0 1 771.479 1556)">
   <path d="M81.6334 11.0612Q82.4357 11.0612 82.9217 10.6661Q83.4078 10.2711 83.7566 9.38539L95.4868-21.1036L137.933-21.1036L149.663 9.38539Q150.012 10.2711 150.498 10.6661Q150.984 11.0612 151.787 11.0612Q152.666 11.0612 153.234 10.5752Q153.802 10.0891 153.802 9.13508Q153.802 8.5299 153.462 7.82921L119.343-79.8021Q118.553-81.678 116.749-81.678Q114.87-81.678 114.16-79.8021L79.8862 7.83223Q79.6239 8.53292 79.6239 9.1381Q79.6239 10.0921 80.1501 10.5767Q80.6764 11.0612 81.6334 11.0612ZM96.855-24.7618L116.585-75.7368L116.832-75.7368L136.562-24.7618ZM18.1649 10.2872Q18.946 10.2872 19.4276 9.89363Q19.9091 9.50006 20.3263 8.62646L28.6999-13.4135L56.7614-13.4135L65.135 8.62646Q65.4778 9.50307 65.9222 9.89514Q66.3665 10.2872 67.3768 10.2872Q68.176 10.2872 68.7797 9.80416Q69.3834 9.32111 69.3834 8.45355Q69.3834 8.02731 69.2582 7.67847Q69.1331 7.32963 69.0406 6.97778L45.2002-54.2638Q44.9197-55.0871 44.2919-55.5762Q43.6641-56.0653 42.692-56.0653Q41.7229-56.0653 41.095-55.5777Q40.4672-55.0901 40.1898-54.2638L16.3464 6.97778Q16.1765 7.32662 16.1302 7.67696Q16.084 8.02731 16.084 8.45355Q16.084 9.24371 16.6474 9.76545Q17.2109 10.2872 18.1649 10.2872ZM30.0561-17.0114L42.5814-49.5984L42.8026-49.5984L55.3309-17.0114Z"/>
  </g>
  <g id="Ultralight-L" transform="matrix(1 0 0 1 475.414 1556)">
   <path d="M80.1181 11.0195Q80.5589 11.0195 80.8434 10.7774Q81.1279 10.5352 81.3516 10.0249L93.8742-22.2714L137.502-22.2714L150.025 10.0249Q150.249 10.5352 150.533 10.7774Q150.818 11.0195 151.258 11.0195Q151.79 11.0195 152.15 10.735Q152.509 10.4506 152.509 9.81628Q152.509 9.40572 152.253 8.96917L117.119-80.6363Q116.635-81.6502 115.734-81.6502Q114.731-81.6502 114.327-80.6363L79.0104 8.95829Q78.8453 9.39484 78.8453 9.80539Q78.8453 10.4397 79.17 10.7296Q79.4947 11.0195 80.1181 11.0195ZM94.867-24.6367L115.584-77.5162L115.803-77.5162L136.52-24.6367ZM17.4698 10.1065Q17.9868 10.1065 18.2876 9.85887Q18.5884 9.61127 18.9361 9.05742L28.0048-14.4422L56.8309-14.4422L65.8996 9.05742Q66.1451 9.60039 66.3948 9.85343Q66.6445 10.1065 67.4463 10.1065Q67.898 10.1065 68.314 9.81111Q68.73 9.51574 68.73 8.94011Q68.73 8.62509 68.6257 8.40137Q68.5214 8.17765 68.4845 7.96482L43.6988-55.3064Q43.599-55.671 43.2701-55.9446Q42.9412-56.2182 42.3722-56.2182Q41.7924-56.2182 41.4634-55.9392Q41.1345-55.6601 41.0239-55.3064L16.2491 7.96482Q16.1209 8.18854 16.1024 8.40682Q16.084 8.62509 16.084 8.94011Q16.084 9.42443 16.4598 9.76545Q16.8356 10.1065 17.4698 10.1065ZM29.0412-17.0253L42.4006-51.0164L42.3438-51.0164L55.6923-17.0253Z"/>
  </g>
  <g id="Black-M" transform="matrix(1 0 0 1 2851.48 1126)">
   <path d="M89.2843 3.95498Q94.1564 3.95498 96.977 1.6156Q99.7977-0.723784 101.01-5.7779L102.552-11.5719L126.203-11.5719L127.744-5.7779Q128.956-0.723784 131.777 1.6156Q134.598 3.95498 139.47 3.95498Q144.913 3.95498 148.141 0.963036Q151.369-2.02891 151.369-6.95199Q151.369-10.7198 150.116-14.4062L134.363-60.8926Q129.856-74.3618 114.605-74.3618Q100.16-74.3618 95.5435-60.8926L79.1631-13.2587Q77.9669-9.68655 77.9669-6.6039Q77.9669-1.73792 81.0186 1.10853Q84.0702 3.95498 89.2843 3.95498ZM107.18-28.1761L114.475-54.7294L114.901-54.7294L122.197-28.1761ZM21.7115 3.95803Q25.4031 3.95803 27.5874 1.87833Q29.7718-0.201361 30.9673-4.89085L31.9289-8.44346L50.4685-8.44346L51.4301-4.60537Q52.5173-0.0816553 54.7616 1.93819Q57.006 3.95803 61.0337 3.95803Q64.9297 3.95803 67.4957 1.48546Q70.0617-0.987106 70.0617-4.92332Q70.0617-6.47796 69.7887-7.89018Q69.5157-9.30239 68.8604-11.0912L55.859-47.1687Q53.7733-52.9929 50.2782-55.5907Q46.7831-58.1885 40.9705-58.1885Q35.5631-58.1885 32.1536-55.5078Q28.7441-52.8271 26.7211-47.1687L13.8284-11.0912Q13.2304-9.42209 12.8457-7.77874Q12.4609-6.13539 12.4609-4.92332Q12.4609-0.758416 14.9102 1.5998Q17.3594 3.95803 21.7115 3.95803ZM35.2222-21.8542L40.6247-42.2123L41.145-42.2123L46.8955-21.8542Z"/>
  </g>
  <g id="Heavy-M" transform="matrix(1 0 0 1 2558.04 1126)">
   <path d="M84.3897 3.20562Q88.557 3.20562 90.9673 1.21988Q93.3775-0.76587 94.4708-5.09897L97.1391-13.6084L121.994-13.6084L124.662-5.09897Q125.756-0.76587 128.166 1.21988Q130.576 3.20562 134.744 3.20562Q139.349 3.20562 142.092 0.664522Q144.834-1.87658 144.834-6.07616Q144.834-9.22606 143.746-12.3886L126.31-62.2973Q122.469-73.6421 109.742-73.6421Q97.6397-73.6421 93.7305-62.2973L75.8098-11.4999Q74.7677-8.42463 74.7677-5.7982Q74.7677-1.64223 77.3617 0.781695Q79.9558 3.20562 84.3897 3.20562ZM101.235-28.0301L109.601-56.065L109.995-56.065L118.361-28.0301ZM20.4826 3.18117Q23.6638 3.18117 25.5698 1.39984Q27.4759-0.381487 28.5229-4.3879L30.2149-9.92701L48.8788-9.92701L50.5707-4.16979Q51.5443-0.278006 53.5009 1.45158Q55.4574 3.18117 58.8915 3.18117Q62.301 3.18117 64.5267 1.04891Q66.7524-1.08336 66.7524-4.49022Q66.7524-5.8477 66.5038-7.09369Q66.2551-8.33967 65.6916-9.88543L52.1799-46.9706Q50.386-51.9496 47.3542-54.2015Q44.3225-56.4535 39.3711-56.4535Q34.7414-56.4535 31.775-54.1442Q28.8087-51.8349 27.0747-46.9706L13.634-9.88543Q13.1117-8.44315 12.7863-7.01456Q12.4609-5.58597 12.4609-4.49022Q12.4609-0.911322 14.5901 1.13493Q16.7192 3.18117 20.4826 3.18117ZM33.2429-21.6683L38.9719-42.0212L39.6394-42.0212L45.6465-21.6683Z"/>
  </g>
  <g id="Bold-M" transform="matrix(1 0 0 1 2264.99 1126)">
   <path d="M78.9144 2.36736Q82.2933 2.36736 84.2445 0.777204Q86.1956-0.81295 87.1557-4.33948L91.0846-15.8866L117.286-15.8866L121.215-4.33948Q122.175-0.81295 124.126 0.777204Q126.078 2.36736 129.456 2.36736Q133.126 2.36736 135.325 0.330591Q137.524-1.70618 137.524-5.09642Q137.524-7.55511 136.62-10.1316L117.302-63.8686Q114.207-72.8371 104.302-72.8371Q94.8203-72.8371 91.7023-63.8686L72.0587-9.53243Q71.1888-7.013 71.1888-4.8969Q71.1888-1.5352 73.271 0.41608Q75.3532 2.36736 78.9144 2.36736ZM94.5853-27.8667L104.15-57.559L104.507-57.559L114.071-27.8667ZM19.1079 2.31215Q21.7181 2.31215 23.3129 0.864584Q24.9076-0.582985 25.7885-3.82528L28.2975-11.5866L47.1004-11.5866L49.6094-3.68254Q50.4559-0.497652 52.0906 0.90725Q53.7252 2.31215 56.4951 2.31215Q59.3605 2.31215 61.2055 0.560556Q63.0506-1.19104 63.0506-4.00574Q63.0506-5.14267 62.8291-6.2027Q62.6077-7.26273 62.1469-8.53656L48.0643-46.7491Q46.5968-50.7824 44.0833-52.6476Q41.5699-54.5127 37.582-54.5127Q33.8222-54.5127 31.3516-52.6189Q28.881-50.725 27.4702-46.7491L13.4165-8.53656Q12.9788-7.34806 12.7199-6.15972Q12.4609-4.97138 12.4609-4.00574Q12.4609-1.08237 14.232 0.614893Q16.0031 2.31215 19.1079 2.31215ZM31.0286-21.4604L37.1232-41.8073L37.9552-41.8073L44.2493-21.4604Z"/>
  </g>
  <g id="Semibold-M" transform="matrix(1 0 0 1 1970.79 1126)">
   <path d="M75.1398 1.78946Q77.9752 1.78946 79.6098 0.472028Q81.2444-0.845406 82.1127-3.8159L86.9107-17.4572L114.041-17.4572L118.839-3.8159Q119.707-0.845406 121.342 0.472028Q122.976 1.78946 125.812 1.78946Q128.836 1.78946 130.66 0.100382Q132.484-1.5887 132.484-4.421Q132.484-6.40316 131.707-8.5757L111.091-64.9518Q108.511-72.2821 100.552-72.2821Q92.8767-72.2821 90.3041-64.9518L69.4727-8.17606Q68.7216-6.03984 68.7216-4.27555Q68.7216-1.46141 70.4509 0.164027Q72.1802 1.78946 75.1398 1.78946ZM90.0008-27.7541L100.391-58.589L100.724-58.589L111.114-27.7541ZM18.1601 1.71306Q20.3768 1.71306 21.7569 0.49558Q23.1371-0.721896 23.9035-3.43742L26.9757-12.7307L45.8744-12.7307L48.9466-3.34664Q49.7056-0.649075 51.1183 0.53199Q52.531 1.71306 54.8431 1.71306Q57.3333 1.71306 58.9159 0.223892Q60.4985-1.26527 60.4985-3.67175Q60.4985-4.65662 60.2958-5.58846Q60.0931-6.5203 59.7032-7.60666L45.227-46.5964Q43.9845-49.9778 41.8284-51.5763Q39.6723-53.1748 36.3486-53.1748Q33.1885-53.1748 31.0597-51.5673Q28.9308-49.9598 27.7429-46.5964L13.2665-7.60666Q12.8872-6.59312 12.674-5.5704Q12.4609-4.54768 12.4609-3.67175Q12.4609-1.20029 13.9852 0.256385Q15.5094 1.71306 18.1601 1.71306ZM29.5022-21.317L35.8486-41.6599L36.7941-41.6599L43.286-21.317Z"/>
  </g>
  <g id="Medium-M" transform="matrix(1 0 0 1 1675.99 1126)">
   <path d="M72.2778 1.35128Q74.701 1.35128 76.0956 0.240631Q77.4902-0.870016 78.2889-3.4189L83.7458-18.648L111.58-18.648L117.037-3.4189Q117.835-0.870016 119.23 0.240631Q120.625 1.35128 123.048 1.35128Q125.583 1.35128 127.123-0.0741732Q128.663-1.49962 128.663-3.90886Q128.663-5.52971 127.983-7.39592L106.382-65.7732Q104.192-71.8613 97.7086-71.8613Q91.403-71.8613 89.244-65.7732L67.5119-7.1476Q66.8509-5.30194 66.8509-3.80442Q66.8509-1.40546 68.3126-0.0270904Q69.7744 1.35128 72.2778 1.35128ZM86.5246-27.6687L97.5412-59.37L97.8548-59.37L108.871-27.6687ZM17.4415 1.25879Q19.3598 1.25879 20.5772 0.215785Q21.7946-0.827224 22.4742-3.14332L25.9734-13.5982L44.9448-13.5982L48.4441-3.09194Q49.1367-0.76389 50.3811 0.247452Q51.6255 1.25879 53.5904 1.25879Q55.7962 1.25879 57.1798-0.0313817Q58.5634-1.32156 58.5634-3.4185Q58.5634-4.28807 58.375-5.12271Q58.1865-5.95735 57.8503-6.90157L43.0757-46.4806Q42.0038-49.3677 40.1186-50.764Q38.2335-52.1603 35.4134-52.1603Q32.708-52.1603 30.8383-50.77Q28.9685-49.3796 27.9497-46.4806L13.1529-6.90157Q12.8177-6.02068 12.6393-5.12355Q12.4609-4.22641 12.4609-3.4185Q12.4609-1.2897 13.798-0.0154512Q15.1351 1.25879 17.4415 1.25879ZM28.3448-21.2083L34.8822-41.5481L35.9138-41.5481L42.5556-21.2083Z"/>
  </g>
  <g id="Regular-M" transform="matrix(1 0 0 1 1381.77 1126)">
   <path d="M68.5446 0.779734Q70.4303 0.779734 71.5119-0.0611908Q72.5935-0.902115 73.3013-2.90107L79.6177-20.2013L108.37-20.2013L114.686-2.90107Q115.394-0.902115 116.476-0.0611908Q117.557 0.779734 119.443 0.779734Q121.34 0.779734 122.51-0.301853Q123.679-1.38344 123.679-3.24086Q123.679-4.39042 123.124-5.85709L100.24-66.8445Q98.558-71.3124 93.9995-71.3124Q89.4807-71.3124 87.8611-66.8445L64.9544-5.80613Q64.4108-4.33946 64.4108-3.1899Q64.4108-1.33248 65.5235-0.276374Q66.6362 0.779734 68.5446 0.779734ZM81.9905-27.5574L93.824-60.3886L94.1128-60.3886L105.946-27.5574ZM16.5042 0.666281Q18.0332 0.666281 19.0383-0.149164Q20.0435-0.964609 20.6098-2.75972L24.6661-14.7297L43.7323-14.7297L47.7886-2.75972Q48.3946-0.913649 49.4195-0.123684Q50.4445 0.666281 51.9565 0.666281Q53.7913 0.666281 54.9153-0.364347Q56.0394-1.39497 56.0394-3.08817Q56.0394-3.80737 55.8695-4.51522Q55.6996-5.22307 55.4335-5.98189L40.2696-46.3295Q39.4202-48.5719 37.8885-49.7045Q36.3567-50.837 34.1936-50.837Q32.0813-50.837 30.5496-49.7299Q29.0178-48.6229 28.2194-46.3295L13.0046-5.98189Q12.7271-5.27403 12.594-4.5407Q12.4609-3.80737 12.4609-3.08817Q12.4609-1.40632 13.5539-0.37002Q14.6468 0.666281 16.5042 0.666281ZM26.8351-21.0665L33.6217-41.4022L34.7654-41.4022L41.603-21.0665Z"/>
  </g>
  <g id="Light-M" transform="matrix(1 0 0 1 1085.92 1126)">
   <path d="M66.5391 0.724537Q67.9464 0.724537 68.7612 0.0860012Q69.576-0.552534 70.1183-2.05471L77.4835-21.7469L107.8-21.7469L115.165-2.05471Q115.707-0.552534 116.522 0.0860012Q117.337 0.724537 118.744 0.724537Q120.181 0.724537 121.074-0.0902648Q121.968-0.905066 121.968-2.33931Q121.968-3.23129 121.523-4.34837L97.296-67.9484Q96.0189-71.2756 92.6564-71.2756Q89.2967-71.2756 88.0819-67.9484L63.7953-4.31581Q63.3804-3.19872 63.3804-2.30675Q63.3804-0.872506 64.2264-0.0739846Q65.0723 0.724537 66.5391 0.724537ZM79.3595-27.3918L92.4992-62.7437L92.7513-62.7437L105.891-27.3918ZM15.5843 0.427094Q16.7637 0.427094 17.5296-0.195162Q18.2956-0.817417 18.7699-2.18935L23.7462-16.0912L43.8243-16.0912L48.8006-2.18935Q49.2777-0.784856 50.0451-0.178881Q50.8125 0.427094 52.0485 0.427094Q53.4233 0.427094 54.299-0.355147Q55.1747-1.13739 55.1747-2.4442Q55.1747-3.01621 55.0324-3.55847Q54.8901-4.10073 54.6975-4.67556L38.2825-47.7094Q37.6723-49.3447 36.5362-50.192Q35.4-51.0394 33.7704-51.0394Q32.1733-51.0394 31.0371-50.2083Q29.901-49.3772 29.3233-47.7094L12.8758-4.67556Q12.6535-4.1333 12.5572-3.57475Q12.4609-3.01621 12.4609-2.4442Q12.4609-1.16713 13.3055-0.37002Q14.15 0.427094 15.5843 0.427094ZM25.4919-21.0849L33.3825-43.2789L34.1583-43.2789L42.0814-21.0849Z"/>
  </g>
  <g id="Thin-M" transform="matrix(1 0 0 1 790.339 1126)">
   <path d="M63.8867 0.651534Q64.6613 0.651534 65.1233 0.280675Q65.5852-0.090185 65.9085-0.93534L74.6607-23.7909L107.045-23.7909L115.797-0.93534Q116.121-0.090185 116.583 0.280675Q117.045 0.651534 117.819 0.651534Q118.648 0.651534 119.176 0.189578Q119.705-0.272378 119.705-1.14693Q119.705-1.69823 119.406-2.35297L93.4025-69.4085Q92.6608-71.2269 90.88-71.2269Q89.0534-71.2269 88.3739-69.4085L62.2622-2.34474Q62.0177-1.69001 62.0177-1.13871Q62.0177-0.264152 62.5108 0.193691Q63.0039 0.651534 63.8867 0.651534ZM75.8797-27.1728L90.7472-65.8585L90.9505-65.8585L105.818-27.1728ZM14.3676 0.11075Q15.0846 0.11075 15.5342-0.255997Q15.9838-0.622743 16.3365-1.43499L22.5295-17.8919L43.946-17.8919L50.139-1.43499Q50.4458-0.614517 50.8725-0.251884Q51.2991 0.11075 52.1702 0.11075Q52.9366 0.11075 53.4838-0.34298Q54.031-0.79671 54.031-1.59251Q54.031-1.96984 53.9252-2.2931Q53.8194-2.61635 53.7242-2.94783L35.6544-49.5345Q35.3606-50.3667 34.7476-50.8369Q34.1346-51.3071 33.2107-51.3071Q32.295-51.3071 31.682-50.841Q31.069-50.3749 30.7834-49.5345L12.7054-2.94783Q12.5561-2.62458 12.5085-2.29721Q12.4609-1.96984 12.4609-1.59251Q12.4609-0.850789 12.977-0.37002Q13.493 0.11075 14.3676 0.11075ZM23.7156-21.1093L33.0661-45.761L33.3553-45.761L42.714-21.1093Z"/>
  </g>
  <g id="Ultralight-M" transform="matrix(1 0 0 1 494.208 1126)">
   <path d="M62.5281 0.614143Q62.9787 0.614143 63.2599 0.380385Q63.5412 0.146628 63.7522-0.362003L73.2149-24.8379L106.659-24.8379L116.122-0.362003Q116.333 0.146628 116.614 0.380385Q116.895 0.614143 117.346 0.614143Q117.863 0.614143 118.204 0.332912Q118.546 0.0516819 118.546-0.536205Q118.546-0.913011 118.322-1.33093L91.4083-70.1563Q90.9408-71.202 89.9701-71.202Q88.9287-71.202 88.5235-70.1563L61.477-1.33517Q61.3197-0.917248 61.3197-0.540442Q61.3197 0.0474443 61.6321 0.330793Q61.9445 0.614143 62.5281 0.614143ZM74.0973-27.0606L89.8498-67.4538L90.0282-67.4538L105.781-27.0606ZM13.7444-0.0512804Q14.2246-0.0512804 14.5122-0.287157Q14.7998-0.523033 15.0901-1.04861L21.9063-18.8143L44.0083-18.8143L50.8245-1.04861Q51.044-0.52727 51.2962-0.289275Q51.5484-0.0512804 52.2325-0.0512804Q52.6873-0.0512804 53.0662-0.336748Q53.4452-0.622216 53.4452-1.15627Q53.4452-1.4339 53.3581-1.64498Q53.271-1.85606 53.2256-2.0629L34.3084-50.4693Q34.1765-50.8902 33.8315-51.1672Q33.4865-51.4442 32.924-51.4442Q32.3573-51.4442 32.0123-51.1651Q31.6673-50.8859 31.5312-50.4693L12.6182-2.0629Q12.5063-1.85182 12.4836-1.64286Q12.4609-1.4339 12.4609-1.15627Q12.4609-0.688759 12.8087-0.37002Q13.1565-0.0512804 13.7444-0.0512804ZM22.8057-21.1217L32.9041-47.0323L32.9439-47.0323L43.0381-21.1217Z"/>
  </g>
  <g id="Black-S" transform="matrix(1 0 0 1 2868.26 696)">
   <path d="M71.3379-4.29688Q75.3418-4.29688 77.6611-6.22559Q79.9805-8.1543 80.957-12.3047L81.8848-16.1621L100.146-16.1621L101.074-12.3047Q102.051-8.1543 104.37-6.22559Q106.689-4.29688 110.693-4.29688Q115.186-4.29688 117.847-6.7627Q120.508-9.22852 120.508-13.2812Q120.508-16.4062 119.482-19.4336L107.568-54.9805Q103.857-66.1133 91.2109-66.1133Q79.248-66.1133 75.4395-54.9805L62.9883-18.457Q62.0117-15.5273 62.0117-12.9883Q62.0117-8.98438 64.5264-6.64062Q67.041-4.29688 71.3379-4.29688ZM85.6445-29.7363L91.1133-50.2441L91.4551-50.2441L96.9238-29.7363ZM17.334-4.29688Q20.3613-4.29688 22.1436-6.00586Q23.9258-7.71484 24.9023-11.5723L25.4883-13.8672L40.0391-13.8672L40.625-11.3281Q41.5039-7.61719 43.335-5.95703Q45.166-4.29688 48.4863-4.29688Q51.6602-4.29688 53.7598-6.32324Q55.8594-8.34961 55.8594-11.5723Q55.8594-12.8418 55.6396-13.9893Q55.4199-15.1367 54.8828-16.6016L44.7754-44.7266Q43.0664-49.5117 40.21-51.6357Q37.3535-53.7598 32.5684-53.7598Q28.125-53.7598 25.3418-51.5625Q22.5586-49.3652 20.8984-44.7266L10.8887-16.6016Q10.4004-15.2344 10.083-13.8916Q9.76562-12.5488 9.76562-11.5723Q9.76562-8.1543 11.7676-6.22559Q13.7695-4.29688 17.334-4.29688ZM28.125-24.8047L32.3242-40.8691L32.666-40.8691L37.1582-24.8047Z"/>
  </g>
  <g id="Heavy-S" transform="matrix(1 0 0 1 2574.24 696)">
   <path d="M67.408-4.93072Q70.8703-4.93072 72.8727-6.58284Q74.8751-8.23497 75.771-11.8322L77.5285-17.7064L96.62-17.7064L98.3775-11.8322Q99.2734-8.23497 101.276-6.58284Q103.278-4.93072 106.74-4.93072Q110.576-4.93072 112.857-7.04504Q115.137-9.15937 115.137-12.6474Q115.137-15.2769 114.239-17.9008L101.057-56.0407Q97.8647-65.5025 87.2235-65.5025Q77.116-65.5025 73.8606-56.0407L60.2685-17.1432Q59.4072-14.5939 59.4072-12.4121Q59.4072-8.96133 61.5646-6.94602Q63.722-4.93072 67.408-4.93072ZM80.8965-29.6326L87.1143-51.0854L87.433-51.0854L93.6509-29.6326ZM16.4005-4.93072Q19.036-4.93072 20.6108-6.40922Q22.1856-7.88771 23.0469-11.215L24.1399-14.962L38.6677-14.962L39.7607-11.0285Q40.5589-7.80158 42.1768-6.36615Q43.7946-4.93072 46.6424-4.93072Q49.459-4.93072 51.2993-6.69779Q53.1396-8.46485 53.1396-11.2842Q53.1396-12.4039 52.9372-13.4303Q52.7347-14.4568 52.2668-15.7372L41.8827-44.3808Q40.3927-48.5206 37.882-50.3853Q35.3713-52.2501 31.2546-52.2501Q27.4105-52.2501 24.9557-50.3351Q22.501-48.4202 21.0598-44.3808L10.7389-15.7372Q10.3082-14.5429 10.0369-13.3615Q9.76562-12.18 9.76562-11.2842Q9.76562-8.31564 11.5256-6.62318Q13.2855-4.93072 16.4005-4.93072ZM26.6038-24.6433L30.9413-40.4658L31.4559-40.4658L36.0288-24.6433Z"/>
  </g>
  <g id="Bold-S" transform="matrix(1 0 0 1 2280.53 696)">
   <path d="M63.0127-5.63965Q65.8691-5.63965 67.5171-6.98242Q69.165-8.3252 69.9707-11.3037L72.6562-19.4336L92.6758-19.4336L95.3613-11.3037Q96.167-8.3252 97.8149-6.98242Q99.4629-5.63965 102.319-5.63965Q105.42-5.63965 107.275-7.36084Q109.131-9.08203 109.131-11.9385Q109.131-14.0137 108.374-16.1865L93.7744-57.2266Q91.1621-64.8193 82.7637-64.8193Q74.7314-64.8193 72.0947-57.2266L57.2266-15.6738Q56.4941-13.5498 56.4941-11.7676Q56.4941-8.93555 58.252-7.2876Q60.0098-5.63965 63.0127-5.63965ZM75.5859-29.5166L82.6416-52.0264L82.9346-52.0264L89.9902-29.5166ZM15.3564-5.63965Q17.5537-5.63965 18.8965-6.86035Q20.2393-8.08105 20.9717-10.8154L22.6318-16.1865L37.1338-16.1865L38.7939-10.6934Q39.502-8.00781 40.8813-6.82373Q42.2607-5.63965 44.5801-5.63965Q46.9971-5.63965 48.5474-7.1167Q50.0977-8.59375 50.0977-10.9619Q50.0977-11.9141 49.9146-12.8052Q49.7314-13.6963 49.3408-14.7705L38.6475-43.9941Q37.4023-47.4121 35.2783-48.9868Q33.1543-50.5615 29.7852-50.5615Q26.6113-50.5615 24.5239-48.9624Q22.4365-47.3633 21.2402-43.9941L10.5713-14.7705Q10.2051-13.7695 9.98535-12.7686Q9.76562-11.7676 9.76562-10.9619Q9.76562-8.49609 11.2549-7.06787Q12.7441-5.63965 15.3564-5.63965ZM24.9023-24.4629L29.3945-40.0146L30.1025-40.0146L34.7656-24.4629Z"/>
  </g>
  <g id="Semibold-S" transform="matrix(1 0 0 1 1985.89 696)">
   <path d="M59.9823-6.12842Q62.4211-6.12842 63.8247-7.25791Q65.2282-8.3874 65.9717-10.9394L69.2971-20.6244L89.9564-20.6244L93.2818-10.9394Q94.0253-8.3874 95.4289-7.25791Q96.8324-6.12842 99.2712-6.12842Q101.865-6.12842 103.427-7.57856Q104.99-9.02871 104.99-11.4497Q104.99-13.1428 104.331-15.0046L88.7534-58.0441Q86.541-64.3483 79.6889-64.3483Q73.0874-64.3483 70.8772-58.0441L55.1293-14.6607Q54.4857-12.83 54.4857-11.3232Q54.4857-8.91777 55.9681-7.5231Q57.4504-6.12842 59.9823-6.12842ZM71.9246-29.4366L79.5579-52.6751L79.8331-52.6751L87.4664-29.4366ZM14.6366-6.12842Q16.5317-6.12842 17.7146-7.17139Q18.8974-8.21436 19.5409-10.5399L21.5921-17.0308L36.0763-17.0308L38.1274-10.4623Q38.7732-8.15 39.9882-7.13921Q41.2032-6.12842 43.1582-6.12842Q45.2997-6.12842 46.65-7.40552Q48.0004-8.68262 48.0004-10.7397Q48.0004-11.5764 47.8306-12.3742Q47.6608-13.172 47.3235-14.104L36.4169-43.7275Q35.3406-46.6479 33.4832-48.0226Q31.6258-49.3974 28.7721-49.3974Q26.0604-49.3974 24.2262-48.016Q22.3921-46.6346 21.3646-43.7275L10.4558-14.104Q10.134-13.2363 9.9498-12.3598Q9.76562-11.4832 9.76562-10.7397Q9.76562-8.62051 11.0683-7.37446Q12.3709-6.12842 14.6366-6.12842ZM23.7293-24.3385L28.3281-39.7036L29.1694-39.7036L33.8947-24.3385Z"/>
  </g>
  <g id="Medium-S" transform="matrix(1 0 0 1 1690.75 696)">
   <path d="M57.6846-6.49902Q59.8066-6.49902 61.0249-7.4668Q62.2432-8.43457 62.9395-10.6631L66.75-21.5273L87.8945-21.5273L91.7051-10.6631Q92.4014-8.43457 93.6196-7.4668Q94.8379-6.49902 96.96-6.49902Q99.1699-6.49902 100.51-7.74365Q101.85-8.98828 101.85-11.0791Q101.85-12.4824 101.265-14.1084L84.9463-58.6641Q83.0371-63.9912 77.3574-63.9912Q71.8408-63.9912 69.9541-58.6641L53.5391-13.8926Q52.9629-12.2842 52.9629-10.9863Q52.9629-8.9043 54.2363-7.70166Q55.5098-6.49902 57.6846-6.49902ZM69.1484-29.376L77.2197-53.167L77.4814-53.167L85.5527-29.376ZM14.0908-6.49902Q15.7568-6.49902 16.8184-7.40723Q17.8799-8.31543 18.4561-10.3311L20.8037-17.6709L35.2744-17.6709L37.6221-10.2871Q38.2207-8.25781 39.311-7.37842Q40.4014-6.49902 42.0801-6.49902Q44.0127-6.49902 45.2114-7.62451Q46.4102-8.75 46.4102-10.5713Q46.4102-11.3203 46.2505-12.0474Q46.0908-12.7744 45.7939-13.5986L34.7256-43.5254Q33.7773-46.0684 32.1221-47.2915Q30.4668-48.5146 28.0039-48.5146Q25.6426-48.5146 24.0005-47.2983Q22.3584-46.082 21.459-43.5254L10.3682-13.5986Q10.0801-12.832 9.92285-12.0498Q9.76562-11.2676 9.76562-10.5713Q9.76562-8.71484 10.9268-7.60693Q12.0879-6.49902 14.0908-6.49902ZM22.8398-24.2441L27.5195-39.4678L28.4619-39.4678L33.2344-24.2441Z"/>
  </g>
  <g id="Regular-S" transform="matrix(1 0 0 1 1396.08 696)">
   <path d="M54.6875-6.98242Q56.3965-6.98242 57.373-7.73926Q58.3496-8.49609 58.9844-10.3027L63.4277-22.7051L85.2051-22.7051L89.6484-10.3027Q90.2832-8.49609 91.2598-7.73926Q92.2363-6.98242 93.9453-6.98242Q95.6543-6.98242 96.7041-7.95898Q97.7539-8.93555 97.7539-10.5957Q97.7539-11.6211 97.2656-12.9395L79.9805-59.4727Q78.4668-63.5254 74.3164-63.5254Q70.2148-63.5254 68.75-59.4727L51.4648-12.8906Q50.9766-11.5723 50.9766-10.5469Q50.9766-8.88672 51.9775-7.93457Q52.9785-6.98242 54.6875-6.98242ZM65.5273-29.2969L74.1699-53.8086L74.4141-53.8086L83.0566-29.2969ZM13.3789-6.98242Q14.7461-6.98242 15.6494-7.71484Q16.5527-8.44727 17.041-10.0586L19.7754-18.5059L34.2285-18.5059L36.9629-10.0586Q37.5-8.39844 38.4277-7.69043Q39.3555-6.98242 40.6738-6.98242Q42.334-6.98242 43.335-7.91016Q44.3359-8.83789 44.3359-10.3516Q44.3359-10.9863 44.1895-11.6211Q44.043-12.2559 43.7988-12.9395L32.5195-43.2617Q31.7383-45.3125 30.3467-46.3379Q28.9551-47.3633 27.002-47.3633Q25.0977-47.3633 23.7061-46.3623Q22.3145-45.3613 21.582-43.2617L10.2539-12.9395Q10.0098-12.3047 9.8877-11.6455Q9.76562-10.9863 9.76562-10.3516Q9.76562-8.83789 10.7422-7.91016Q11.7188-6.98242 13.3789-6.98242ZM21.6797-24.1211L26.4648-39.1602L27.5391-39.1602L32.373-24.1211Z"/>
  </g>
  <g id="Light-S" transform="matrix(1 0 0 1 1100.13 696)">
   <path d="M52.9134-7.03125Q54.1992-7.03125 54.9398-7.60905Q55.6803-8.18685 56.1686-9.55404L61.5397-24.0723L84.7005-24.0723L90.0716-9.55404Q90.5599-8.18685 91.3005-7.60905Q92.041-7.03125 93.3268-7.03125Q94.6289-7.03125 95.4346-7.77181Q96.2402-8.51237 96.2402-9.79818Q96.2402-10.5957 95.8496-11.6048L77.3763-60.4492Q76.2207-63.4928 73.1283-63.4928Q70.0521-63.4928 68.9453-60.4492L50.4395-11.5723Q50.0651-10.5632 50.0651-9.76562Q50.0651-8.47982 50.8301-7.75553Q51.5951-7.03125 52.9134-7.03125ZM63.1999-29.1504L72.998-55.8919L73.2096-55.8919L83.0078-29.1504ZM12.5651-7.19401Q13.623-7.19401 14.3148-7.75553Q15.0065-8.31706 15.4134-9.55404L18.9616-19.7103L34.3099-19.7103L37.8581-9.55404Q38.2812-8.28451 38.9811-7.73926Q39.681-7.19401 40.7552-7.19401Q42.0085-7.19401 42.7897-7.90202Q43.571-8.61003 43.571-9.7819Q43.571-10.2865 43.4489-10.7747Q43.3268-11.263 43.1478-11.7839L30.7617-44.4824Q30.1921-45.9961 29.1504-46.7692Q28.1087-47.5423 26.6276-47.5423Q25.179-47.5423 24.1374-46.7855Q23.0957-46.0286 22.5586-44.4824L10.14-11.7839Q9.94466-11.2956 9.85514-10.791Q9.76562-10.2865 9.76562-9.7819Q9.76562-8.6263 10.5225-7.91016Q11.2793-7.19401 12.5651-7.19401ZM20.4915-24.1374L26.2533-40.8203L27.002-40.8203L32.7962-24.1374Z"/>
  </g>
  <g id="Thin-S" transform="matrix(1 0 0 1 804.42 696)">
   <path d="M50.567-7.09583Q51.2932-7.09583 51.7216-7.43684Q52.15-7.77785 52.4446-8.56382L59.0427-25.8805L84.0332-25.8805L90.6313-8.56382Q90.9258-7.77785 91.3543-7.43684Q91.7827-7.09583 92.5088-7.09583Q93.2727-7.09583 93.7555-7.52426Q94.2383-7.95268 94.2383-8.74338Q94.2383-9.23954 93.9768-9.83965L73.9321-61.7408Q73.2501-63.4498 71.5568-63.4498Q69.8368-63.4498 69.2036-61.7408L49.0833-9.82863Q48.8596-9.22852 48.8596-8.73236Q48.8596-7.94166 49.3125-7.51874Q49.7653-7.09583 50.567-7.09583ZM60.1216-28.9567L71.4481-58.6473L71.6167-58.6473L82.9432-28.9567ZM11.4888-7.47385Q12.1377-7.47385 12.5496-7.80935Q12.9615-8.14485 13.2608-8.88672L17.8853-21.3032L34.4175-21.3032L39.042-8.88672Q39.3145-8.13382 39.713-7.80384Q40.1115-7.47385 40.8628-7.47385Q41.5779-7.47385 42.0686-7.89126Q42.5592-8.30866 42.5592-9.02848Q42.5592-9.36082 42.4694-9.65537Q42.3797-9.94991 42.2867-10.2555L28.4369-46.0969Q28.1471-46.9002 27.5682-47.3397Q26.9894-47.7791 26.1325-47.7791Q25.2867-47.7791 24.7078-47.3452Q24.129-46.9112 23.8502-46.0969L9.98929-10.2555Q9.85856-9.96094 9.81209-9.66088Q9.76562-9.36082 9.76562-9.02848Q9.76562-8.34646 10.2319-7.91016Q10.6981-7.47385 11.4888-7.47385ZM18.9201-24.1589L25.9734-43.016L26.2916-43.016L33.3559-24.1589Z"/>
  </g>
  <g id="Ultralight-S" transform="matrix(1 0 0 1 508.222 696)">
   <path d="M49.3652-7.12891Q49.8047-7.12891 50.0732-7.34863Q50.3418-7.56836 50.5371-8.05664L57.7637-26.8066L83.6914-26.8066L90.918-8.05664Q91.1133-7.56836 91.3818-7.34863Q91.6504-7.12891 92.0898-7.12891Q92.5781-7.12891 92.8955-7.39746Q93.2129-7.66602 93.2129-8.20312Q93.2129-8.54492 93.0176-8.93555L72.168-62.4023Q71.7285-63.4277 70.752-63.4277Q69.7266-63.4277 69.3359-62.4023L48.3887-8.93555Q48.2422-8.54492 48.2422-8.20312Q48.2422-7.66602 48.5352-7.39746Q48.8281-7.12891 49.3652-7.12891ZM58.5449-28.8574L70.6543-60.0586L70.8008-60.0586L82.9102-28.8574ZM10.9375-7.61719Q11.377-7.61719 11.6455-7.83691Q11.9141-8.05664 12.1582-8.54492L17.334-22.1191L34.4727-22.1191L39.6484-8.54492Q39.8438-8.05664 40.0879-7.83691Q40.332-7.61719 40.918-7.61719Q41.3574-7.61719 41.6992-7.88574Q42.041-8.1543 42.041-8.64258Q42.041-8.88672 41.9678-9.08203Q41.8945-9.27734 41.8457-9.47266L27.2461-46.9238Q27.0996-47.3633 26.7578-47.6318Q26.416-47.9004 25.8789-47.9004Q25.3418-47.9004 25-47.6318Q24.6582-47.3633 24.5117-46.9238L9.91211-9.47266Q9.81445-9.27734 9.79004-9.08203Q9.76562-8.88672 9.76562-8.64258Q9.76562-8.20312 10.083-7.91016Q10.4004-7.61719 10.9375-7.61719ZM18.1152-24.1699L25.8301-44.1406L25.9277-44.1406L33.6426-24.1699Z"/>
  </g>
 </g>
</svg>
