<?xml version="1.0" encoding="utf-8"?>
<!-- Generator: Adobe Illustrator 18.1.1, SVG Export Plug-In . SVG Version: 6.00 Build 0)  -->
<svg version="1.1" id="Lager_1" xmlns="http://www.w3.org/2000/svg" xmlns:xlink="http://www.w3.org/1999/xlink" x="0px" y="0px"
	 viewBox="-0.3 123 595.9 595.9" enable-background="new -0.3 123 595.9 595.9" xml:space="preserve">
<g>
	<g>
		<defs>
			<rect id="SVGID_1_" x="0" y="123.3" width="595.3" height="595.3"/>
		</defs>
		<clipPath id="SVGID_2_">
			<use xlink:href="#SVGID_1_"  overflow="visible"/>
		</clipPath>
		<path clip-path="url(#SVGID_2_)" fill="#004F02" d="M545.8,452.6c-27.1,0-49.4,22.1-49.4,49.4c0,10.3,3.2,19.7,8.5,27.7l-98,96.2
			c-5.9-4.4-12.9-7.7-20.6-9.1v-66.5c23-4.1,40.6-24.4,40.6-48.6s-17.4-44.1-40.6-48.6V341.3c0-5-3.8-8.8-8.8-8.8H266.3
			c-1.5-7.7-4.7-14.7-9.1-20.9l91.5-95.9c8.2,6.2,18.2,9.7,29.1,9.7c11.2,0,21.2-3.8,29.4-10l99.2,96.2c-6.2,8.2-10,18.5-10,29.4
			c0,27.1,22.1,49.4,49.4,49.4c27.1,0,49.4-22.1,49.4-49.4s-22.1-49.4-49.4-49.4c-9.7,0-18.8,2.9-26.5,7.7L419,202.2
			c5-7.7,7.7-16.8,7.7-26.5c0-27.1-22.1-49.4-49.4-49.4c-24.1,0-44.1,17.4-48.6,40.6h-62.4c-4.1-22.1-24.1-39.7-48.3-39.7
			c-27.1,0-49.4,22.1-49.4,49.4c0,9.7,2.9,18.8,7.9,26.5l-98.3,98.9c-8.2-5.9-18.2-9.7-29.1-9.7C22.1,292.2,0,314.6,0,341.6
			c0,27.1,22.1,49.4,49.4,49.4c27.1,0,49.4-22.1,49.4-49.4c0-10-2.9-19.1-7.9-26.8l98-98.9c8.2,6.2,18.2,9.7,29.4,9.7
			c24.1,0,44.1-17.4,48.6-40.6h63c1.2,6.5,3.5,12.7,7.1,17.9l-92.7,96.8c-7.7-4.7-16.5-7.7-26.2-7.7c-27.1,0-49.4,22.1-49.4,49.4
			c0,27.4,22.1,49.4,49.4,49.4c24.1,0,44.1-17.4,48.6-40.6H369v103c-23,4.1-40.6,24.4-40.6,48.6s17.4,44.1,40.6,48.6v66.5
			c-20,3.5-35.9,19.4-39.7,39.7h-63c-4.1-23-24.4-40.6-48.6-40.6c-10.9,0-21.2,3.5-29.4,9.7l-98-97.1c3.5-5.3,5.9-11.5,7.1-17.9
			h71.8c4.1,23,24.4,40.6,48.6,40.6c27.1,0,49.4-22.1,49.4-49.4c0-27.4-22.1-49.4-49.4-49.4c-24.1,0-44.1,17.4-48.6,40.6H97.7
			c-4.1-23-24.4-40.6-48.6-40.6c-27.1,0-49.4,22.1-49.4,49.4c0,27.4,22.1,49.4,49.4,49.4c10.9,0,20.9-3.5,29.1-9.7l98,97.1
			c-5,7.7-7.9,16.8-7.9,26.5c0,27.1,22.1,49.4,49.4,49.4c24.1,0,44.1-17.4,48.6-40.6h63c4.1,23,24.4,40.6,48.6,40.6
			c27.1,0,49.4-22.1,49.4-49.4c0-9.7-2.9-18.8-7.9-26.5l98.3-96.5c7.9,5.6,17.9,9.1,28.5,9.1c27.1,0,49.4-22.1,49.4-49.4
			C595.6,474.6,572.9,452.6,545.8,452.6 M49.1,373.1c-17.4,0-31.5-14.1-31.5-31.5s14.1-31.8,31.8-31.8c17.4,0,31.8,14.1,31.8,31.8
			C80.9,359,66.8,373.1,49.1,373.1 M218,208.1c-17.4,0-31.8-14.1-31.8-31.8c0-17.4,14.1-31.8,31.8-31.8s31.8,14.1,31.8,31.8
			C249.5,193.9,235.4,208.1,218,208.1 M577.6,341.6c0,17.4-14.1,31.8-31.8,31.8c-17.4,0-31.8-14.1-31.8-31.8
			c0-17.4,14.1-31.8,31.8-31.8C563.2,309.9,577.6,324.3,577.6,341.6 M377.8,144.8c17.4,0,31.8,14.1,31.8,31.8
			c0,17.4-14.1,31.8-31.8,31.8c-17.4,0-31.8-14.1-31.8-31.8C346,158.9,360.2,144.8,377.8,144.8 M218,373.1
			c-17.4,0-31.8-14.1-31.8-31.8c0-17.4,14.1-31.8,31.8-31.8s31.8,14.1,31.8,31.8C249.5,359,235.4,373.1,218,373.1 M218,470.2
			c17.4,0,31.8,14.1,31.8,31.8c0,17.7-14.1,31.8-31.8,31.8s-31.8-14.1-31.8-31.8S200.4,470.2,218,470.2 M49.1,533.5
			c-17.4,0-31.8-14.1-31.8-31.8c0-17.7,14.1-31.8,31.8-31.8c17.4,0,31.8,14.1,31.8,31.8C80.9,519.4,66.8,533.5,49.1,533.5
			 M218,696.8c-17.4,0-31.8-14.1-31.8-31.8c0-17.4,14.1-31.8,31.8-31.8s31.8,14.1,31.8,31.8C249.5,682.7,235.4,696.8,218,696.8
			 M346,502c0-17.4,14.1-31.8,31.8-31.8c17.4,0,31.8,14.1,31.8,31.8s-14.1,31.8-31.8,31.8C360.2,533.5,346,519.4,346,502
			 M377.8,696.8c-17.4,0-31.8-14.1-31.8-31.8c0-17.4,14.1-31.8,31.8-31.8c17.4,0,31.8,14.1,31.8,31.8
			C409.3,682.7,395.2,696.8,377.8,696.8 M545.8,533.5c-17.4,0-31.8-14.1-31.8-31.8c0-17.7,14.1-31.8,31.8-31.8
			c17.4,0,31.8,14.1,31.8,31.8C577.6,519.4,563.2,533.5,545.8,533.5"/>
	</g>
</g>
</svg>
