<?xml version="1.0" encoding="UTF-8"?>
<!--Generator: Apple Native CoreSVG 175-->
<!DOCTYPE svg
PUBLIC "-//W3C//DTD SVG 1.1//EN"
       "http://www.w3.org/Graphics/SVG/1.1/DTD/svg11.dtd">
<svg version="1.1" xmlns="http://www.w3.org/2000/svg" xmlns:xlink="http://www.w3.org/1999/xlink" width="3300" height="2200">
 <!--glyph: "uni10020A.medium", point size: 100.0, font version: "17.1d1e1", template writer version: "65.1"-->
 <g id="Notes">
  <rect height="2200" id="artboard" style="fill:white;opacity:1" width="3300" x="0" y="0"/>
  <line style="fill:none;stroke:black;opacity:1;stroke-width:0.5;" x1="263" x2="3036" y1="292" y2="292"/>
  <text style="stroke:none;fill:black;font-family:sans-serif;font-size:13;font-weight:bold;" transform="matrix(1 0 0 1 263 322)">Weight/Scale Variations</text>
  <text style="stroke:none;fill:black;font-family:sans-serif;font-size:13;text-anchor:middle;" transform="matrix(1 0 0 1 559.711 322)">Ultralight</text>
  <text style="stroke:none;fill:black;font-family:sans-serif;font-size:13;text-anchor:middle;" transform="matrix(1 0 0 1 856.422 322)">Thin</text>
  <text style="stroke:none;fill:black;font-family:sans-serif;font-size:13;text-anchor:middle;" transform="matrix(1 0 0 1 1153.13 322)">Light</text>
  <text style="stroke:none;fill:black;font-family:sans-serif;font-size:13;text-anchor:middle;" transform="matrix(1 0 0 1 1449.84 322)">Regular</text>
  <text style="stroke:none;fill:black;font-family:sans-serif;font-size:13;text-anchor:middle;" transform="matrix(1 0 0 1 1746.56 322)">Medium</text>
  <text style="stroke:none;fill:black;font-family:sans-serif;font-size:13;text-anchor:middle;" transform="matrix(1 0 0 1 2043.27 322)">Semibold</text>
  <text style="stroke:none;fill:black;font-family:sans-serif;font-size:13;text-anchor:middle;" transform="matrix(1 0 0 1 2339.98 322)">Bold</text>
  <text style="stroke:none;fill:black;font-family:sans-serif;font-size:13;text-anchor:middle;" transform="matrix(1 0 0 1 2636.69 322)">Heavy</text>
  <text style="stroke:none;fill:black;font-family:sans-serif;font-size:13;text-anchor:middle;" transform="matrix(1 0 0 1 2933.4 322)">Black</text>
  <line style="fill:none;stroke:black;opacity:1;stroke-width:0.5;" x1="263" x2="3036" y1="1903" y2="1903"/>
  <g transform="matrix(1 0 0 1 263 1933)">
   <path d="M9.24805 0.830078Q10.8691 0.830078 12.2949 0.214844Q13.7207-0.400391 14.8096-1.49414Q15.8984-2.58789 16.5186-4.01367Q17.1387-5.43945 17.1387-7.05078Q17.1387-8.66211 16.5186-10.0879Q15.8984-11.5137 14.8047-12.6074Q13.7109-13.7012 12.2852-14.3164Q10.8594-14.9316 9.23828-14.9316Q7.62695-14.9316 6.20117-14.3164Q4.77539-13.7012 3.69141-12.6074Q2.60742-11.5137 1.9873-10.0879Q1.36719-8.66211 1.36719-7.05078Q1.36719-5.43945 1.9873-4.01367Q2.60742-2.58789 3.69629-1.49414Q4.78516-0.400391 6.21094 0.214844Q7.63672 0.830078 9.24805 0.830078ZM9.24805-0.654297Q7.91992-0.654297 6.7627-1.14746Q5.60547-1.64062 4.73145-2.51953Q3.85742-3.39844 3.36426-4.56055Q2.87109-5.72266 2.87109-7.05078Q2.87109-8.37891 3.35938-9.54102Q3.84766-10.7031 4.72168-11.582Q5.5957-12.4609 6.75293-12.9541Q7.91016-13.4473 9.23828-13.4473Q10.5762-13.4473 11.7334-12.9541Q12.8906-12.4609 13.7695-11.582Q14.6484-10.7031 15.1465-9.54102Q15.6445-8.37891 15.6445-7.05078Q15.6445-5.72266 15.1514-4.56055Q14.6582-3.39844 13.7842-2.51953Q12.9102-1.64062 11.748-1.14746Q10.5859-0.654297 9.24805-0.654297ZM5.6543-7.05078Q5.6543-6.72852 5.85938-6.52832Q6.06445-6.32812 6.40625-6.32812L8.51562-6.32812L8.51562-4.20898Q8.51562-3.88672 8.71094-3.67676Q8.90625-3.4668 9.23828-3.4668Q9.56055-3.4668 9.77051-3.67676Q9.98047-3.88672 9.98047-4.20898L9.98047-6.32812L12.0898-6.32812Q12.4219-6.32812 12.627-6.52832Q12.832-6.72852 12.832-7.05078Q12.832-7.38281 12.627-7.58789Q12.4219-7.79297 12.0898-7.79297L9.98047-7.79297L9.98047-9.90234Q9.98047-10.2344 9.77051-10.4443Q9.56055-10.6543 9.23828-10.6543Q8.90625-10.6543 8.71094-10.4443Q8.51562-10.2344 8.51562-9.90234L8.51562-7.79297L6.40625-7.79297Q6.06445-7.79297 5.85938-7.58789Q5.6543-7.38281 5.6543-7.05078Z"/>
  </g>
  <g transform="matrix(1 0 0 1 281.867 1933)">
   <path d="M11.709 2.91016Q13.75 2.91016 15.5518 2.12891Q17.3535 1.34766 18.7305-0.0292969Q20.1074-1.40625 20.8887-3.20801Q21.6699-5.00977 21.6699-7.05078Q21.6699-9.0918 20.8887-10.8936Q20.1074-12.6953 18.7305-14.0723Q17.3535-15.4492 15.5469-16.2305Q13.7402-17.0117 11.6992-17.0117Q9.6582-17.0117 7.85645-16.2305Q6.05469-15.4492 4.68262-14.0723Q3.31055-12.6953 2.5293-10.8936Q1.74805-9.0918 1.74805-7.05078Q1.74805-5.00977 2.5293-3.20801Q3.31055-1.40625 4.6875-0.0292969Q6.06445 1.34766 7.86621 2.12891Q9.66797 2.91016 11.709 2.91016ZM11.709 1.25Q9.98047 1.25 8.47656 0.605469Q6.97266-0.0390625 5.83496-1.17676Q4.69727-2.31445 4.05762-3.81836Q3.41797-5.32227 3.41797-7.05078Q3.41797-8.7793 4.05762-10.2832Q4.69727-11.7871 5.83008-12.9297Q6.96289-14.0723 8.4668-14.7119Q9.9707-15.3516 11.6992-15.3516Q13.4277-15.3516 14.9316-14.7119Q16.4355-14.0723 17.5781-12.9297Q18.7207-11.7871 19.3652-10.2832Q20.0098-8.7793 20.0098-7.05078Q20.0098-5.32227 19.3701-3.81836Q18.7305-2.31445 17.5928-1.17676Q16.4551-0.0390625 14.9463 0.605469Q13.4375 1.25 11.709 1.25ZM7.17773-7.05078Q7.17773-6.69922 7.41211-6.47461Q7.64648-6.25 8.01758-6.25L10.8887-6.25L10.8887-3.36914Q10.8887-2.99805 11.1133-2.76855Q11.3379-2.53906 11.6895-2.53906Q12.0605-2.53906 12.29-2.76855Q12.5195-2.99805 12.5195-3.36914L12.5195-6.25L15.4004-6.25Q15.7715-6.25 16.001-6.47461Q16.2305-6.69922 16.2305-7.05078Q16.2305-7.42188 16.001-7.65137Q15.7715-7.88086 15.4004-7.88086L12.5195-7.88086L12.5195-10.752Q12.5195-11.1328 12.29-11.3623Q12.0605-11.5918 11.6895-11.5918Q11.3379-11.5918 11.1133-11.3574Q10.8887-11.123 10.8887-10.752L10.8887-7.88086L8.01758-7.88086Q7.63672-7.88086 7.40723-7.65137Q7.17773-7.42188 7.17773-7.05078Z"/>
  </g>
  <g transform="matrix(1 0 0 1 305.646 1933)">
   <path d="M14.9707 5.66406Q17.0605 5.66406 18.96 5.01465Q20.8594 4.36523 22.4512 3.19336Q24.043 2.02148 25.2197 0.429688Q26.3965-1.16211 27.0459-3.06641Q27.6953-4.9707 27.6953-7.05078Q27.6953-9.14062 27.0459-11.04Q26.3965-12.9395 25.2197-14.5312Q24.043-16.123 22.4512-17.2998Q20.8594-18.4766 18.9551-19.126Q17.0508-19.7754 14.9609-19.7754Q12.8711-19.7754 10.9717-19.126Q9.07227-18.4766 7.48535-17.2998Q5.89844-16.123 4.72168-14.5312Q3.54492-12.9395 2.90039-11.04Q2.25586-9.14062 2.25586-7.05078Q2.25586-4.9707 2.90527-3.06641Q3.55469-1.16211 4.72656 0.429688Q5.89844 2.02148 7.49023 3.19336Q9.08203 4.36523 10.9814 5.01465Q12.8809 5.66406 14.9707 5.66406ZM14.9707 3.84766Q13.1641 3.84766 11.5283 3.2959Q9.89258 2.74414 8.53516 1.74805Q7.17773 0.751953 6.17676-0.610352Q5.17578-1.97266 4.62891-3.6084Q4.08203-5.24414 4.08203-7.05078Q4.08203-8.86719 4.62891-10.5029Q5.17578-12.1387 6.17188-13.501Q7.16797-14.8633 8.52539-15.8594Q9.88281-16.8555 11.5186-17.4023Q13.1543-17.9492 14.9609-17.9492Q16.7773-17.9492 18.4131-17.4023Q20.0488-16.8555 21.4111-15.8594Q22.7734-14.8633 23.7695-13.501Q24.7656-12.1387 25.3174-10.5029Q25.8691-8.86719 25.8691-7.05078Q25.8789-5.24414 25.332-3.6084Q24.7852-1.97266 23.7842-0.610352Q22.7832 0.751953 21.4209 1.74805Q20.0586 2.74414 18.4229 3.2959Q16.7871 3.84766 14.9707 3.84766ZM9.19922-7.05078Q9.19922-6.66992 9.45801-6.4209Q9.7168-6.17188 10.1172-6.17188L14.0625-6.17188L14.0625-2.2168Q14.0625-1.81641 14.3115-1.55762Q14.5605-1.29883 14.9512-1.29883Q15.3516-1.29883 15.6104-1.55273Q15.8691-1.80664 15.8691-2.2168L15.8691-6.17188L19.8242-6.17188Q20.2246-6.17188 20.4785-6.4209Q20.7324-6.66992 20.7324-7.05078Q20.7324-7.46094 20.4785-7.71484Q20.2246-7.96875 19.8242-7.96875L15.8691-7.96875L15.8691-11.9141Q15.8691-12.3242 15.6104-12.583Q15.3516-12.8418 14.9512-12.8418Q14.5605-12.8418 14.3115-12.583Q14.0625-12.3242 14.0625-11.9141L14.0625-7.96875L10.1172-7.96875Q9.70703-7.96875 9.45312-7.71484Q9.19922-7.46094 9.19922-7.05078Z"/>
  </g>
  <text style="stroke:none;fill:black;font-family:sans-serif;font-size:13;font-weight:bold;" transform="matrix(1 0 0 1 263 1953)">Design Variations</text>
  <text style="stroke:none;fill:black;font-family:sans-serif;font-size:13;" transform="matrix(1 0 0 1 263 1971)">Symbols are supported in up to nine weights and three scales.</text>
  <text style="stroke:none;fill:black;font-family:sans-serif;font-size:13;" transform="matrix(1 0 0 1 263 1989)">For optimal layout with text and other symbols, vertically align</text>
  <text style="stroke:none;fill:black;font-family:sans-serif;font-size:13;" transform="matrix(1 0 0 1 263 2007)">symbols with the adjacent text.</text>
  <line style="fill:none;stroke:#00AEEF;stroke-width:0.5;opacity:1.0;" x1="776" x2="776" y1="1919" y2="1933"/>
  <g transform="matrix(1 0 0 1 776 1933)">
   <path d="M3.31055 0.15625Q3.70117 0.15625 3.91602-0.00976562Q4.13086-0.175781 4.26758-0.585938L5.52734-4.0332L11.2891-4.0332L12.5488-0.585938Q12.6855-0.175781 12.9004-0.00976562Q13.1152 0.15625 13.4961 0.15625Q13.8867 0.15625 14.1162-0.0585938Q14.3457-0.273438 14.3457-0.644531Q14.3457-0.869141 14.2383-1.17188L9.6582-13.3691Q9.48242-13.8184 9.17969-14.043Q8.87695-14.2676 8.4082-14.2676Q7.5-14.2676 7.17773-13.3789L2.59766-1.16211Q2.49023-0.859375 2.49023-0.634766Q2.49023-0.263672 2.70996-0.0537109Q2.92969 0.15625 3.31055 0.15625ZM6.00586-5.51758L8.37891-12.0898L8.42773-12.0898L10.8008-5.51758Z"/>
  </g>
  <line style="fill:none;stroke:#00AEEF;stroke-width:0.5;opacity:1.0;" x1="793.197" x2="793.197" y1="1919" y2="1933"/>
  <text style="stroke:none;fill:black;font-family:sans-serif;font-size:13;font-weight:bold;" transform="matrix(1 0 0 1 776 1953)">Margins</text>
  <text style="stroke:none;fill:black;font-family:sans-serif;font-size:13;" transform="matrix(1 0 0 1 776 1971)">Leading and trailing margins on the left and right side of each symbol</text>
  <text style="stroke:none;fill:black;font-family:sans-serif;font-size:13;" transform="matrix(1 0 0 1 776 1989)">can be adjusted by modifying the x-location of the margin guidelines.</text>
  <text style="stroke:none;fill:black;font-family:sans-serif;font-size:13;" transform="matrix(1 0 0 1 776 2007)">Modifications are automatically applied proportionally to all</text>
  <text style="stroke:none;fill:black;font-family:sans-serif;font-size:13;" transform="matrix(1 0 0 1 776 2025)">scales and weights.</text>
  <g transform="matrix(1 0 0 1 1289 1933)">
   <path d="M2.8418 1.86523L4.54102 3.57422Q5.18555 4.22852 5.90332 4.17969Q6.62109 4.13086 7.31445 3.35938L18.0078-8.42773L17.041-9.4043L6.42578 2.27539Q6.16211 2.57812 5.89355 2.61719Q5.625 2.65625 5.27344 2.30469L4.10156 1.14258Q3.75 0.791016 3.79395 0.522461Q3.83789 0.253906 4.14062-0.0195312L15.6152-10.8203L14.6387-11.7871L3.04688-0.898438Q2.30469-0.214844 2.25098 0.498047Q2.19727 1.21094 2.8418 1.86523ZM9.25781-16.3281Q8.94531-16.0254 8.90625-15.6348Q8.86719-15.2441 9.04297-14.9512Q9.21875-14.6777 9.55566-14.541Q9.89258-14.4043 10.3809-14.5215Q11.4746-14.7754 12.5977-14.7314Q13.7207-14.6875 14.7949-13.9844L14.209-12.5293Q13.9551-11.9043 14.0674-11.4404Q14.1797-10.9766 14.5801-10.5664L16.875-8.25195Q17.2363-7.88086 17.5781-7.82227Q17.9199-7.76367 18.3398-7.8418L19.4043-8.03711L20.0684-7.36328L20.0293-6.80664Q20-6.43555 20.1221-6.12305Q20.2441-5.81055 20.6055-5.44922L21.3672-4.70703Q21.7285-4.3457 22.1533-4.33105Q22.5781-4.31641 22.9297-4.66797L25.8398-7.58789Q26.1914-7.93945 26.1816-8.35449Q26.1719-8.76953 25.8105-9.13086L25.0391-9.89258Q24.6875-10.2539 24.3799-10.3857Q24.0723-10.5176 23.7109-10.4883L23.1348-10.4395L22.4902-11.0742L22.7344-12.1973Q22.832-12.6172 22.6953-12.9834Q22.5586-13.3496 22.1191-13.7891L19.9219-15.9766Q18.6719-17.2168 17.2607-17.8369Q15.8496-18.457 14.4189-18.4814Q12.9883-18.5059 11.665-17.959Q10.3418-17.4121 9.25781-16.3281ZM10.752-15.957Q11.6602-16.6211 12.7002-16.9043Q13.7402-17.1875 14.8047-17.085Q15.8691-16.9824 16.8701-16.5137Q17.8711-16.0449 18.7012-15.2051L21.1328-12.793Q21.3086-12.6172 21.3525-12.4512Q21.3965-12.2852 21.3379-12.0312L21.0156-10.5469L22.5195-9.0625L23.5059-9.12109Q23.6914-9.13086 23.7891-9.09668Q23.8867-9.0625 24.0332-8.91602L24.6094-8.33984L22.168-5.89844L21.5918-6.47461Q21.4453-6.62109 21.4062-6.71875Q21.3672-6.81641 21.377-7.01172L21.4453-7.98828L19.9512-9.47266L18.4277-9.21875Q18.1836-9.16992 18.042-9.2041Q17.9004-9.23828 17.7148-9.41406L15.7129-11.416Q15.5176-11.5918 15.4932-11.7529Q15.4688-11.9141 15.5859-12.1875L16.4648-14.2773Q15.293-15.3711 13.8281-15.791Q12.3633-16.2109 10.8398-15.7617Q10.7227-15.7324 10.6885-15.8057Q10.6543-15.8789 10.752-15.957Z"/>
  </g>
  <text style="stroke:none;fill:black;font-family:sans-serif;font-size:13;font-weight:bold;" transform="matrix(1 0 0 1 1289 1953)">Exporting</text>
  <text style="stroke:none;fill:black;font-family:sans-serif;font-size:13;" transform="matrix(1 0 0 1 1289 1971)">Symbols should be outlined when exporting to ensure the</text>
  <text style="stroke:none;fill:black;font-family:sans-serif;font-size:13;" transform="matrix(1 0 0 1 1289 1989)">design is preserved when submitting to Xcode.</text>
  <text id="template-version" style="stroke:none;fill:black;font-family:sans-serif;font-size:13;text-anchor:end;" transform="matrix(1 0 0 1 3036 1933)">Template v.2.0</text>
  <text style="stroke:none;fill:black;font-family:sans-serif;font-size:13;text-anchor:end;" transform="matrix(1 0 0 1 3036 1951)">Requires Xcode 12 or greater</text>
  <text id="descriptive-name" style="stroke:none;fill:black;font-family:sans-serif;font-size:13;text-anchor:end;" transform="matrix(1 0 0 1 3036 1969)">Generated from pencil</text>
  <text style="stroke:none;fill:black;font-family:sans-serif;font-size:13;text-anchor:end;" transform="matrix(1 0 0 1 3036 1987)">Typeset at 100 points</text>
  <text style="stroke:none;fill:black;font-family:sans-serif;font-size:13;" transform="matrix(1 0 0 1 263 726)">Small</text>
  <text style="stroke:none;fill:black;font-family:sans-serif;font-size:13;" transform="matrix(1 0 0 1 263 1156)">Medium</text>
  <text style="stroke:none;fill:black;font-family:sans-serif;font-size:13;" transform="matrix(1 0 0 1 263 1586)">Large</text>
 </g>
 <g id="Guides">
  <g id="H-reference" style="fill:#27AAE1;stroke:none;" transform="matrix(1 0 0 1 339 696)">
   <path d="M0.976562 0L3.66211 0L29.3457-67.1387L30.0293-67.1387L30.0293-70.459L28.125-70.459ZM11.6699-24.4629L46.9727-24.4629L46.2402-26.709L12.4512-26.709ZM55.127 0L57.7637 0L30.6152-70.459L29.4434-70.459L29.4434-67.1387Z"/>
  </g>
  <line id="Baseline-S" style="fill:none;stroke:#27AAE1;opacity:1;stroke-width:0.5;" x1="263" x2="3036" y1="696" y2="696"/>
  <line id="Capline-S" style="fill:none;stroke:#27AAE1;opacity:1;stroke-width:0.5;" x1="263" x2="3036" y1="625.541" y2="625.541"/>
  <g id="H-reference" style="fill:#27AAE1;stroke:none;" transform="matrix(1 0 0 1 339 1126)">
   <path d="M0.976562 0L3.66211 0L29.3457-67.1387L30.0293-67.1387L30.0293-70.459L28.125-70.459ZM11.6699-24.4629L46.9727-24.4629L46.2402-26.709L12.4512-26.709ZM55.127 0L57.7637 0L30.6152-70.459L29.4434-70.459L29.4434-67.1387Z"/>
  </g>
  <line id="Baseline-M" style="fill:none;stroke:#27AAE1;opacity:1;stroke-width:0.5;" x1="263" x2="3036" y1="1126" y2="1126"/>
  <line id="Capline-M" style="fill:none;stroke:#27AAE1;opacity:1;stroke-width:0.5;" x1="263" x2="3036" y1="1055.54" y2="1055.54"/>
  <g id="H-reference" style="fill:#27AAE1;stroke:none;" transform="matrix(1 0 0 1 339 1556)">
   <path d="M0.976562 0L3.66211 0L29.3457-67.1387L30.0293-67.1387L30.0293-70.459L28.125-70.459ZM11.6699-24.4629L46.9727-24.4629L46.2402-26.709L12.4512-26.709ZM55.127 0L57.7637 0L30.6152-70.459L29.4434-70.459L29.4434-67.1387Z"/>
  </g>
  <line id="Baseline-L" style="fill:none;stroke:#27AAE1;opacity:1;stroke-width:0.5;" x1="263" x2="3036" y1="1556" y2="1556"/>
  <line id="Capline-L" style="fill:none;stroke:#27AAE1;opacity:1;stroke-width:0.5;" x1="263" x2="3036" y1="1485.54" y2="1485.54"/>
  <line id="left-margin" style="fill:none;stroke:#00AEEF;stroke-width:0.5;opacity:1.0;" x1="1399.74" x2="1399.74" y1="1030.79" y2="1150.12"/>
  <line id="right-margin" style="fill:none;stroke:#00AEEF;stroke-width:0.5;opacity:1.0;" x1="1499.95" x2="1499.95" y1="1030.79" y2="1150.12"/>
 </g>
 <g id="Symbols">
  <g id="Black-L" transform="matrix(1 0 0 1 2859.14 1556)">
   <path d="M37.1628 17.5164L114.79-60.2072L98.9626-76.0375L21.3338 1.68609L14.752 19.1148Q13.8644 21.4218 15.679 23.1403Q17.4936 24.8588 19.5864 24.1089ZM122.561-67.8758L130.915-76.2292Q133.885-79.2363 134.005-82.5756Q134.124-85.9149 131.299-88.8195L127.731-92.4667Q124.829-95.3493 121.43-95.1489Q118.032-94.9485 115.064-92.0218L106.69-83.7282Z"/>
  </g>
  <g id="Heavy-L" transform="matrix(1 0 0 1 2564.7 1556)">
   <path d="M35.7657 15.782L111.466-59.9782L96.8808-74.5759L21.174 1.1843L14.7196 17.7481Q13.9429 19.76 15.5336 21.2913Q17.1243 22.8225 18.9815 22.1647ZM118.683-67.0784L126.512-74.9081Q129.344-77.7484 129.459-80.8653Q129.573-83.9822 126.923-86.7063L123.746-89.9586Q121.034-92.6469 117.869-92.4488Q114.704-92.2508 111.885-89.4909L104.026-81.7119Z"/>
  </g>
  <g id="Bold-L" transform="matrix(1 0 0 1 2270.55 1556)">
   <path d="M34.0243 13.8849L107.88-59.9926L94.8858-73.0156L21.0155 0.861864L14.6806 16.3517Q14.0363 18.0132 15.358 19.3135Q16.6796 20.6137 18.2471 20.0648ZM114.416-66.3965L121.576-73.5569Q124.226-76.1848 124.333-79.0183Q124.439-81.8519 122.009-84.3481L119.345-87.0781Q116.878-89.523 114.008-89.3291Q111.138-89.1352 108.516-86.5878L101.319-79.4708Z"/>
  </g>
  <g id="Semibold-L" transform="matrix(1 0 0 1 1975.61 1556)">
   <path d="M32.8238 12.5771L105.408-60.0025L93.5104-71.9399L20.9062 0.639578L14.6537 15.389Q14.1008 16.809 15.2369 17.95Q16.373 19.0909 17.7409 18.6171ZM111.474-65.9264L118.173-72.6255Q120.698-75.1068 120.799-77.745Q120.9-80.3833 118.621-82.7224L116.312-85.0923Q114.012-87.3695 111.346-87.1784Q108.679-86.9873 106.194-84.5863L99.453-77.9258Z"/>
  </g>
  <g id="Medium-L" transform="matrix(1 0 0 1 1680.24 1556)">
   <path d="M31.9136 11.5854L103.534-60.01L92.4676-71.1244L20.8233 0.471032L14.6333 14.659Q14.1496 15.896 15.1451 16.9161Q16.1405 17.9363 17.357 17.5194ZM109.244-65.57L115.593-71.9192Q118.023-74.2894 118.119-76.7796Q118.216-79.2698 116.052-81.4897L114.012-83.5866Q111.84-85.7366 109.327-85.5476Q106.814-85.3586 104.433-83.0688L98.0381-76.7543Z"/>
  </g>
  <g id="Regular-L" transform="matrix(1 0 0 1 1385.27 1556)">
   <path d="M30.7263 10.292L101.089-60.0198L91.1074-70.0605L20.7153 0.251189L14.6067 13.7069Q14.2134 14.705 15.0253 15.5676Q15.8373 16.4303 16.8564 16.0876ZM106.335-65.1051L112.228-70.9979Q114.533-73.2233 114.624-75.5203Q114.715-77.8173 112.701-79.8818L111.011-81.6226Q109.006-83.6067 106.694-83.4205Q104.383-83.2343 102.136-81.0894L96.1927-75.2263Z"/>
  </g>
  <g id="Light-L" transform="matrix(1 0 0 1 1088.71 1556)">
   <path d="M29.4539 10.5998L102.033-61.9488L93.4879-70.5941L20.8589 1.95451L14.5862 14.6509Q14.2544 15.5054 14.933 16.2141Q15.6115 16.9228 16.4459 16.6212ZM106.848-66.6032L112.146-71.9009Q114.267-73.9416 114.337-75.9923Q114.407-78.043 112.558-79.9229L111.422-81.089Q109.642-82.8884 107.567-82.7125Q105.491-82.5366 103.47-80.5763L98.1423-75.3289Z"/>
  </g>
  <g id="Thin-L" transform="matrix(1 0 0 1 792.186 1556)">
   <path d="M27.7711 11.0069L103.281-64.5002L96.6364-71.2998L21.0489 4.20729L14.559 15.8994Q14.3087 16.5639 14.8108 17.069Q15.313 17.5742 15.9031 17.3269ZM107.526-68.5845L112.037-73.0951Q113.914-74.8915 113.957-76.6166Q114-78.3416 112.368-79.9771L111.965-80.3833Q110.484-81.9384 108.72-81.7761Q106.956-81.6137 105.234-79.8978L100.721-75.4646Z"/>
  </g>
  <g id="Ultralight-L" transform="matrix(1 0 0 1 495.572 1556)">
   <path d="M26.9092 11.2154L103.921-65.807L98.249-71.6612L21.1462 5.36116L14.5451 16.5389Q14.3365 17.1061 14.7483 17.507Q15.1601 17.9078 15.625 17.6883ZM107.874-69.5994L111.981-73.7068Q113.733-75.3781 113.762-76.9363Q113.792-78.4945 112.27-80.0049L112.243-80.0219Q110.915-81.4519 109.311-81.2965Q107.707-81.1411 106.138-79.5502L102.041-75.5341Z"/>
  </g>
  <g id="Black-M" transform="matrix(1 0 0 1 2873.93 1126)">
   <path d="M29.82 7.16734L91.9176-55.0389L78.7822-68.1737L16.6849-5.96742L11.454 8.17581Q10.6795 10.1973 12.2597 11.6688Q13.8398 13.1403 15.6388 12.4855ZM98.3564-61.4102L105.198-68.2514Q107.594-70.6994 107.687-73.4443Q107.781-76.1891 105.463-78.5697L102.439-81.6568Q100.058-84.0321 97.2558-83.8762Q94.454-83.7203 92.0572-81.3345L85.2106-74.5502Z"/>
  </g>
  <g id="Heavy-M" transform="matrix(1 0 0 1 2579.43 1126)">
   <path d="M28.5715 5.44339L88.581-54.6371L76.5275-66.6956L16.5155-6.61508L11.4243 6.75268Q10.7524 8.49895 12.126 9.80156Q13.4996 11.1042 15.0852 10.5358ZM94.5174-60.4925L100.902-66.8766Q103.179-69.1787 103.27-71.7288Q103.361-74.279 101.199-76.5001L98.5052-79.2542Q96.2891-81.4565 93.6941-81.302Q91.099-81.1474 88.8268-78.9077L82.4265-72.5697Z"/>
  </g>
  <g id="Bold-M" transform="matrix(1 0 0 1 2285.19 1126)">
   <path d="M27.175 3.5149L84.8486-54.1876L74.0052-65.0421L16.326-7.33959L11.391 5.16071Q10.8339 6.59905 11.9765 7.71279Q13.1191 8.82653 14.466 8.35476ZM90.223-59.4659L96.0959-65.3388Q98.2398-67.4775 98.3277-69.8099Q98.4157-72.1423 96.4298-74.1849L94.105-76.5665Q92.0734-78.5754 89.7097-78.4224Q87.346-78.2694 85.2132-76.193L79.3121-70.3542Z"/>
  </g>
  <g id="Semibold-M" transform="matrix(1 0 0 1 1990.18 1126)">
   <path d="M26.2122 2.18542L82.2755-53.8777L72.2663-63.9022L16.1954-7.83906L11.3681 4.06322Q10.8901 5.28928 11.8735 6.27281Q12.8568 7.25634 14.0391 6.85116ZM87.2625-58.7582L92.7829-64.2786Q94.835-66.3047 94.9208-68.487Q95.0066-70.6692 93.1416-72.5888L91.0715-74.7136Q89.1672-76.5891 86.9629-76.4372Q84.7587-76.2852 82.7219-74.3215L77.165-68.8269Z"/>
  </g>
  <g id="Medium-M" transform="matrix(1 0 0 1 1694.76 1126)">
   <path d="M25.4822 1.17734L80.3245-53.6428L70.9479-63.0379L16.0963-8.21778L11.3508 3.23105Q10.9327 4.29615 11.7953 5.18095Q12.6579 6.06575 13.7154 5.71106ZM85.0177-58.2216L90.2709-63.4748Q92.2533-65.4155 92.3375-67.4839Q92.4217-69.5523 90.6484-71.3786L88.7714-73.3087Q86.9635-75.0831 84.8802-74.9319Q82.7969-74.7808 80.833-72.9024L75.537-67.6688Z"/>
  </g>
  <g id="Regular-M" transform="matrix(1 0 0 1 1399.74 1126)">
   <path d="M24.53-0.137535L77.7797-53.3363L69.2282-61.9105L15.9671-8.71176L11.3281 2.14561Q10.9883 3.00077 11.6934 3.75679Q12.3984 4.51281 13.2932 4.22398ZM82.0897-57.5217L86.9943-62.4262Q88.8859-64.2556 88.968-66.1755Q89.0501-68.0954 87.3964-69.8001L85.7712-71.4762Q84.0892-73.1186 82.1636-72.9685Q80.238-72.8185 78.3691-71.0514L73.4135-66.1582Z"/>
  </g>
  <g id="Light-M" transform="matrix(1 0 0 1 1103.16 1126)">
   <path d="M23.3893 0.13845L78.6261-55.0658L71.3624-62.3889L16.0959-7.18464L11.3097 2.99197Q11.0251 3.71833 11.6106 4.33636Q12.1961 4.95439 12.9252 4.70236ZM82.5497-58.8648L86.9207-63.2358Q88.6467-64.8995 88.7104-66.5987Q88.7741-68.2978 87.2676-69.8369L86.1392-70.9978Q84.6596-72.4747 82.9456-72.3338Q81.2316-72.1929 79.565-70.5915L75.1615-66.2502Z"/>
  </g>
  <g id="Thin-M" transform="matrix(1 0 0 1 806.614 1126)">
   <path d="M21.8805 0.503462L79.7454-57.3532L74.1852-63.0216L16.2662-5.16491L11.2854 4.11134Q11.0738 4.66736 11.5011 5.10289Q11.9284 5.53841 12.4385 5.33504ZM83.158-60.6412L86.8233-64.3065Q88.3304-65.7512 88.3698-67.1584Q88.4091-68.5655 87.0972-69.8856L86.6259-70.3652Q85.4139-71.623 83.9798-71.4943Q82.5456-71.3655 81.1467-69.9831L77.4732-66.3719Z"/>
  </g>
  <g id="Ultralight-M" transform="matrix(1 0 0 1 509.99 1126)">
   <path d="M21.1078 0.69042L80.3188-58.5248L75.631-63.3456L16.3535-4.13041L11.2729 4.68468Q11.0987 5.15345 11.445 5.4955Q11.7913 5.83754 12.1893 5.6591ZM83.4696-61.551L86.7735-64.8549Q88.1683-66.1875 88.1953-67.445Q88.2222-68.7026 87.01-69.9105L86.8752-70.0411Q85.8003-71.1867 84.5095-71.0643Q83.2187-70.9418 81.9569-69.6715L78.6573-66.4342Z"/>
  </g>
  <g id="Black-S" transform="matrix(1 0 0 1 2886.13 696)">
   <path d="M23.6816-1.46484L73.0957-50.9766L62.5488-61.5234L13.1348-12.0117L8.98438-0.732422Q8.34961 0.927734 9.64355 2.12402Q10.9375 3.32031 12.4023 2.7832ZM78.2715-56.1035L83.7402-61.5723Q85.6445-63.5254 85.7178-65.7227Q85.791-67.9199 83.9355-69.8242L81.4941-72.3145Q79.5898-74.2188 77.3438-74.0967Q75.0977-73.9746 73.1934-72.0703L67.7246-66.6504Z"/>
  </g>
  <g id="Heavy-S" transform="matrix(1 0 0 1 2591.3 696)">
   <path d="M22.7597-2.97455L70.1339-50.4119L60.3477-60.1981L12.9734-12.7608L8.96133-2.05774Q8.40723-0.616544 9.53983 0.452976Q10.6724 1.5225 11.9759 1.05453ZM74.9294-55.147L80.0755-60.293Q81.8991-62.1425 81.9723-64.2014Q82.0456-66.2604 80.3053-68.0495L78.0829-70.3207Q76.2938-72.0982 74.1976-71.9762Q72.1013-71.8541 70.2777-70.0535L65.1201-64.9448Z"/>
  </g>
  <g id="Bold-S" transform="matrix(1 0 0 1 2296.68 696)">
   <path d="M21.7285-4.66309L66.8213-49.7803L57.8857-58.7158L12.793-13.5986L8.93555-3.54004Q8.47168-2.34375 9.42383-1.41602Q10.376-0.488281 11.499-0.878906ZM71.1914-54.0771L75.9766-58.8623Q77.71-60.5957 77.7832-62.5Q77.8564-64.4043 76.2451-66.0645L74.2676-68.0908Q72.6074-69.7266 70.6787-69.6045Q68.75-69.4824 67.0166-67.7979L62.207-63.0371Z"/>
  </g>
  <g id="Semibold-S" transform="matrix(1 0 0 1 2001.41 696)">
   <path d="M21.0176-5.82725L64.5374-49.3448L56.1884-57.6938L12.6686-14.1763L8.91777-4.56201Q8.51611-3.53457 9.34385-2.70459Q10.1716-1.87461 11.1702-2.21191ZM68.6143-53.3396L73.1506-57.8759Q74.8218-59.5293 74.895-61.327Q74.9683-63.1246 73.4458-64.6959L71.6371-66.5534Q70.0658-68.0914 68.2526-67.9693Q66.4395-67.8473 64.7683-66.2427L60.1986-61.7219Z"/>
  </g>
  <g id="Medium-S" transform="matrix(1 0 0 1 1705.8 696)">
   <path d="M20.4785-6.70996L62.8057-49.0146L54.9014-56.9189L12.5742-14.6143L8.9043-5.33691Q8.5498-4.4375 9.2832-3.68164Q10.0166-2.92578 10.9209-3.22266ZM66.6602-52.7803L71.0078-57.1279Q72.6318-58.7207 72.7051-60.4375Q72.7783-62.1543 71.3232-63.6582L69.6426-65.3877Q68.1387-66.8516 66.4131-66.7295Q64.6875-66.6074 63.0635-65.0635L58.6758-60.7246Z"/>
  </g>
  <g id="Regular-S" transform="matrix(1 0 0 1 1410.51 696)">
   <path d="M19.7754-7.86133L60.5469-48.584L53.2227-55.9082L12.4512-15.1855L8.88672-6.34766Q8.59375-5.61523 9.2041-4.95605Q9.81445-4.29688 10.5957-4.54102ZM64.1113-52.0508L68.2129-56.1523Q69.7754-57.666 69.8486-59.2773Q69.9219-60.8887 68.5547-62.3047L67.041-63.8672Q65.625-65.2344 64.0137-65.1123Q62.4023-64.9902 60.8398-63.5254L56.6895-59.4238Z"/>
  </g>
  <g id="Light-S" transform="matrix(1 0 0 1 1113.92 696)">
   <path d="M18.7663-7.61719L61.2956-50.1139L55.1107-56.3314L12.5651-13.8346L8.87044-5.59896Q8.6263-4.98047 9.13086-4.44336Q9.63542-3.90625 10.2702-4.11784ZM64.5182-53.2389L68.1478-56.8685Q69.5638-58.2357 69.6208-59.6517Q69.6777-61.0677 68.4408-62.3372L67.3665-63.444Q66.1296-64.6647 64.7054-64.5508Q63.2812-64.4368 61.8978-63.1185L58.2357-59.5052Z"/>
  </g>
  <g id="Thin-S" transform="matrix(1 0 0 1 817.356 696)">
   <path d="M17.4316-7.29429L62.2858-52.1374L57.6077-56.8911L12.7158-12.0479L8.84892-4.60874Q8.66935-4.14094 9.03399-3.76528Q9.39863-3.38962 9.83965-3.55815ZM65.0564-54.8104L68.0617-57.8157Q69.284-58.9891 69.3194-60.1468Q69.3548-61.3045 68.2901-62.3803L67.7971-62.8843Q66.7969-63.9113 65.6203-63.8081Q64.4437-63.705 63.297-62.5803L60.2807-59.6128Z"/>
  </g>
  <g id="Ultralight-S" transform="matrix(1 0 0 1 520.722 696)">
   <path d="M16.748-7.12891L62.793-53.1738L58.8867-57.1777L12.793-11.1328L8.83789-4.10156Q8.69141-3.71094 8.98438-3.41797Q9.27734-3.125 9.61914-3.27148ZM65.332-55.6152L68.0176-58.3008Q69.1406-59.375 69.165-60.4004Q69.1895-61.4258 68.2129-62.4023L68.0176-62.5977Q67.1387-63.5254 66.0889-63.4277Q65.0391-63.3301 64.0137-62.3047L61.3281-59.668Z"/>
  </g>
 </g>
</svg>
