<?xml version="1.0" encoding="UTF-8" standalone="no"?>
<!DOCTYPE svg PUBLIC "-//W3C//DTD SVG 1.1//EN" "http://www.w3.org/Graphics/SVG/1.1/DTD/svg11.dtd">
<svg width="100%" height="100%" viewBox="0 0 207 203" version="1.1" xmlns="http://www.w3.org/2000/svg" xmlns:xlink="http://www.w3.org/1999/xlink" xml:space="preserve" xmlns:serif="http://www.serif.com/" style="fill-rule:evenodd;clip-rule:evenodd;stroke-linejoin:round;stroke-miterlimit:2;">
    <g id="g3932">
    </g>
    <path id="path4010" d="M188.6,111.6C179,111.6 171.2,119.4 171.2,129C171.2,132.5 172.3,135.8 174.1,138.5L140.4,171C138.4,169.6 136.1,168.6 133.6,168.1L133.6,146C141.6,144.5 147.8,137.4 147.8,128.9C147.8,120.4 141.7,113.3 133.6,111.8L133.6,73.5C133.6,71.7 132.2,70.3 130.4,70.3L92.9,70.3C92.4,67.5 91.2,65 89.5,62.8L120.9,31.8C123.6,33.6 126.9,34.7 130.4,34.7C134.4,34.7 138,33.3 141,31.1L174.2,63.9C172.3,66.7 171.2,70 171.2,73.6C171.2,83.2 179,91 188.6,91C198.2,91 206,83.2 206,73.6C206,64 198.2,56.2 188.6,56.2C184.9,56.2 181.5,57.4 178.7,59.3L145.2,26.3C146.8,23.7 147.7,20.6 147.7,17.4C147.7,7.8 139.9,0 130.3,0C121.8,0 114.7,6.1 113.2,14.2L92.8,14.2C91.3,6.2 84.2,0 75.7,0C66.1,0 58.3,7.8 58.3,17.4C58.3,20.7 59.2,23.7 60.8,26.3L27.3,59.3C24.5,57.4 21.1,56.2 17.4,56.2C7.8,56.2 0,64 0,73.6C0,83.2 7.8,91 17.4,91C27,91 34.8,83.2 34.8,73.6C34.8,70 33.7,66.7 31.8,63.9L65.2,31.2C68.1,33.5 71.8,34.8 75.8,34.8C84.3,34.8 91.4,28.7 92.9,20.6L113.3,20.6C113.8,23.1 114.8,25.4 116.2,27.4L84.6,58.6C82,57.1 79,56.2 75.8,56.2C66.2,56.2 58.4,64 58.4,73.6C58.4,83.2 66.2,91 75.8,91C84.3,91 91.4,84.9 92.9,76.8L127.2,76.8L127.2,111.9C119.2,113.4 113,120.5 113,129C113,137.5 119.1,144.6 127.2,146.1L127.2,168.2C120.2,169.5 114.7,175 113.4,182L93,182C91.5,174 84.4,167.8 75.9,167.8C71.9,167.8 68.3,169.2 65.3,171.4L32.1,138.7C33.4,136.8 34.3,134.6 34.7,132.2L58.8,132.2C60.3,140.2 67.4,146.4 75.9,146.4C85.5,146.4 93.3,138.6 93.3,129C93.3,119.4 85.5,111.6 75.9,111.6C67.4,111.6 60.3,117.7 58.8,125.8L34.6,125.8C33.1,117.8 26,111.6 17.5,111.6C7.9,111.6 0.1,119.4 0.1,129C0.1,138.6 7.9,146.4 17.5,146.4C21.2,146.4 24.6,145.2 27.4,143.3L60.9,176.3C59.3,178.9 58.4,182 58.4,185.2C58.4,194.8 66.2,202.6 75.8,202.6C84.3,202.6 91.4,196.5 92.9,188.4L113.3,188.4C114.8,196.4 121.9,202.6 130.4,202.6C140,202.6 147.8,194.8 147.8,185.2C147.8,181.7 146.7,178.4 144.9,175.7L178.6,143.2C181.4,145.2 184.9,146.4 188.6,146.4C198.2,146.4 206,138.6 206,129C206,119.4 198.2,111.6 188.6,111.6ZM178.9,68.6C179.9,66.6 181.5,65 183.4,64C184.9,63.2 186.7,62.7 188.6,62.7C194.6,62.7 199.5,67.6 199.5,73.6C199.5,79.6 194.6,84.5 188.6,84.5C182.6,84.5 177.7,79.6 177.7,73.6C177.7,71.8 178.1,70.1 178.9,68.6ZM130.4,6.5C136.4,6.5 141.3,11.4 141.3,17.4C141.3,23.4 136.4,28.3 130.4,28.3C128.7,28.3 127.1,27.9 125.7,27.2C123.7,26.2 122.1,24.7 121,22.8C120.1,21.2 119.6,19.4 119.6,17.4C119.5,11.4 124.4,6.5 130.4,6.5ZM17.6,84.5C11.6,84.5 6.7,79.6 6.7,73.6C6.7,67.6 11.6,62.7 17.6,62.7C23.6,62.7 28.5,67.6 28.5,73.6C28.5,79.6 23.6,84.5 17.6,84.5ZM75.8,28.3C69.8,28.3 64.9,23.4 64.9,17.4C64.9,11.4 69.8,6.5 75.8,6.5C81.8,6.5 86.7,11.4 86.7,17.4C86.7,23.4 81.8,28.3 75.8,28.3ZM86.2,76.9C84.8,81.3 80.7,84.6 75.8,84.6C69.8,84.6 64.9,79.7 64.9,73.7C64.9,67.7 69.8,62.8 75.8,62.8C80.7,62.8 84.8,66 86.2,70.5C86.5,71.5 86.7,72.6 86.7,73.7C86.7,74.8 86.5,75.8 86.2,76.9ZM75.8,118.1C81.8,118.1 86.7,123 86.7,129C86.7,135 81.8,139.9 75.8,139.9C69.8,139.9 64.9,135 64.9,129C64.9,123 69.8,118.1 75.8,118.1ZM27.3,134C26.3,136 24.7,137.6 22.8,138.6C21.3,139.4 19.5,139.9 17.6,139.9C11.6,139.9 6.7,135 6.7,129C6.7,123 11.6,118.1 17.6,118.1C23.6,118.1 28.5,123 28.5,129C28.5,130.8 28,132.5 27.3,134ZM86.2,188.5C84.8,192.9 80.7,196.2 75.8,196.2C69.8,196.2 64.9,191.3 64.9,185.3C64.9,183.8 65.2,182.4 65.7,181.1C66.6,179 68,177.3 69.9,176.1C71.6,175 73.6,174.4 75.8,174.4C80.7,174.4 84.8,177.6 86.2,182.1C86.5,183.1 86.7,184.2 86.7,185.3C86.7,186.4 86.5,187.4 86.2,188.5ZM119.5,129C119.5,124.1 122.7,120 127.2,118.6C128.2,118.3 129.3,118.1 130.4,118.1C131.5,118.1 132.6,118.3 133.6,118.6C138,120 141.3,124.1 141.3,129C141.3,135 136.4,139.9 130.4,139.9C124.4,139.9 119.5,135 119.5,129ZM130.4,196.1C124.4,196.1 119.5,191.2 119.5,185.2C119.5,179.2 124.4,174.3 130.4,174.3C136.4,174.3 141.3,179.2 141.3,185.2C141.3,191.2 136.4,196.1 130.4,196.1ZM188.6,139.9C182.6,139.9 177.7,135 177.7,129C177.7,123 182.6,118.1 188.6,118.1C194.6,118.1 199.5,123 199.5,129C199.5,135 194.6,139.9 188.6,139.9Z" style="fill:rgb(0,79,2);fill-rule:nonzero;"/>
</svg>
