<?xml version="1.0" encoding="UTF-8"?>
<!--Generator: Apple Native CoreSVG 175-->
<!DOCTYPE svg
PUBLIC "-//W3C//DTD SVG 1.1//EN"
       "http://www.w3.org/Graphics/SVG/1.1/DTD/svg11.dtd">
<svg version="1.1" xmlns="http://www.w3.org/2000/svg" xmlns:xlink="http://www.w3.org/1999/xlink" width="3300" height="2200">
 <!--glyph: "uni100269.medium", point size: 100.0, font version: "17.1d1e1", template writer version: "65.1"-->
 <g id="Notes">
  <rect height="2200" id="artboard" style="fill:white;opacity:1" width="3300" x="0" y="0"/>
  <line style="fill:none;stroke:black;opacity:1;stroke-width:0.5;" x1="263" x2="3036" y1="292" y2="292"/>
  <text style="stroke:none;fill:black;font-family:sans-serif;font-size:13;font-weight:bold;" transform="matrix(1 0 0 1 263 322)">Weight/Scale Variations</text>
  <text style="stroke:none;fill:black;font-family:sans-serif;font-size:13;text-anchor:middle;" transform="matrix(1 0 0 1 559.711 322)">Ultralight</text>
  <text style="stroke:none;fill:black;font-family:sans-serif;font-size:13;text-anchor:middle;" transform="matrix(1 0 0 1 856.422 322)">Thin</text>
  <text style="stroke:none;fill:black;font-family:sans-serif;font-size:13;text-anchor:middle;" transform="matrix(1 0 0 1 1153.13 322)">Light</text>
  <text style="stroke:none;fill:black;font-family:sans-serif;font-size:13;text-anchor:middle;" transform="matrix(1 0 0 1 1449.84 322)">Regular</text>
  <text style="stroke:none;fill:black;font-family:sans-serif;font-size:13;text-anchor:middle;" transform="matrix(1 0 0 1 1746.56 322)">Medium</text>
  <text style="stroke:none;fill:black;font-family:sans-serif;font-size:13;text-anchor:middle;" transform="matrix(1 0 0 1 2043.27 322)">Semibold</text>
  <text style="stroke:none;fill:black;font-family:sans-serif;font-size:13;text-anchor:middle;" transform="matrix(1 0 0 1 2339.98 322)">Bold</text>
  <text style="stroke:none;fill:black;font-family:sans-serif;font-size:13;text-anchor:middle;" transform="matrix(1 0 0 1 2636.69 322)">Heavy</text>
  <text style="stroke:none;fill:black;font-family:sans-serif;font-size:13;text-anchor:middle;" transform="matrix(1 0 0 1 2933.4 322)">Black</text>
  <line style="fill:none;stroke:black;opacity:1;stroke-width:0.5;" x1="263" x2="3036" y1="1903" y2="1903"/>
  <g transform="matrix(1 0 0 1 263 1933)">
   <path d="M9.24805 0.830078Q10.8691 0.830078 12.2949 0.214844Q13.7207-0.400391 14.8096-1.49414Q15.8984-2.58789 16.5186-4.01367Q17.1387-5.43945 17.1387-7.05078Q17.1387-8.66211 16.5186-10.0879Q15.8984-11.5137 14.8047-12.6074Q13.7109-13.7012 12.2852-14.3164Q10.8594-14.9316 9.23828-14.9316Q7.62695-14.9316 6.20117-14.3164Q4.77539-13.7012 3.69141-12.6074Q2.60742-11.5137 1.9873-10.0879Q1.36719-8.66211 1.36719-7.05078Q1.36719-5.43945 1.9873-4.01367Q2.60742-2.58789 3.69629-1.49414Q4.78516-0.400391 6.21094 0.214844Q7.63672 0.830078 9.24805 0.830078ZM9.24805-0.654297Q7.91992-0.654297 6.7627-1.14746Q5.60547-1.64062 4.73145-2.51953Q3.85742-3.39844 3.36426-4.56055Q2.87109-5.72266 2.87109-7.05078Q2.87109-8.37891 3.35938-9.54102Q3.84766-10.7031 4.72168-11.582Q5.5957-12.4609 6.75293-12.9541Q7.91016-13.4473 9.23828-13.4473Q10.5762-13.4473 11.7334-12.9541Q12.8906-12.4609 13.7695-11.582Q14.6484-10.7031 15.1465-9.54102Q15.6445-8.37891 15.6445-7.05078Q15.6445-5.72266 15.1514-4.56055Q14.6582-3.39844 13.7842-2.51953Q12.9102-1.64062 11.748-1.14746Q10.5859-0.654297 9.24805-0.654297ZM5.6543-7.05078Q5.6543-6.72852 5.85938-6.52832Q6.06445-6.32812 6.40625-6.32812L8.51562-6.32812L8.51562-4.20898Q8.51562-3.88672 8.71094-3.67676Q8.90625-3.4668 9.23828-3.4668Q9.56055-3.4668 9.77051-3.67676Q9.98047-3.88672 9.98047-4.20898L9.98047-6.32812L12.0898-6.32812Q12.4219-6.32812 12.627-6.52832Q12.832-6.72852 12.832-7.05078Q12.832-7.38281 12.627-7.58789Q12.4219-7.79297 12.0898-7.79297L9.98047-7.79297L9.98047-9.90234Q9.98047-10.2344 9.77051-10.4443Q9.56055-10.6543 9.23828-10.6543Q8.90625-10.6543 8.71094-10.4443Q8.51562-10.2344 8.51562-9.90234L8.51562-7.79297L6.40625-7.79297Q6.06445-7.79297 5.85938-7.58789Q5.6543-7.38281 5.6543-7.05078Z"/>
  </g>
  <g transform="matrix(1 0 0 1 281.867 1933)">
   <path d="M11.709 2.91016Q13.75 2.91016 15.5518 2.12891Q17.3535 1.34766 18.7305-0.0292969Q20.1074-1.40625 20.8887-3.20801Q21.6699-5.00977 21.6699-7.05078Q21.6699-9.0918 20.8887-10.8936Q20.1074-12.6953 18.7305-14.0723Q17.3535-15.4492 15.5469-16.2305Q13.7402-17.0117 11.6992-17.0117Q9.6582-17.0117 7.85645-16.2305Q6.05469-15.4492 4.68262-14.0723Q3.31055-12.6953 2.5293-10.8936Q1.74805-9.0918 1.74805-7.05078Q1.74805-5.00977 2.5293-3.20801Q3.31055-1.40625 4.6875-0.0292969Q6.06445 1.34766 7.86621 2.12891Q9.66797 2.91016 11.709 2.91016ZM11.709 1.25Q9.98047 1.25 8.47656 0.605469Q6.97266-0.0390625 5.83496-1.17676Q4.69727-2.31445 4.05762-3.81836Q3.41797-5.32227 3.41797-7.05078Q3.41797-8.7793 4.05762-10.2832Q4.69727-11.7871 5.83008-12.9297Q6.96289-14.0723 8.4668-14.7119Q9.9707-15.3516 11.6992-15.3516Q13.4277-15.3516 14.9316-14.7119Q16.4355-14.0723 17.5781-12.9297Q18.7207-11.7871 19.3652-10.2832Q20.0098-8.7793 20.0098-7.05078Q20.0098-5.32227 19.3701-3.81836Q18.7305-2.31445 17.5928-1.17676Q16.4551-0.0390625 14.9463 0.605469Q13.4375 1.25 11.709 1.25ZM7.17773-7.05078Q7.17773-6.69922 7.41211-6.47461Q7.64648-6.25 8.01758-6.25L10.8887-6.25L10.8887-3.36914Q10.8887-2.99805 11.1133-2.76855Q11.3379-2.53906 11.6895-2.53906Q12.0605-2.53906 12.29-2.76855Q12.5195-2.99805 12.5195-3.36914L12.5195-6.25L15.4004-6.25Q15.7715-6.25 16.001-6.47461Q16.2305-6.69922 16.2305-7.05078Q16.2305-7.42188 16.001-7.65137Q15.7715-7.88086 15.4004-7.88086L12.5195-7.88086L12.5195-10.752Q12.5195-11.1328 12.29-11.3623Q12.0605-11.5918 11.6895-11.5918Q11.3379-11.5918 11.1133-11.3574Q10.8887-11.123 10.8887-10.752L10.8887-7.88086L8.01758-7.88086Q7.63672-7.88086 7.40723-7.65137Q7.17773-7.42188 7.17773-7.05078Z"/>
  </g>
  <g transform="matrix(1 0 0 1 305.646 1933)">
   <path d="M14.9707 5.66406Q17.0605 5.66406 18.96 5.01465Q20.8594 4.36523 22.4512 3.19336Q24.043 2.02148 25.2197 0.429688Q26.3965-1.16211 27.0459-3.06641Q27.6953-4.9707 27.6953-7.05078Q27.6953-9.14062 27.0459-11.04Q26.3965-12.9395 25.2197-14.5312Q24.043-16.123 22.4512-17.2998Q20.8594-18.4766 18.9551-19.126Q17.0508-19.7754 14.9609-19.7754Q12.8711-19.7754 10.9717-19.126Q9.07227-18.4766 7.48535-17.2998Q5.89844-16.123 4.72168-14.5312Q3.54492-12.9395 2.90039-11.04Q2.25586-9.14062 2.25586-7.05078Q2.25586-4.9707 2.90527-3.06641Q3.55469-1.16211 4.72656 0.429688Q5.89844 2.02148 7.49023 3.19336Q9.08203 4.36523 10.9814 5.01465Q12.8809 5.66406 14.9707 5.66406ZM14.9707 3.84766Q13.1641 3.84766 11.5283 3.2959Q9.89258 2.74414 8.53516 1.74805Q7.17773 0.751953 6.17676-0.610352Q5.17578-1.97266 4.62891-3.6084Q4.08203-5.24414 4.08203-7.05078Q4.08203-8.86719 4.62891-10.5029Q5.17578-12.1387 6.17188-13.501Q7.16797-14.8633 8.52539-15.8594Q9.88281-16.8555 11.5186-17.4023Q13.1543-17.9492 14.9609-17.9492Q16.7773-17.9492 18.4131-17.4023Q20.0488-16.8555 21.4111-15.8594Q22.7734-14.8633 23.7695-13.501Q24.7656-12.1387 25.3174-10.5029Q25.8691-8.86719 25.8691-7.05078Q25.8789-5.24414 25.332-3.6084Q24.7852-1.97266 23.7842-0.610352Q22.7832 0.751953 21.4209 1.74805Q20.0586 2.74414 18.4229 3.2959Q16.7871 3.84766 14.9707 3.84766ZM9.19922-7.05078Q9.19922-6.66992 9.45801-6.4209Q9.7168-6.17188 10.1172-6.17188L14.0625-6.17188L14.0625-2.2168Q14.0625-1.81641 14.3115-1.55762Q14.5605-1.29883 14.9512-1.29883Q15.3516-1.29883 15.6104-1.55273Q15.8691-1.80664 15.8691-2.2168L15.8691-6.17188L19.8242-6.17188Q20.2246-6.17188 20.4785-6.4209Q20.7324-6.66992 20.7324-7.05078Q20.7324-7.46094 20.4785-7.71484Q20.2246-7.96875 19.8242-7.96875L15.8691-7.96875L15.8691-11.9141Q15.8691-12.3242 15.6104-12.583Q15.3516-12.8418 14.9512-12.8418Q14.5605-12.8418 14.3115-12.583Q14.0625-12.3242 14.0625-11.9141L14.0625-7.96875L10.1172-7.96875Q9.70703-7.96875 9.45312-7.71484Q9.19922-7.46094 9.19922-7.05078Z"/>
  </g>
  <text style="stroke:none;fill:black;font-family:sans-serif;font-size:13;font-weight:bold;" transform="matrix(1 0 0 1 263 1953)">Design Variations</text>
  <text style="stroke:none;fill:black;font-family:sans-serif;font-size:13;" transform="matrix(1 0 0 1 263 1971)">Symbols are supported in up to nine weights and three scales.</text>
  <text style="stroke:none;fill:black;font-family:sans-serif;font-size:13;" transform="matrix(1 0 0 1 263 1989)">For optimal layout with text and other symbols, vertically align</text>
  <text style="stroke:none;fill:black;font-family:sans-serif;font-size:13;" transform="matrix(1 0 0 1 263 2007)">symbols with the adjacent text.</text>
  <line style="fill:none;stroke:#00AEEF;stroke-width:0.5;opacity:1.0;" x1="776" x2="776" y1="1919" y2="1933"/>
  <g transform="matrix(1 0 0 1 776 1933)">
   <path d="M3.31055 0.15625Q3.70117 0.15625 3.91602-0.00976562Q4.13086-0.175781 4.26758-0.585938L5.52734-4.0332L11.2891-4.0332L12.5488-0.585938Q12.6855-0.175781 12.9004-0.00976562Q13.1152 0.15625 13.4961 0.15625Q13.8867 0.15625 14.1162-0.0585938Q14.3457-0.273438 14.3457-0.644531Q14.3457-0.869141 14.2383-1.17188L9.6582-13.3691Q9.48242-13.8184 9.17969-14.043Q8.87695-14.2676 8.4082-14.2676Q7.5-14.2676 7.17773-13.3789L2.59766-1.16211Q2.49023-0.859375 2.49023-0.634766Q2.49023-0.263672 2.70996-0.0537109Q2.92969 0.15625 3.31055 0.15625ZM6.00586-5.51758L8.37891-12.0898L8.42773-12.0898L10.8008-5.51758Z"/>
  </g>
  <line style="fill:none;stroke:#00AEEF;stroke-width:0.5;opacity:1.0;" x1="793.197" x2="793.197" y1="1919" y2="1933"/>
  <text style="stroke:none;fill:black;font-family:sans-serif;font-size:13;font-weight:bold;" transform="matrix(1 0 0 1 776 1953)">Margins</text>
  <text style="stroke:none;fill:black;font-family:sans-serif;font-size:13;" transform="matrix(1 0 0 1 776 1971)">Leading and trailing margins on the left and right side of each symbol</text>
  <text style="stroke:none;fill:black;font-family:sans-serif;font-size:13;" transform="matrix(1 0 0 1 776 1989)">can be adjusted by modifying the x-location of the margin guidelines.</text>
  <text style="stroke:none;fill:black;font-family:sans-serif;font-size:13;" transform="matrix(1 0 0 1 776 2007)">Modifications are automatically applied proportionally to all</text>
  <text style="stroke:none;fill:black;font-family:sans-serif;font-size:13;" transform="matrix(1 0 0 1 776 2025)">scales and weights.</text>
  <g transform="matrix(1 0 0 1 1289 1933)">
   <path d="M2.8418 1.86523L4.54102 3.57422Q5.18555 4.22852 5.90332 4.17969Q6.62109 4.13086 7.31445 3.35938L18.0078-8.42773L17.041-9.4043L6.42578 2.27539Q6.16211 2.57812 5.89355 2.61719Q5.625 2.65625 5.27344 2.30469L4.10156 1.14258Q3.75 0.791016 3.79395 0.522461Q3.83789 0.253906 4.14062-0.0195312L15.6152-10.8203L14.6387-11.7871L3.04688-0.898438Q2.30469-0.214844 2.25098 0.498047Q2.19727 1.21094 2.8418 1.86523ZM9.25781-16.3281Q8.94531-16.0254 8.90625-15.6348Q8.86719-15.2441 9.04297-14.9512Q9.21875-14.6777 9.55566-14.541Q9.89258-14.4043 10.3809-14.5215Q11.4746-14.7754 12.5977-14.7314Q13.7207-14.6875 14.7949-13.9844L14.209-12.5293Q13.9551-11.9043 14.0674-11.4404Q14.1797-10.9766 14.5801-10.5664L16.875-8.25195Q17.2363-7.88086 17.5781-7.82227Q17.9199-7.76367 18.3398-7.8418L19.4043-8.03711L20.0684-7.36328L20.0293-6.80664Q20-6.43555 20.1221-6.12305Q20.2441-5.81055 20.6055-5.44922L21.3672-4.70703Q21.7285-4.3457 22.1533-4.33105Q22.5781-4.31641 22.9297-4.66797L25.8398-7.58789Q26.1914-7.93945 26.1816-8.35449Q26.1719-8.76953 25.8105-9.13086L25.0391-9.89258Q24.6875-10.2539 24.3799-10.3857Q24.0723-10.5176 23.7109-10.4883L23.1348-10.4395L22.4902-11.0742L22.7344-12.1973Q22.832-12.6172 22.6953-12.9834Q22.5586-13.3496 22.1191-13.7891L19.9219-15.9766Q18.6719-17.2168 17.2607-17.8369Q15.8496-18.457 14.4189-18.4814Q12.9883-18.5059 11.665-17.959Q10.3418-17.4121 9.25781-16.3281ZM10.752-15.957Q11.6602-16.6211 12.7002-16.9043Q13.7402-17.1875 14.8047-17.085Q15.8691-16.9824 16.8701-16.5137Q17.8711-16.0449 18.7012-15.2051L21.1328-12.793Q21.3086-12.6172 21.3525-12.4512Q21.3965-12.2852 21.3379-12.0312L21.0156-10.5469L22.5195-9.0625L23.5059-9.12109Q23.6914-9.13086 23.7891-9.09668Q23.8867-9.0625 24.0332-8.91602L24.6094-8.33984L22.168-5.89844L21.5918-6.47461Q21.4453-6.62109 21.4062-6.71875Q21.3672-6.81641 21.377-7.01172L21.4453-7.98828L19.9512-9.47266L18.4277-9.21875Q18.1836-9.16992 18.042-9.2041Q17.9004-9.23828 17.7148-9.41406L15.7129-11.416Q15.5176-11.5918 15.4932-11.7529Q15.4688-11.9141 15.5859-12.1875L16.4648-14.2773Q15.293-15.3711 13.8281-15.791Q12.3633-16.2109 10.8398-15.7617Q10.7227-15.7324 10.6885-15.8057Q10.6543-15.8789 10.752-15.957Z"/>
  </g>
  <text style="stroke:none;fill:black;font-family:sans-serif;font-size:13;font-weight:bold;" transform="matrix(1 0 0 1 1289 1953)">Exporting</text>
  <text style="stroke:none;fill:black;font-family:sans-serif;font-size:13;" transform="matrix(1 0 0 1 1289 1971)">Symbols should be outlined when exporting to ensure the</text>
  <text style="stroke:none;fill:black;font-family:sans-serif;font-size:13;" transform="matrix(1 0 0 1 1289 1989)">design is preserved when submitting to Xcode.</text>
  <text id="template-version" style="stroke:none;fill:black;font-family:sans-serif;font-size:13;text-anchor:end;" transform="matrix(1 0 0 1 3036 1933)">Template v.2.0</text>
  <text style="stroke:none;fill:black;font-family:sans-serif;font-size:13;text-anchor:end;" transform="matrix(1 0 0 1 3036 1951)">Requires Xcode 12 or greater</text>
  <text id="descriptive-name" style="stroke:none;fill:black;font-family:sans-serif;font-size:13;text-anchor:end;" transform="matrix(1 0 0 1 3036 1969)">Generated from person</text>
  <text style="stroke:none;fill:black;font-family:sans-serif;font-size:13;text-anchor:end;" transform="matrix(1 0 0 1 3036 1987)">Typeset at 100 points</text>
  <text style="stroke:none;fill:black;font-family:sans-serif;font-size:13;" transform="matrix(1 0 0 1 263 726)">Small</text>
  <text style="stroke:none;fill:black;font-family:sans-serif;font-size:13;" transform="matrix(1 0 0 1 263 1156)">Medium</text>
  <text style="stroke:none;fill:black;font-family:sans-serif;font-size:13;" transform="matrix(1 0 0 1 263 1586)">Large</text>
 </g>
 <g id="Guides">
  <g id="H-reference" style="fill:#27AAE1;stroke:none;" transform="matrix(1 0 0 1 339 696)">
   <path d="M0.976562 0L3.66211 0L29.3457-67.1387L30.0293-67.1387L30.0293-70.459L28.125-70.459ZM11.6699-24.4629L46.9727-24.4629L46.2402-26.709L12.4512-26.709ZM55.127 0L57.7637 0L30.6152-70.459L29.4434-70.459L29.4434-67.1387Z"/>
  </g>
  <line id="Baseline-S" style="fill:none;stroke:#27AAE1;opacity:1;stroke-width:0.5;" x1="263" x2="3036" y1="696" y2="696"/>
  <line id="Capline-S" style="fill:none;stroke:#27AAE1;opacity:1;stroke-width:0.5;" x1="263" x2="3036" y1="625.541" y2="625.541"/>
  <g id="H-reference" style="fill:#27AAE1;stroke:none;" transform="matrix(1 0 0 1 339 1126)">
   <path d="M0.976562 0L3.66211 0L29.3457-67.1387L30.0293-67.1387L30.0293-70.459L28.125-70.459ZM11.6699-24.4629L46.9727-24.4629L46.2402-26.709L12.4512-26.709ZM55.127 0L57.7637 0L30.6152-70.459L29.4434-70.459L29.4434-67.1387Z"/>
  </g>
  <line id="Baseline-M" style="fill:none;stroke:#27AAE1;opacity:1;stroke-width:0.5;" x1="263" x2="3036" y1="1126" y2="1126"/>
  <line id="Capline-M" style="fill:none;stroke:#27AAE1;opacity:1;stroke-width:0.5;" x1="263" x2="3036" y1="1055.54" y2="1055.54"/>
  <g id="H-reference" style="fill:#27AAE1;stroke:none;" transform="matrix(1 0 0 1 339 1556)">
   <path d="M0.976562 0L3.66211 0L29.3457-67.1387L30.0293-67.1387L30.0293-70.459L28.125-70.459ZM11.6699-24.4629L46.9727-24.4629L46.2402-26.709L12.4512-26.709ZM55.127 0L57.7637 0L30.6152-70.459L29.4434-70.459L29.4434-67.1387Z"/>
  </g>
  <line id="Baseline-L" style="fill:none;stroke:#27AAE1;opacity:1;stroke-width:0.5;" x1="263" x2="3036" y1="1556" y2="1556"/>
  <line id="Capline-L" style="fill:none;stroke:#27AAE1;opacity:1;stroke-width:0.5;" x1="263" x2="3036" y1="1485.54" y2="1485.54"/>
  <line id="left-margin" style="fill:none;stroke:#00AEEF;stroke-width:0.5;opacity:1.0;" x1="1394.74" x2="1394.74" y1="1030.79" y2="1150.12"/>
  <line id="right-margin" style="fill:none;stroke:#00AEEF;stroke-width:0.5;opacity:1.0;" x1="1504.94" x2="1504.94" y1="1030.79" y2="1150.12"/>
 </g>
 <g id="Symbols">
  <g id="Black-L" transform="matrix(1 0 0 1 2860.7 1556)">
   <path d="M34.4789 26.4113L110.924 26.4113Q129.32 26.4113 129.32 13.0555Q129.32 5.63794 125.103-1.55068Q120.887-8.7393 113.256-14.5579Q105.625-20.3764 95.2809-23.8854Q84.9371-27.3945 72.7007-27.3945Q60.4668-27.3945 50.1334-23.8854Q39.8-20.3764 32.1578-14.5579Q24.5157-8.7393 20.2998-1.55068Q16.084 5.63794 16.084 13.0555Q16.084 26.4113 34.4789 26.4113ZM35.471 10.7058Q34.8359 10.7058 34.5741 10.3647Q34.3123 10.0236 34.3123 9.58561Q34.3123 6.89235 36.9127 3.27247Q39.5131-0.347413 44.4429-3.77544Q49.3726-7.20346 56.4993-9.44687Q63.6261-11.6903 72.7007-11.6903Q81.7766-11.6903 88.9033-9.44687Q96.0301-7.20346 100.96-3.77544Q105.891-0.347413 108.491 3.27247Q111.09 6.89235 111.09 9.58561Q111.09 10.0236 110.868 10.3647Q110.646 10.7058 109.932 10.7058ZM72.7033-33.1392Q80.7236-33.1392 87.2605-37.3114Q93.7974-41.4837 97.6474-48.5349Q101.497-55.5861 101.497-64.1927Q101.497-72.6175 97.598-79.5274Q93.6988-86.4373 87.1722-90.5869Q80.6456-94.7365 72.7033-94.7365Q64.8036-94.7365 58.2375-90.5655Q51.6714-86.3946 47.791-79.475Q43.9106-72.5554 43.9119-64.1512Q43.9715-55.5654 47.8026-48.5142Q51.6337-41.4629 58.159-37.3011Q64.6843-33.1392 72.7033-33.1392ZM72.7033-48.8239Q69.2304-48.8239 66.3113-50.7256Q63.3922-52.6273 61.6272-56.1022Q59.8623-59.577 59.8039-64.2096Q59.8026-68.6021 61.587-71.9168Q63.3714-75.2315 66.321-77.1313Q69.2707-79.0311 72.7033-79.0311Q76.2163-79.0311 79.1361-77.1423Q82.0558-75.2535 83.8299-71.909Q85.604-68.5644 85.604-64.1927Q85.604-59.5601 83.8494-56.1041Q82.0948-52.648 79.1757-50.736Q76.2566-48.8239 72.7033-48.8239Z"/>
  </g>
  <g id="Heavy-L" transform="matrix(1 0 0 1 2564.41 1556)">
   <path d="M33.6583 25.8273L110.894 25.8273Q128.474 25.8273 128.474 13.2989Q128.474 6.17551 124.366-0.966543Q120.257-8.1086 112.746-14.0046Q105.235-19.9007 94.936-23.5034Q84.6369-27.106 72.273-27.106Q59.9213-27.106 49.637-23.5034Q39.3527-19.9007 31.8237-14.0046Q24.2947-8.1086 20.1893-0.966543Q16.084 6.17551 16.084 13.2989Q16.084 25.8273 33.6583 25.8273ZM33.7795 11.7209Q32.9454 11.7209 32.5943 11.3553Q32.2432 10.9898 32.2432 10.3921Q32.2432 7.37815 34.9365 3.39045Q37.6298-0.59726 42.7632-4.34608Q47.8966-8.0949 55.3284-10.5503Q62.7602-13.0057 72.273-13.0057Q81.7919-13.0057 89.2237-10.5503Q96.6556-8.0949 101.792-4.34608Q106.928-0.59726 109.619 3.39045Q112.309 7.37815 112.309 10.3921Q112.309 10.9898 111.995 11.3553Q111.681 11.7209 110.773 11.7209ZM72.2851-33.3977Q80.1714-33.3977 86.6176-37.521Q93.0638-41.6443 96.8624-48.6074Q100.661-55.5705 100.661-64.0615Q100.661-72.3885 96.8266-79.2012Q92.9922-86.0139 86.5609-90.0851Q80.1296-94.1563 72.2851-94.1563Q64.5062-94.1563 58.0377-90.0524Q51.5692-85.9484 47.7423-79.1238Q43.9153-72.2993 43.9213-64.002Q43.972-55.5407 47.7632-48.5776Q51.5543-41.6145 57.9796-37.5061Q64.4049-33.3977 72.2851-33.3977ZM72.2851-47.4744Q68.5148-47.4744 65.3453-49.5681Q62.1757-51.6617 60.258-55.4077Q58.3402-59.1537 58.2956-64.0466Q58.2896-68.7309 60.2178-72.3191Q62.1459-75.9072 65.3438-77.9786Q68.5417-80.0499 72.2851-80.0499Q76.1089-80.0499 79.2815-77.9965Q82.4541-75.943 84.3673-72.3295Q86.2806-68.7161 86.2806-64.0615Q86.2806-59.1686 84.3778-55.43Q82.4749-51.6915 79.3054-49.5829Q76.1359-47.4744 72.2851-47.4744Z"/>
  </g>
  <g id="Bold-L" transform="matrix(1 0 0 1 2268.26 1556)">
   <path d="M32.5188 25.079L110.901 25.079Q127.35 25.079 127.35 13.5682Q127.35 6.77687 123.365-0.301588Q119.381-7.38004 112.014-13.3513Q104.647-19.3225 94.4164-23.0198Q84.1859-26.7172 71.7026-26.7172Q59.2477-26.7172 49.0357-23.0198Q38.8237-19.3225 31.4313-13.3513Q24.0388-7.38004 20.0614-0.301588Q16.084 6.77687 16.084 13.5682Q16.084 25.079 32.5188 25.079ZM31.7895 13.0204Q30.6205 13.0204 30.1321 12.6001Q29.6437 12.1799 29.6437 11.3404Q29.6437 7.89856 32.4596 3.4519Q35.2756-0.994752 40.6641-5.12977Q46.0526-9.26479 53.8602-11.9688Q61.6679-14.6728 71.7026-14.6728Q81.7514-14.6728 89.5591-11.9688Q97.3668-9.26479 102.762-5.12977Q108.158-0.994752 110.967 3.4519Q113.776 7.89856 113.776 11.3404Q113.776 12.1799 113.32 12.6001Q112.865 13.0204 111.63 13.0204ZM71.731-33.71Q79.453-33.71 85.7761-37.7656Q92.0991-41.8211 95.8259-48.6698Q99.5528-55.5185 99.5528-63.8688Q99.5528-72.0604 95.801-78.7515Q92.0493-85.4425 85.7447-89.4202Q79.4401-93.3979 71.731-93.3979Q64.1101-93.3979 57.7724-89.3761Q51.4348-85.3543 47.6791-78.6519Q43.9235-71.9494 43.9377-63.7948Q43.9812-55.4815 47.7119-48.6328Q51.4426-41.7842 57.7329-37.7471Q64.0233-33.71 71.731-33.71ZM71.731-45.7316Q67.5646-45.7316 64.0718-48.0645Q60.5789-50.3974 58.4687-54.4898Q56.3585-58.5822 56.3293-63.824Q56.315-68.8779 58.4285-72.8166Q60.5419-76.7553 64.0636-79.0473Q67.5853-81.3393 71.731-81.3393Q75.9572-81.3393 79.4571-79.0729Q82.9571-76.8065 85.052-72.8461Q87.147-68.8857 87.147-63.8688Q87.147-58.627 85.0553-54.5307Q82.9635-50.4344 79.4707-48.083Q75.9778-45.7316 71.731-45.7316Z"/>
  </g>
  <g id="Semibold-L" transform="matrix(1 0 0 1 1971.94 1556)">
   <path d="M31.7332 24.5631L110.905 24.5631Q126.574 24.5631 126.574 13.7539Q126.574 7.19144 122.675 0.156828Q118.776-6.87778 111.509-12.9008Q104.241-18.9239 94.0582-22.6865Q83.875-26.4492 71.3093-26.4492Q58.7833-26.4492 48.6211-22.6865Q38.4589-18.9239 31.1607-12.9008Q23.8624-6.87778 19.9732 0.156828Q16.084 7.19144 16.084 13.7539Q16.084 24.5631 31.7332 24.5631ZM30.4176 13.9162Q29.0177 13.9162 28.4347 13.4583Q27.8516 13.0004 27.8516 11.9941Q27.8516 8.25733 30.7521 3.49427Q33.6526-1.26878 39.2169-5.67004Q44.7813-10.0713 52.8481-12.9467Q60.9149-15.8221 71.3093-15.8221Q81.7235-15.8221 89.7903-12.9467Q97.8571-10.0713 103.431-5.67004Q109.006-1.26878 111.896 3.49427Q114.787 8.25733 114.787 11.9941Q114.787 13.0004 114.234 13.4583Q113.681 13.9162 112.221 13.9162ZM71.349-33.9252Q78.9577-33.9252 85.1959-37.9341Q91.4341-41.9431 95.1114-48.7128Q98.7888-55.4826 98.7888-63.7359Q98.7888-71.8342 95.094-78.4414Q91.3992-85.0485 85.182-88.9618Q78.9648-92.8751 71.349-92.8751Q63.8371-92.8751 57.5896-88.9099Q51.3421-84.9447 47.6356-78.3265Q43.9291-71.7083 43.949-63.652Q43.9875-55.4406 47.6765-48.6709Q51.3655-41.9011 57.5628-37.9132Q63.7602-33.9252 71.349-33.9252ZM71.349-44.5301Q66.9096-44.5301 63.1938-47.028Q59.4781-49.5258 57.2352-53.857Q54.9922-58.1883 54.9737-63.6706Q54.9538-68.9792 57.195-73.1595Q59.4361-77.3399 63.181-79.784Q66.9259-82.2282 71.349-82.2282Q75.8525-82.2282 79.5782-79.815Q83.3039-77.4017 85.5241-73.2022Q87.7442-69.0026 87.7442-63.7359Q87.7442-58.2537 85.5223-53.9107Q83.3004-49.5678 79.5846-47.0489Q75.8689-44.5301 71.349-44.5301Z"/>
  </g>
  <g id="Medium-L" transform="matrix(1 0 0 1 1675.52 1556)">
   <path d="M31.1376 24.172L110.909 24.172Q125.986 24.172 125.986 13.8947Q125.986 7.50578 122.152 0.504419Q118.318-6.49694 111.126-12.5593Q103.934-18.6216 93.7865-22.4338Q83.6393-26.2459 71.0111-26.2459Q58.4312-26.2459 48.3068-22.4338Q38.1824-18.6216 30.9555-12.5593Q23.7287-6.49694 19.9063 0.504419Q16.084 7.50578 16.084 13.8947Q16.084 24.172 31.1376 24.172ZM29.3773 14.5955Q27.8025 14.5955 27.1476 14.109Q26.4927 13.6225 26.4927 12.4898Q26.4927 8.52936 29.4573 3.5264Q32.4219-1.47656 38.1197-6.0797Q43.8174-10.6828 52.0807-13.6882Q60.3439-16.6936 71.0111-16.6936Q81.7024-16.6936 89.9656-13.6882Q98.2289-10.6828 103.939-6.0797Q109.649-1.47656 112.601 3.5264Q115.554 8.52936 115.554 12.4898Q115.554 13.6225 114.927 14.109Q114.3 14.5955 112.669 14.5955ZM71.0594-34.0884Q78.5822-34.0884 84.756-38.062Q90.9299-42.0355 94.5697-48.7454Q98.2095-55.4554 98.2095-63.6352Q98.2095-71.6627 94.5579-78.2063Q90.9063-84.7498 84.7553-88.6142Q78.6044-92.4787 71.0594-92.4787Q63.6301-92.4787 57.4509-88.5564Q51.2718-84.6342 47.6026-78.0798Q43.9334-71.5254 43.9576-63.5437Q43.9923-55.4096 47.6497-48.6997Q51.3071-41.9898 57.4339-38.0391Q63.5607-34.0884 71.0594-34.0884ZM71.0594-43.6191Q66.4129-43.6191 62.5282-46.242Q58.6434-48.8649 56.2999-53.3772Q53.9563-57.8896 53.9458-63.5542Q53.9216-69.056 56.2597-73.4196Q58.5977-77.7832 62.5118-80.3427Q66.426-82.9022 71.0594-82.9022Q75.7732-82.9022 79.67-80.3776Q83.5668-77.8531 85.882-73.4722Q88.1971-69.0913 88.1971-63.6352Q88.1971-57.9706 85.8764-53.4406Q83.5557-48.9107 79.671-46.2649Q75.7863-43.6191 71.0594-43.6191Z"/>
  </g>
  <g id="Regular-L" transform="matrix(1 0 0 1 1379.19 1556)">
   <path d="M30.3606 23.6618L110.913 23.6618Q125.22 23.6618 125.22 14.0784Q125.22 7.9158 121.47 0.957797Q117.72-6.0002 110.626-12.1138Q103.533-18.2274 93.4322-22.1041Q83.3318-25.9808 70.6221-25.9808Q57.9719-25.9808 47.8968-22.1041Q37.8217-18.2274 30.6879-12.1138Q23.5542-6.0002 19.8191 0.957797Q16.084 7.9158 16.084 14.0784Q16.084 23.6618 30.3606 23.6618ZM28.0205 15.4815Q26.2173 15.4815 25.4688 14.9578Q24.7203 14.434 24.7203 13.1364Q24.7203 8.88419 27.7685 3.5683Q30.8167-1.74758 36.6885-6.61403Q42.5602-11.4805 51.0796-14.6554Q59.5991-17.8303 70.6221-17.8303Q81.6748-17.8303 90.1943-14.6554Q98.7138-11.4805 104.6-6.61403Q110.487-1.74758 113.52 3.5683Q116.554 8.88419 116.554 13.1364Q116.554 14.434 115.83 14.9578Q115.107 15.4815 113.253 15.4815ZM70.6816-34.3013Q78.0924-34.3013 84.1823-38.2287Q90.2722-42.1561 93.863-48.788Q97.4539-55.4199 97.4539-63.5038Q97.4539-71.439 93.8586-77.8996Q90.2634-84.3602 84.1988-88.1609Q78.1342-91.9616 70.6816-91.9616Q63.36-91.9616 57.2701-88.0953Q51.1802-84.2291 47.5596-77.758Q43.939-71.2869 43.9688-63.4024Q43.9985-55.3692 47.6147-48.7373Q51.2308-42.1054 57.2657-38.2034Q63.3005-34.3013 70.6816-34.3013ZM70.6816-42.4308Q65.7651-42.4308 61.6599-45.2169Q57.5547-48.0029 55.0799-52.7514Q52.6051-57.4999 52.6051-63.4024Q52.5754-69.1562 55.0397-73.7588Q57.504-78.3614 61.6389-81.0714Q65.7739-83.7813 70.6816-83.7813Q75.6697-83.7813 79.7898-81.1116Q83.9098-78.4418 86.3488-73.8244Q88.7878-69.2069 88.7878-63.5038Q88.7878-57.6013 86.3383-52.8274Q83.8889-48.0535 79.7837-45.2422Q75.6785-42.4308 70.6816-42.4308Z"/>
  </g>
  <g id="Light-L" transform="matrix(1 0 0 1 1083.12 1556)">
   <path d="M28.7804 22.9845L111.201 22.9845Q123.947 22.9845 123.947 14.0579Q123.947 7.9158 120.218 1.03988Q116.488-5.83603 109.467-11.8675Q102.445-17.899 92.478-21.7039Q82.5109-25.5088 69.9654-25.5088Q57.5204-25.5088 47.5684-21.7039Q37.6164-17.899 30.5546-11.8675Q23.4927-5.83603 19.7883 1.03988Q16.084 7.9158 16.084 14.0579Q16.084 22.9845 28.7804 22.9845ZM27.3227 16.6513Q24.7192 16.6513 23.7039 15.9326Q22.6887 15.2138 22.6887 13.4647Q22.6887 8.72001 25.8703 3.06552Q29.0519-2.58898 35.1185-7.65039Q41.1852-12.7118 49.9509-15.9688Q58.7167-19.2258 69.9654-19.2258Q81.2644-19.2258 90.0301-15.9688Q98.7959-12.7118 104.888-7.65039Q110.979-2.58898 114.136 3.06552Q117.292 8.72001 117.292 13.4647Q117.292 15.2138 116.292 15.9326Q115.292 16.6513 112.658 16.6513ZM70.0659-34.4655Q77.3741-34.4655 83.3101-38.3005Q89.2461-42.1356 92.7343-48.6546Q96.2226-55.1737 96.2226-63.1754Q96.2226-70.9259 92.6991-77.2942Q89.1757-83.6625 83.2548-87.4221Q77.3339-91.1817 70.0659-91.1817Q62.9085-91.1817 56.9725-87.3668Q51.0365-83.5519 47.498-77.1937Q43.9595-70.8355 44.0098-63.1151Q44.0601-55.1435 47.5634-48.6244Q51.0667-42.1054 56.9373-38.2854Q62.808-34.4655 70.0659-34.4655ZM70.0659-40.7686Q64.6979-40.7686 60.2849-43.729Q55.8719-46.6895 53.2432-51.7458Q50.6145-56.8022 50.6145-63.1151Q50.5642-69.1767 53.203-74.0974Q55.8417-79.0181 60.305-81.9333Q64.7683-84.8485 70.0659-84.8485Q75.444-84.8485 79.8821-81.9735Q84.3203-79.0985 86.9439-74.1527Q89.5676-69.2069 89.5676-63.1754Q89.5676-56.8625 86.954-51.7911Q84.3404-46.7196 79.9273-43.7441Q75.5143-40.7686 70.0659-40.7686Z"/>
  </g>
  <g id="Thin-L" transform="matrix(1 0 0 1 787.248 1556)">
   <path d="M26.6905 22.0889L111.581 22.0889Q122.265 22.0889 122.265 14.0307Q122.265 7.9158 118.562 1.14845Q114.86-5.61889 107.933-11.5418Q101.007-17.4648 91.2159-21.1746Q81.4252-24.8845 69.0969-24.8845Q56.9233-24.8845 47.1341-21.1746Q37.345-17.4648 30.3781-11.5418Q23.4112-5.61889 19.7476 1.14845Q16.084 7.9158 16.084 14.0307Q16.084 22.0889 26.6905 22.0889ZM26.3999 18.1984Q22.7378 18.1984 21.3697 17.2218Q20.0016 16.2452 20.0016 13.899Q20.0016 8.50287 23.3596 2.40054Q26.7177-3.7018 33.0422-9.02106Q39.3667-14.3403 48.4581-17.7059Q57.5496-21.0715 69.0969-21.0715Q80.7215-21.0715 89.813-17.7059Q98.9044-14.3403 105.268-9.02106Q111.631-3.7018 114.95 2.40054Q118.269 8.50287 118.269 13.899Q118.269 16.2452 116.903 17.2218Q115.536 18.1984 111.871 18.1984ZM69.2517-34.6826Q76.4241-34.6826 82.1566-38.3955Q87.889-42.1084 91.2415-48.4782Q94.594-54.848 94.594-62.7412Q94.594-70.2474 91.1656-76.4935Q87.7372-82.7396 82.0063-86.445Q76.2753-90.1503 69.2517-90.1503Q62.3114-90.1503 56.579-86.4033Q50.8465-82.6562 47.4166-76.4473Q43.9867-70.2383 44.0641-62.7351Q44.1415-54.8449 47.4955-48.4752Q50.8495-42.1054 56.5031-38.394Q62.1566-34.6826 69.2517-34.6826ZM69.2517-38.5701Q63.2865-38.5701 58.4664-41.7612Q53.6463-44.9524 50.814-50.4159Q47.9817-55.8794 47.9817-62.7351Q47.9043-69.2039 50.7738-74.5453Q53.6432-79.8866 58.5408-83.0732Q63.4383-86.2599 69.2517-86.2599Q75.1454-86.2599 80.0042-83.1135Q84.8631-79.967 87.731-74.587Q90.599-69.2069 90.599-62.7412Q90.599-55.8854 87.7682-50.4204Q84.9375-44.9554 80.1173-41.7627Q75.2972-38.5701 69.2517-38.5701Z"/>
  </g>
  <g id="Ultralight-L" transform="matrix(1 0 0 1 490.968 1556)">
   <path d="M25.62 21.6301L111.775 21.6301Q121.403 21.6301 121.403 14.0168Q121.403 7.9158 117.714 1.20406Q114.026-5.50767 107.148-11.375Q100.27-17.2423 90.5694-20.9035Q80.8692-24.5648 68.652-24.5648Q56.6174-24.5648 46.9117-20.9035Q37.206-17.2423 30.2878-11.375Q23.3695-5.50767 19.7268 1.20406Q16.084 7.9158 16.084 14.0168Q16.084 21.6301 25.62 21.6301ZM25.9272 18.9908Q21.723 18.9908 20.1742 17.8822Q18.6253 16.7735 18.6253 14.1214Q18.6253 8.39166 22.0737 2.05994Q25.5221-4.27178 31.9787-9.72311Q38.4352-15.1744 47.6935-18.5956Q56.9518-22.0168 68.652-22.0168Q80.4435-22.0168 89.7018-18.5956Q98.96-15.1744 105.462-9.72311Q111.965-4.27178 115.367 2.05994Q118.77 8.39166 118.77 14.1214Q118.77 16.7735 117.216 17.8822Q115.661 18.9908 111.468 18.9908ZM68.8346-34.7938Q75.9375-34.7938 81.5657-38.4442Q87.1939-42.0945 90.4769-48.3878Q93.7599-54.6811 93.7599-62.5187Q93.7599-69.8998 90.3802-76.0834Q87.0004-82.267 81.3668-85.9445Q75.7332-89.6221 68.8346-89.6221Q62.0056-89.6221 56.3774-85.9097Q50.7492-82.1974 47.3749-76.065Q44.0006-69.9325 44.0919-62.5405Q44.1832-54.692 47.4608-48.3987Q50.7383-42.1054 56.2806-38.4496Q61.823-34.7938 68.8346-34.7938ZM68.8346-37.444Q62.5636-37.444 57.535-40.7533Q52.5063-44.0626 49.5698-49.7347Q46.6332-55.4067 46.6332-62.5405Q46.5419-69.2178 49.5295-74.7746Q52.5172-80.3315 57.6372-83.6571Q62.7571-86.9828 68.8346-86.9828Q74.9925-86.9828 80.0668-83.6973Q85.1411-80.4119 88.1342-74.8094Q91.1273-69.2069 91.1273-62.5187Q91.1273-55.3849 88.1853-49.7183Q85.2433-44.0518 80.2146-40.7479Q75.186-37.444 68.8346-37.444Z"/>
  </g>
  <g id="Black-M" transform="matrix(1 0 0 1 2876.8 1126)">
   <path d="M27.2033 12.9364L86.0021 12.9364Q100.744 12.9364 100.744 1.967Q100.744-4.02979 97.3873-9.62801Q94.0304-15.2262 88.0249-19.6564Q82.0193-24.0865 73.9852-26.7149Q65.9512-29.3433 56.6028-29.3433Q47.2539-29.3433 39.2226-26.7149Q31.1913-24.0865 25.1831-19.6564Q19.1749-15.2262 15.8179-9.62801Q12.4609-4.02979 12.4609 1.967Q12.4609 12.9364 27.2033 12.9364ZM28.84-0.355337Q28.4106-0.355337 28.2483-0.625004Q28.0861-0.894671 28.0861-1.15803Q28.0861-3.03568 30.039-5.56992Q31.9919-8.10416 35.6626-10.5107Q39.3333-12.9173 44.6258-14.4843Q49.9184-16.0513 56.6028-16.0513Q63.287-16.0513 68.5796-14.4843Q73.8721-12.9173 77.5426-10.5107Q81.2131-8.10416 83.1662-5.56992Q85.1193-3.03568 85.1193-1.15803Q85.1193-0.894671 84.9883-0.625004Q84.8574-0.355337 84.3653-0.355337ZM56.6022-33.4101Q62.9172-33.4101 68.0387-36.672Q73.1603-39.934 76.1732-45.4573Q79.1861-50.9807 79.1861-57.7367Q79.1861-64.3229 76.1192-69.7473Q73.0523-75.1716 67.9334-78.4484Q62.8146-81.7251 56.6022-81.7251Q50.4006-81.7251 45.2504-78.443Q40.1003-75.1609 37.0592-69.7336Q34.0181-64.3063 34.0178-57.7256Q34.0745-50.9752 37.0616-45.4518Q40.0487-39.9285 45.1679-36.6693Q50.287-33.4101 56.6022-33.4101ZM56.6022-46.6963Q54.1061-46.6963 52.0181-48.0283Q49.93-49.3602 48.6731-51.861Q47.4162-54.3619 47.3591-57.7827Q47.3594-60.9767 48.642-63.3528Q49.9245-65.7289 52.0408-67.0811Q54.1571-68.4334 56.6022-68.4334Q59.1097-68.4334 61.1976-67.0837Q63.2854-65.7341 64.5653-63.3296Q65.8451-60.9252 65.8451-57.7367Q65.8451-54.3158 64.5909-51.8408Q63.3367-49.3657 61.2487-48.031Q59.1606-46.6963 56.6022-46.6963Z"/>
  </g>
  <g id="Heavy-M" transform="matrix(1 0 0 1 2580.44 1126)">
   <path d="M26.547 12.4279L85.9462 12.4279Q100.035 12.4279 100.035 2.2068Q100.035-3.50427 96.7816-9.06455Q93.5286-14.6248 87.6337-19.1383Q81.7389-23.6518 73.7361-26.3783Q65.7334-29.1049 56.2454-29.1049Q46.7622-29.1049 38.7676-26.3783Q30.773-23.6518 24.8688-19.1383Q18.9646-14.6248 15.7128-9.06455Q12.4609-3.50427 12.4609 2.2068Q12.4609 12.4279 26.547 12.4279ZM27.2509 0.52901Q26.7007 0.52901 26.4758 0.253436Q26.2509-0.0221371 26.2509-0.399877Q26.2509-2.54564 28.2823-5.40821Q30.3137-8.27078 34.1654-10.9729Q38.0172-13.6751 43.5853-15.4418Q49.1534-17.2084 56.2454-17.2084Q63.3398-17.2084 68.9079-15.4418Q74.476-13.6751 78.329-10.9729Q82.1819-8.27078 84.2121-5.40821Q86.2423-2.54564 86.2423-0.399877Q86.2423-0.0221371 86.0473 0.253436Q85.8523 0.52901 85.2423 0.52901ZM56.2503-33.6477Q62.4436-33.6477 67.4907-36.8703Q72.5378-40.0929 75.51-45.5405Q78.4822-50.9881 78.4822-57.6388Q78.4822-64.1463 75.472-69.4842Q72.4619-74.8221 67.4229-78.026Q62.384-81.2298 56.2503-81.2298Q50.1514-81.2298 45.0826-78.0085Q40.0137-74.7872 37.0172-69.4424Q34.0208-64.0976 34.0232-57.6063Q34.0693-50.9719 37.0278-45.5243Q39.9863-40.0767 45.0228-36.8622Q50.0593-33.6477 56.2503-33.6477ZM56.2503-45.5304Q53.505-45.5304 51.2006-47.0339Q48.8961-48.5375 47.504-51.2749Q46.1119-54.0124 46.0683-57.6499Q46.0659-61.1008 47.4729-63.7148Q48.8799-66.3289 51.2086-67.8299Q53.5373-69.3309 56.2503-69.3309Q59.0255-69.3309 61.3312-67.8393Q63.6369-66.3476 65.0358-63.7105Q66.4346-61.0734 66.4346-57.6388Q66.4346-54.0012 65.0507-51.2775Q63.6667-48.5537 61.3623-47.042Q59.0578-45.5304 56.2503-45.5304Z"/>
  </g>
  <g id="Bold-M" transform="matrix(1 0 0 1 2284.13 1126)">
   <path d="M25.8127 11.8592L85.8838 11.8592Q99.2411 11.8592 99.2411 2.47505Q99.2411-2.91641 96.1042-8.43423Q92.9672-13.9521 87.1962-18.5588Q81.4251-23.1654 73.4575-26.0018Q65.4898-28.8382 55.8455-28.8382Q46.2122-28.8382 38.2587-26.0018Q30.3051-23.1654 24.5172-18.5588Q18.7292-13.9521 15.5951-8.43423Q12.4609-2.91641 12.4609 2.47505Q12.4609 11.8592 25.8127 11.8592ZM25.4731 1.51828Q24.788 1.51828 24.4929 1.2361Q24.1979 0.953918 24.1979 0.448223Q24.1979-1.99745 26.3171-5.22731Q28.4363-8.45717 32.4907-11.49Q36.545-14.5229 42.4213-16.5128Q48.2976-18.5028 55.8455-18.5028Q63.3989-18.5028 69.2752-16.5128Q75.1515-14.5229 79.2086-11.49Q83.2657-8.45717 85.3821-5.22731Q87.4986-1.99745 87.4986 0.448223Q87.4986 0.953918 87.232 1.2361Q86.9653 1.51828 86.2233 1.51828ZM55.8565-33.9135Q61.9139-33.9135 66.8777-37.0921Q71.8414-40.2707 74.768-45.6336Q77.6947-50.9964 77.6947-57.5293Q77.6947-63.9489 74.7481-69.19Q71.8015-74.4312 66.8519-77.5535Q61.9023-80.6758 55.8565-80.6758Q49.8728-80.6758 44.8948-77.5225Q39.9168-74.3692 36.9703-69.1167Q34.0239-63.8642 34.0294-57.4728Q34.0635-50.9682 36.99-45.6054Q39.9165-40.2425 44.8605-37.078Q49.8046-33.9135 55.8565-33.9135ZM55.8565-44.2261Q52.8326-44.2261 50.2861-45.9216Q47.7395-47.6171 46.1962-50.6193Q44.653-53.6214 44.6244-57.5014Q44.6189-61.2395 46.1651-64.1198Q47.7113-67.0001 50.2776-68.6675Q52.844-70.3349 55.8565-70.3349Q58.9314-70.3349 61.4807-68.6844Q64.03-67.0339 65.5621-64.1365Q67.0942-61.2392 67.0942-57.5293Q67.0942-53.6493 65.565-50.6473Q64.0358-47.6453 61.4893-45.9357Q58.9428-44.2261 55.8565-44.2261Z"/>
  </g>
  <g id="Semibold-M" transform="matrix(1 0 0 1 1987.69 1126)">
   <path d="M25.3065 11.4671L85.8407 11.4671Q98.6939 11.4671 98.6939 2.65997Q98.6939-2.51114 95.6371-7.9997Q92.5802-13.4883 86.8945-18.1592Q81.2088-22.8302 73.2653-25.7423Q65.3219-28.6543 55.5698-28.6543Q45.833-28.6543 37.9078-25.7423Q29.9826-22.8302 24.2748-18.1592Q18.567-13.4883 15.514-7.9997Q12.4609-2.51114 12.4609 2.65997Q12.4609 11.4671 25.3065 11.4671ZM24.2476 2.20028Q23.4693 2.20028 23.1259 1.91354Q22.7826 1.6268 22.7826 1.0329Q22.7826-1.61953 24.9623-5.1026Q27.1421-8.58566 31.3361-11.8465Q35.53-15.1073 41.6188-17.2513Q47.7076-19.3952 55.5698-19.3952Q63.4396-19.3952 69.5284-17.2513Q75.6172-15.1073 79.815-11.8465Q84.0128-8.58566 86.1887-5.1026Q88.3647-1.61953 88.3647 1.0329Q88.3647 1.6268 88.0486 1.91354Q87.7326 2.20028 86.8996 2.20028ZM55.5851-34.0967Q61.5488-34.0967 66.455-37.245Q71.3613-40.3933 74.2565-45.6978Q77.1518-51.0022 77.1518-57.4538Q77.1518-63.8127 74.249-68.9872Q71.3462-74.1617 66.4582-77.2278Q61.5702-80.2939 55.5851-80.2939Q49.6806-80.2939 44.7653-77.1875Q39.85-74.081 36.938-68.8921Q34.026-63.7032 34.0336-57.3808Q34.0594-50.9657 36.9639-45.6612Q39.8683-40.3568 44.7487-37.2268Q49.629-34.0967 55.5851-34.0967ZM55.5851-43.327Q52.369-43.327 49.6556-45.1548Q46.9422-46.9826 45.2947-50.1673Q43.6471-53.3519 43.629-57.3989Q43.6214-61.3351 45.2635-64.399Q46.9057-67.4629 49.6358-69.245Q52.366-71.0271 55.5851-71.0271Q58.8665-71.0271 61.5838-69.2671Q64.301-67.507 65.9249-64.4302Q67.5488-61.3535 67.5488-57.4538Q67.5488-53.4067 65.9196-50.2129Q64.2903-47.0191 61.5769-45.173Q58.8634-43.327 55.5851-43.327Z"/>
  </g>
  <g id="Medium-M" transform="matrix(1 0 0 1 1691.19 1126)">
   <path d="M24.9227 11.1697L85.8081 11.1697Q98.2791 11.1697 98.2791 2.80019Q98.2791-2.20384 95.283-7.67022Q92.2868-13.1366 86.6658-17.8563Q81.0448-22.5759 73.1197-25.5454Q65.1945-28.5149 55.3608-28.5149Q45.5455-28.5149 37.6418-25.5454Q29.738-22.5759 24.091-17.8563Q18.444-13.1366 15.4525-7.67022Q12.4609-2.20384 12.4609 2.80019Q12.4609 11.1697 24.9227 11.1697ZM23.3183 2.71739Q22.4695 2.71739 22.0894 2.4272Q21.7094 2.13702 21.7094 1.47622Q21.7094-1.33298 23.9351-5.00804Q26.1608-8.68309 30.4606-12.1168Q34.7605-15.5505 41.0104-17.8111Q47.2603-20.0718 55.3608-20.0718Q63.4705-20.0718 69.7204-17.8111Q75.9703-15.5505 80.2748-12.1168Q84.5793-8.68309 86.8003-5.00804Q89.0214-1.33298 89.0214 1.47622Q89.0214 2.13702 88.6679 2.4272Q88.3144 2.71739 87.4125 2.71739ZM55.3793-34.2356Q61.2719-34.2356 66.1346-37.3609Q70.9972-40.4863 73.8687-45.7464Q76.7402-51.0065 76.7402-57.3966Q76.7402-63.7095 73.8706-68.8334Q71.0009-73.9573 66.1597-76.9808Q61.3184-80.0043 55.3793-80.0043Q49.535-80.0043 44.6671-76.9334Q39.7993-73.8625 36.9135-68.7218Q34.0276-63.5812 34.0369-57.311Q34.0564-50.9637 36.9441-45.7036Q39.8318-40.4435 44.6639-37.3396Q49.4959-34.2356 55.3793-34.2356ZM55.3793-42.6452Q52.0175-42.6452 49.1776-44.5734Q46.3376-46.5015 44.611-49.8245Q42.8845-53.1475 42.8742-57.3213Q42.865-61.4077 44.5799-64.6107Q46.2948-67.8137 49.1492-69.6828Q52.0035-71.552 55.3793-71.552Q58.8173-71.552 61.6619-69.7089Q64.5065-67.8657 66.2-64.653Q67.8936-61.4402 67.8936-57.3966Q67.8936-53.2228 66.1884-49.8835Q64.4833-46.5443 61.6433-44.5947Q58.8033-42.6452 55.3793-42.6452Z"/>
  </g>
  <g id="Regular-M" transform="matrix(1 0 0 1 1394.74 1126)">
   <path d="M24.4221 10.782L85.7655 10.782Q97.738 10.782 97.738 2.98309Q97.738-1.80303 94.821-7.24046Q91.904-12.6779 86.3675-17.4611Q80.8309-22.2444 72.9297-25.2887Q65.0284-28.3331 55.0881-28.3331Q45.1705-28.3331 37.2947-25.2887Q29.419-22.2444 23.8513-17.4611Q18.2835-12.6779 15.3722-7.24046Q12.4609-1.80303 12.4609 2.98309Q12.4609 10.782 24.4221 10.782ZM22.1063 3.3919Q21.1653 3.3919 20.7375 3.0972Q20.3096 2.80251 20.3096 2.05447Q20.3096-0.959219 22.5952-4.8847Q24.8808-8.81018 29.3187-12.4693Q33.7567-16.1285 40.2167-18.5414Q46.6768-20.9544 55.0881-20.9544Q63.5108-20.9544 69.9709-18.5414Q76.4309-16.1285 80.8746-12.4693Q85.3182-8.81018 87.5981-4.8847Q89.878-0.959219 89.878 2.05447Q89.878 2.80251 89.4756 3.0972Q89.0732 3.3919 88.0813 3.3919ZM55.1108-34.4168Q60.9107-34.4168 65.7166-37.5122Q70.5224-40.6075 73.3628-45.8098Q76.2033-51.0122 76.2033-57.3219Q76.2033-63.5749 73.377-68.6328Q70.5507-73.6907 65.7703-76.6587Q60.99-79.6266 55.1108-79.6266Q49.3449-79.6266 44.5391-76.602Q39.7333-73.5775 36.8815-68.4997Q34.0297-63.422 34.041-57.22Q34.0524-50.9612 36.9183-45.7589Q39.7842-40.5565 44.5532-37.4867Q49.3222-34.4168 55.1108-34.4168ZM55.1108-41.7559Q51.5591-41.7559 48.554-43.815Q45.549-45.874 43.7194-49.3775Q41.8897-52.881 41.8897-57.22Q41.8784-61.5023 43.6882-64.8868Q45.498-68.2714 48.5144-70.2539Q51.5308-72.2365 55.1108-72.2365Q58.7531-72.2365 61.7638-70.2851Q64.7746-68.3337 66.5589-64.9434Q68.3432-61.5532 68.3432-57.3219Q68.3432-52.9829 66.5391-49.4539Q64.7349-45.925 61.7299-43.8404Q58.7249-41.7559 55.1108-41.7559Z"/>
  </g>
  <g id="Light-M" transform="matrix(1 0 0 1 1098.6 1126)">
   <path d="M23.0054 10.1748L86.0231 10.1748Q96.5973 10.1748 96.5973 2.96469Q96.5973-1.80303 93.6987-7.16686Q90.8001-12.5307 85.3279-17.2403Q79.8558-21.95 72.0741-24.9299Q64.2925-27.9099 54.4994-27.9099Q44.7657-27.9099 37.0004-24.9299Q29.235-21.95 23.7317-17.2403Q18.2283-12.5307 15.3446-7.16686Q12.4609-1.80303 12.4609 2.96469Q12.4609 10.1748 23.0054 10.1748ZM21.4807 4.44064Q19.8222 4.44064 19.1552 3.97115Q18.4881 3.50167 18.4881 2.34886Q18.4881-1.10641 20.8933-5.33547Q23.2984-9.56454 27.9112-13.3985Q32.5239-17.2324 39.2048-19.719Q45.8856-22.2055 54.4994-22.2055Q63.1428-22.2055 69.8237-19.719Q76.5045-17.2324 81.1321-13.3985Q85.7598-9.56454 88.15-5.33547Q90.5403-1.10641 90.5403 2.34886Q90.5403 3.50167 89.8896 3.97115Q89.2388 4.44064 87.5478 4.44064ZM54.5588-34.564Q60.2668-34.564 64.9346-37.5766Q69.6024-40.5891 72.3509-45.6903Q75.0993-50.7914 75.0993-57.0275Q75.0993-63.1149 72.3374-68.09Q69.5755-73.0652 64.9239-75.9963Q60.2724-78.9274 54.5588-78.9274Q48.9402-78.9274 44.2723-75.9489Q39.6045-72.9703 36.8263-67.9938Q34.0481-63.0172 34.0778-56.9624Q34.1076-50.7588 36.8723-45.6577Q39.637-40.5565 44.2589-37.5603Q48.8807-34.564 54.5588-34.564ZM54.5588-40.2656Q50.6023-40.2656 47.3213-42.481Q44.0403-44.6965 42.0727-48.4759Q40.105-52.2554 40.105-56.9624Q40.0753-61.5207 42.0415-65.1904Q44.0077-68.8601 47.3185-71.0267Q50.6292-73.1933 54.5588-73.1933Q58.5507-73.1933 61.8466-71.0579Q65.1425-68.9224 67.0925-65.2378Q69.0424-61.5532 69.0424-57.0275Q69.0424-52.3205 67.0911-48.5248Q65.1397-44.729 61.8587-42.4973Q58.5777-40.2656 54.5588-40.2656Z"/>
  </g>
  <g id="Thin-M" transform="matrix(1 0 0 1 802.647 1126)">
   <path d="M21.1317 9.37176L86.3637 9.37176Q95.0885 9.37176 95.0885 2.94036Q95.0885-1.80303 92.2143-7.06953Q89.3401-12.336 83.9531-16.9483Q78.5661-21.5606 70.9426-24.4554Q63.3191-27.3502 53.7207-27.3502Q44.2304-27.3502 36.611-24.4554Q28.9916-21.5606 23.5735-16.9483Q18.1553-12.336 15.3081-7.06953Q12.4609-1.80303 12.4609 2.94036Q12.4609 9.37176 21.1317 9.37176ZM20.6533 5.82769Q18.0458 5.82769 17.0624 5.12703Q16.079 4.42637 16.079 2.7382Q16.079-1.30108 18.6424-5.93166Q21.2057-10.5622 26.0496-14.6273Q30.8935-18.6925 37.8664-21.2764Q44.8393-23.8602 53.7207-23.8602Q62.6561-23.8602 69.629-21.2764Q76.6019-18.6925 81.4728-14.6273Q86.3438-10.5622 88.8801-5.93166Q91.4164-1.30108 91.4164 2.7382Q91.4164 4.42637 90.4371 5.12703Q89.4578 5.82769 86.8421 5.82769ZM53.8288-34.7587Q59.4151-34.7587 63.9004-37.6617Q68.3857-40.5648 71.0125-45.5321Q73.6393-50.4994 73.6393-56.6382Q73.6393-62.5065 70.9625-67.3722Q68.2858-72.2378 63.8046-75.1203Q59.3234-78.0027 53.8288-78.0027Q48.4048-78.0027 43.9195-75.085Q39.4341-72.1673 36.7533-67.3246Q34.0724-62.4819 34.1265-56.6217Q34.1806-50.4912 36.8115-45.5239Q39.4424-40.5565 43.8695-37.6576Q48.2966-34.7587 53.8288-34.7587ZM53.8288-38.2945Q49.3369-38.2945 45.6909-40.7168Q42.0449-43.1391 39.8947-47.2836Q37.7446-51.428 37.7446-56.6217Q37.6905-61.545 39.8636-65.5919Q42.0366-69.6388 45.7368-72.0487Q49.4369-74.4587 53.8288-74.4587Q58.2831-74.4587 61.9561-72.0799Q65.6292-69.7011 67.7982-65.6272Q69.9671-61.5532 69.9671-56.6382Q69.9671-51.4445 67.8211-47.2959Q65.6751-43.1473 62.029-40.7209Q58.383-38.2945 53.8288-38.2945Z"/>
  </g>
  <g id="Ultralight-M" transform="matrix(1 0 0 1 506.323 1126)">
   <path d="M20.1719 8.96045L86.5382 8.96045Q94.3158 8.96045 94.3158 2.92789Q94.3158-1.80303 91.454-7.01967Q88.5922-12.2363 83.2489-16.7988Q77.9055-21.3612 70.363-24.2124Q62.8205-27.0636 53.3218-27.0636Q43.9562-27.0636 36.4116-24.2124Q28.867-21.3612 23.4925-16.7988Q18.118-12.2363 15.2894-7.01967Q12.4609-1.80303 12.4609 2.92789Q12.4609 8.96045 20.1719 8.96045ZM20.2296 6.53813Q17.136 6.53813 15.9905 5.71906Q14.8451 4.89999 14.8451 2.93763Q14.8451-1.4008 17.4895-6.23702Q20.1338-11.0733 25.0961-15.2568Q30.0585-19.4403 37.1809-22.074Q44.3033-24.7078 53.3218-24.7078Q62.4068-24.7078 69.5293-22.074Q76.6517-19.4403 81.6473-15.2568Q86.6429-11.0733 89.254-6.23702Q91.8651-1.4008 91.8651 2.93763Q91.8651 4.89999 90.7175 5.71906Q89.57 6.53813 86.4806 6.53813ZM53.4549-34.8584Q58.9788-34.8584 63.3707-37.7054Q67.7625-40.5523 70.327-45.4511Q72.8914-50.3498 72.8914-56.4387Q72.8914-62.1949 70.2583-67.0045Q67.6252-71.814 63.2312-74.6716Q58.8373-77.5291 53.4549-77.5291Q48.1306-77.5291 43.7387-74.6425Q39.3469-71.756 36.7159-66.9818Q34.0849-62.2077 34.1514-56.4472Q34.218-50.3541 36.7803-45.4553Q39.3427-40.5565 43.6701-37.7075Q47.9975-34.8584 53.4549-34.8584ZM53.4549-37.285Q48.6888-37.285 44.8558-39.8132Q41.0228-42.3414 38.7792-46.6728Q36.5356-51.0043 36.5356-56.4472Q36.4691-61.5575 38.7481-65.7976Q41.0271-70.0377 44.9266-72.5722Q48.8261-75.1068 53.4549-75.1068Q58.146-75.1068 62.0122-72.6034Q65.8785-70.1 68.1596-65.8266Q70.4407-61.5532 70.4407-56.4387Q70.4407-50.9958 68.195-46.6665Q65.9493-42.3372 62.1163-39.8111Q58.2833-37.285 53.4549-37.285Z"/>
  </g>
  <g id="Black-S" transform="matrix(1 0 0 1 2888.97 696)">
   <path d="M21.4355 2.63672L67.4316 2.63672Q79.1016 2.63672 79.1016-6.15234Q79.1016-10.9375 76.4404-15.332Q73.7793-19.7266 69.043-23.1689Q64.3066-26.6113 58.0078-28.6377Q51.709-30.6641 44.4336-30.6641Q37.1582-30.6641 30.8594-28.6377Q24.5605-26.6113 19.8242-23.1689Q15.0879-19.7266 12.4268-15.332Q9.76562-10.9375 9.76562-6.15234Q9.76562 2.63672 21.4355 2.63672ZM23.0469-8.10547Q22.7051-8.10547 22.583-8.3252Q22.4609-8.54492 22.4609-8.74023Q22.4609-10.1562 23.9746-12.0605Q25.4883-13.9648 28.3203-15.7715Q31.1523-17.5781 35.2295-18.75Q39.3066-19.9219 44.4336-19.9219Q49.5605-19.9219 53.6377-18.75Q57.7148-17.5781 60.5469-15.7715Q63.3789-13.9648 64.8926-12.0605Q66.4062-10.1562 66.4062-8.74023Q66.4062-8.54492 66.3086-8.3252Q66.2109-8.10547 65.8203-8.10547ZM44.4336-33.7402Q49.4141-33.7402 53.4424-36.3037Q57.4707-38.8672 59.8389-43.2129Q62.207-47.5586 62.207-52.8809Q62.207-58.0566 59.79-62.3291Q57.373-66.6016 53.3447-69.1895Q49.3164-71.7773 44.4336-71.7773Q39.5508-71.7773 35.498-69.1895Q31.4453-66.6016 29.0527-62.3291Q26.6602-58.0566 26.6602-52.8809Q26.709-47.5586 29.0527-43.2129Q31.3965-38.8672 35.4248-36.3037Q39.4531-33.7402 44.4336-33.7402ZM44.4336-44.4824Q42.5293-44.4824 40.9424-45.4834Q39.3555-46.4844 38.4033-48.3887Q37.4512-50.293 37.4023-52.9297Q37.4023-55.3711 38.3789-57.1777Q39.3555-58.9844 40.9668-60.0098Q42.5781-61.0352 44.4336-61.0352Q46.3379-61.0352 47.9248-60.0098Q49.5117-58.9844 50.4883-57.1533Q51.4648-55.3223 51.4648-52.8809Q51.4648-50.2441 50.5127-48.3643Q49.5605-46.4844 47.9736-45.4834Q46.3867-44.4824 44.4336-44.4824Z"/>
  </g>
  <g id="Heavy-S" transform="matrix(1 0 0 1 2592.49 696)">
   <path d="M21.0552 2.27946L67.351 2.27946Q78.6406 2.27946 78.6406-5.9449Q78.6406-10.488 76.0659-14.8595Q73.4912-19.231 68.8413-22.7541Q64.1914-26.2771 57.9041-28.3957Q51.6168-30.5142 44.2031-30.5142Q36.7894-30.5142 30.5079-28.3957Q24.2263-26.2771 19.5707-22.7541Q14.915-19.231 12.3403-14.8595Q9.76562-10.488 9.76562-5.9449Q9.76562 2.27946 21.0552 2.27946ZM21.7677-7.48315Q21.4143-7.48315 21.2692-7.68559Q21.1241-7.88803 21.1241-8.12944Q21.1241-9.71832 22.6896-11.8646Q24.2552-14.0109 27.2197-16.0481Q30.1843-18.0852 34.4689-19.4184Q38.7535-20.7516 44.2031-20.7516Q49.6527-20.7516 53.9373-19.4184Q58.2219-18.0852 61.1865-16.0481Q64.151-14.0109 65.7166-11.8646Q67.2821-9.71832 67.2821-8.12944Q67.2821-7.88803 67.1614-7.68559Q67.0407-7.48315 66.6385-7.48315ZM44.2031-33.9246Q49.0914-33.9246 53.0736-36.4651Q57.0558-39.0055 59.4009-43.2993Q61.7461-47.5932 61.7461-52.8348Q61.7461-57.9644 59.3694-62.1735Q56.9927-66.3826 53.0163-68.9129Q49.0398-71.4431 44.2031-71.4431Q39.3894-71.4431 35.3886-68.9013Q31.3877-66.3595 29.0239-62.1447Q26.6602-57.9299 26.6602-52.8117Q26.6975-47.5816 29.0297-43.2878Q31.3619-38.994 35.3384-36.4593Q39.3148-33.9246 44.2031-33.9246ZM44.2031-43.6757Q42.1375-43.6757 40.4007-44.8035Q38.664-45.9312 37.6139-48.0026Q36.5638-50.074 36.5265-52.849Q36.5265-55.4748 37.5895-57.4486Q38.6525-59.4223 40.4079-60.5514Q42.1632-61.6805 44.2031-61.6805Q46.2918-61.6805 48.0285-60.5572Q49.7653-59.4338 50.8225-57.4414Q51.8797-55.449 51.8797-52.8348Q51.8797-50.0597 50.8354-48.0012Q49.791-45.9427 48.0543-44.8092Q46.3176-43.6757 44.2031-43.6757Z"/>
  </g>
  <g id="Bold-S" transform="matrix(1 0 0 1 2296.03 696)">
   <path d="M20.6299 1.87988L67.2607 1.87988Q78.125 1.87988 78.125-5.71289Q78.125-9.98535 75.647-14.3311Q73.1689-18.6768 68.6157-22.29Q64.0625-25.9033 57.7881-28.125Q51.5137-30.3467 43.9453-30.3467Q36.377-30.3467 30.1147-28.125Q23.8525-25.9033 19.2871-22.29Q14.7217-18.6768 12.2437-14.3311Q9.76562-9.98535 9.76562-5.71289Q9.76562 1.87988 20.6299 1.87988ZM20.3369-6.78711Q19.9707-6.78711 19.7998-6.97021Q19.6289-7.15332 19.6289-7.44629Q19.6289-9.22852 21.2524-11.6455Q22.876-14.0625 25.9888-16.3574Q29.1016-18.6523 33.6182-20.166Q38.1348-21.6797 43.9453-21.6797Q49.7559-21.6797 54.2725-20.166Q58.7891-18.6523 61.9019-16.3574Q65.0146-14.0625 66.6382-11.6455Q68.2617-9.22852 68.2617-7.44629Q68.2617-7.15332 68.1152-6.97021Q67.9688-6.78711 67.5537-6.78711ZM43.9453-34.1309Q48.7305-34.1309 52.6611-36.6455Q56.5918-39.1602 58.9111-43.396Q61.2305-47.6318 61.2305-52.7832Q61.2305-57.8613 58.8989-61.9995Q56.5674-66.1377 52.6489-68.6035Q48.7305-71.0693 43.9453-71.0693Q39.209-71.0693 35.2661-68.5791Q31.3232-66.0889 28.9917-61.9385Q26.6602-57.7881 26.6602-52.7344Q26.6846-47.6074 29.0039-43.3716Q31.3232-39.1357 35.2417-36.6333Q39.1602-34.1309 43.9453-34.1309ZM43.9453-42.7734Q41.6992-42.7734 39.7949-44.043Q37.8906-45.3125 36.731-47.5708Q35.5713-49.8291 35.5469-52.7588Q35.5469-55.5908 36.7065-57.7515Q37.8662-59.9121 39.7827-61.1572Q41.6992-62.4023 43.9453-62.4023Q46.2402-62.4023 48.1445-61.1694Q50.0488-59.9365 51.1963-57.7637Q52.3438-55.5908 52.3438-52.7832Q52.3438-49.8535 51.1963-47.5952Q50.0488-45.3369 48.1445-44.0552Q46.2402-42.7734 43.9453-42.7734Z"/>
  </g>
  <g id="Semibold-S" transform="matrix(1 0 0 1 1999.5 696)">
   <path d="M20.3366 1.60439L67.1985 1.60439Q77.7695 1.60439 77.7695-5.55293Q77.7695-9.63877 75.3582-13.9667Q72.9468-18.2946 68.4602-21.9701Q63.9736-25.6456 57.7081-27.9384Q51.4426-30.2312 43.7676-30.2312Q36.0926-30.2312 29.8437-27.9384Q23.5948-25.6456 19.0916-21.9701Q14.5884-18.2946 12.177-13.9667Q9.76562-9.63877 9.76562-5.55293Q9.76562 1.60439 20.3366 1.60439ZM19.3505-6.30723Q18.9754-6.30723 18.7867-6.477Q18.598-6.64678 18.598-6.97529Q18.598-8.89082 20.2616-11.4944Q21.9251-14.098 25.1401-16.5707Q28.3551-19.0434 33.0316-20.6814Q37.7082-22.3195 43.7676-22.3195Q49.827-22.3195 54.5035-20.6814Q59.1801-19.0434 62.3951-16.5707Q65.6101-14.098 67.2736-11.4944Q68.9371-8.89082 68.9371-6.97529Q68.9371-6.64678 68.7729-6.477Q68.6086-6.30723 68.1847-6.30723ZM43.7676-34.273Q48.4816-34.273 52.3768-36.7699Q56.2719-39.2668 58.5734-43.4626Q60.875-47.6585 60.875-52.7477Q60.875-57.7902 58.5746-61.8795Q56.2741-65.9688 52.3957-68.3902Q48.5172-70.8116 43.7676-70.8116Q39.0846-70.8116 35.1817-68.3569Q31.2788-65.9022 28.9695-61.7963Q26.6602-57.6903 26.6602-52.6811Q26.6757-47.6252 28.9861-43.4293Q31.2966-39.2335 35.175-36.7533Q39.0535-34.273 43.7676-34.273ZM43.7676-42.1514Q41.3971-42.1514 39.3772-43.5187Q37.3574-44.8859 36.1222-47.2731Q34.887-49.6603 34.8715-52.6966Q34.8715-55.6708 36.0978-57.9603Q37.3241-60.2498 39.3517-61.5749Q41.3793-62.9 43.7676-62.9Q46.2047-62.9 48.2245-61.5916Q50.2443-60.2831 51.454-57.9858Q52.6637-55.6886 52.6637-52.7477Q52.6637-49.7113 51.4451-47.3153Q50.2266-44.9192 48.2067-43.5353Q46.1869-42.1514 43.7676-42.1514Z"/>
  </g>
  <g id="Medium-S" transform="matrix(1 0 0 1 1702.92 696)">
   <path d="M20.1143 1.39551L67.1514 1.39551Q77.5 1.39551 77.5-5.43164Q77.5-9.37598 75.1392-13.6904Q72.7783-18.0049 68.3423-21.7275Q63.9062-25.4502 57.6475-27.7969Q51.3887-30.1436 43.6328-30.1436Q35.877-30.1436 29.6382-27.7969Q23.3994-25.4502 18.9434-21.7275Q14.4873-18.0049 12.1265-13.6904Q9.76562-9.37598 9.76562-5.43164Q9.76562 1.39551 20.1143 1.39551ZM18.6025-5.94336Q18.2207-5.94336 18.0186-6.10303Q17.8164-6.2627 17.8164-6.61816Q17.8164-8.63477 19.5103-11.3799Q21.2041-14.125 24.4966-16.7324Q27.7891-19.3398 32.5869-21.0723Q37.3848-22.8047 43.6328-22.8047Q49.8809-22.8047 54.6787-21.0723Q59.4766-19.3398 62.769-16.7324Q66.0615-14.125 67.7554-11.3799Q69.4492-8.63477 69.4492-6.61816Q69.4492-6.2627 69.2715-6.10303Q69.0938-5.94336 68.6631-5.94336ZM43.6328-34.3809Q48.293-34.3809 52.1611-36.8643Q56.0293-39.3477 58.3174-43.5132Q60.6055-47.6787 60.6055-52.7207Q60.6055-57.7363 58.3286-61.7886Q56.0518-65.8408 52.2036-68.2285Q48.3555-70.6162 43.6328-70.6162Q38.9902-70.6162 35.1177-68.1885Q31.2451-65.7607 28.9526-61.6885Q26.6602-57.6162 26.6602-52.6406Q26.6689-47.6387 28.9727-43.4731Q31.2764-39.3076 35.1245-36.8442Q38.9727-34.3809 43.6328-34.3809ZM43.6328-41.6797Q41.168-41.6797 39.0605-43.1211Q36.9531-44.5625 35.6606-47.0474Q34.3682-49.5322 34.3594-52.6494Q34.3594-55.7314 35.6362-58.1187Q36.9131-60.5059 39.0249-61.8916Q41.1367-63.2773 43.6328-63.2773Q46.1777-63.2773 48.2852-61.9116Q50.3926-60.5459 51.6494-58.1543Q52.9062-55.7627 52.9062-52.7207Q52.9062-49.6035 51.6338-47.103Q50.3613-44.6025 48.2539-43.1411Q46.1465-41.6797 43.6328-41.6797Z"/>
  </g>
  <g id="Regular-S" transform="matrix(1 0 0 1 1406.39 696)">
   <path d="M19.8242 1.12305L67.0898 1.12305Q77.1484 1.12305 77.1484-5.27344Q77.1484-9.0332 74.8535-13.3301Q72.5586-17.627 68.1885-21.4111Q63.8184-25.1953 57.5684-27.6123Q51.3184-30.0293 43.457-30.0293Q35.5957-30.0293 29.3701-27.6123Q23.1445-25.1953 18.75-21.4111Q14.3555-17.627 12.0605-13.3301Q9.76562-9.0332 9.76562-5.27344Q9.76562 1.12305 19.8242 1.12305ZM17.627-5.46875Q17.2363-5.46875 17.0166-5.61523Q16.7969-5.76172 16.7969-6.15234Q16.7969-8.30078 18.5303-11.2305Q20.2637-14.1602 23.6572-16.9434Q27.0508-19.7266 32.0068-21.582Q36.9629-23.4375 43.457-23.4375Q49.9512-23.4375 54.9072-21.582Q59.8633-19.7266 63.2568-16.9434Q66.6504-14.1602 68.3838-11.2305Q70.1172-8.30078 70.1172-6.15234Q70.1172-5.76172 69.9219-5.61523Q69.7266-5.46875 69.2871-5.46875ZM43.457-34.5215Q48.0469-34.5215 51.8799-36.9873Q55.7129-39.4531 57.9834-43.5791Q60.2539-47.7051 60.2539-52.6855Q60.2539-57.666 58.0078-61.6699Q55.7617-65.6738 51.9531-68.0176Q48.1445-70.3613 43.457-70.3613Q38.8672-70.3613 35.0342-67.9688Q31.2012-65.5762 28.9307-61.5479Q26.6602-57.5195 26.6602-52.5879Q26.6602-47.6562 28.9551-43.5303Q31.25-39.4043 35.0586-36.9629Q38.8672-34.5215 43.457-34.5215ZM43.457-41.0645Q40.8691-41.0645 38.6475-42.6025Q36.4258-44.1406 35.0586-46.7529Q33.6914-49.3652 33.6914-52.5879Q33.6914-55.8105 35.0342-58.3252Q36.377-60.8398 38.5986-62.3047Q40.8203-63.7695 43.457-63.7695Q46.1426-63.7695 48.3643-62.3291Q50.5859-60.8887 51.9043-58.374Q53.2227-55.8594 53.2227-52.6855Q53.2227-49.4629 51.8799-46.8262Q50.5371-44.1895 48.3154-42.627Q46.0938-41.0645 43.457-41.0645Z"/>
  </g>
  <g id="Light-S" transform="matrix(1 0 0 1 1110.18 696)">
   <path d="M18.571 0.585938L67.3177 0.585938Q76.1393 0.585938 76.1393-5.28971Q76.1393-9.0332 73.8607-13.265Q71.582-17.4967 67.2689-21.2158Q62.9557-24.9349 56.8115-27.2949Q50.6673-29.6549 42.9362-29.6549Q35.2376-29.6549 29.1097-27.2949Q22.9818-24.9349 18.6442-21.2158Q14.3066-17.4967 12.0361-13.265Q9.76562-9.0332 9.76562-5.28971Q9.76562 0.585938 18.571 0.585938ZM17.0736-4.54102Q16.0482-4.54102 15.6169-4.84212Q15.1855-5.14323 15.1855-5.89193Q15.1855-8.43099 17.0247-11.6292Q18.8639-14.8275 22.4121-17.7653Q25.9603-20.7031 31.1117-22.6237Q36.263-24.5443 42.9362-24.5443Q49.6257-24.5443 54.777-22.6237Q59.9284-20.7031 63.4847-17.7653Q67.041-14.8275 68.8721-11.6292Q70.7031-8.43099 70.7031-5.89193Q70.7031-5.14323 70.2881-4.84212Q69.873-4.54102 68.8151-4.54102ZM42.9688-34.6517Q47.4772-34.6517 51.1882-37.0443Q54.8991-39.4368 57.0882-43.4733Q59.2773-47.5098 59.2773-52.4251Q59.2773-57.2591 57.0882-61.1898Q54.8991-65.1204 51.2044-67.4316Q47.5098-69.7428 42.9688-69.7428Q38.5091-69.7428 34.7982-67.391Q31.0872-65.0391 28.8818-61.1003Q26.6764-57.1615 26.6927-52.36Q26.709-47.4772 28.9144-43.4408Q31.1198-39.4043 34.7982-37.028Q38.4766-34.6517 42.9688-34.6517ZM42.9688-39.7461Q40.0228-39.7461 37.557-41.4225Q35.0911-43.099 33.6019-45.9554Q32.1126-48.8118 32.1126-52.36Q32.0964-55.8268 33.5775-58.5938Q35.0586-61.3607 37.5407-62.9883Q40.0228-64.6159 42.9688-64.6159Q45.9635-64.6159 48.4375-63.0127Q50.9115-61.4095 52.3763-58.6344Q53.8411-55.8594 53.8411-52.4251Q53.8411-48.877 52.3682-46.0042Q50.8952-43.1315 48.4294-41.4388Q45.9635-39.7461 42.9688-39.7461Z"/>
  </g>
  <g id="Thin-S" transform="matrix(1 0 0 1 814.137 696)">
   <path d="M16.9134-0.124433L67.6191-0.124433Q74.8047-0.124433 74.8047-5.31124Q74.8047-9.0332 72.5476-13.1789Q70.2904-17.3245 66.0526-20.9575Q61.8148-24.5905 55.8105-26.8752Q49.8063-29.1598 42.2474-29.1598Q34.764-29.1598 28.7653-26.8752Q22.7665-24.5905 18.5043-20.9575Q14.2421-17.3245 12.0038-13.1789Q9.76562-9.0332 9.76562-5.31124Q9.76562-0.124433 16.9134-0.124433ZM16.3417-3.31401Q14.4768-3.31401 13.7656-3.81962Q13.0544-4.32523 13.0544-5.54751Q13.0544-8.6032 15.0335-12.1566Q17.0127-15.7101 20.7653-18.8524Q24.518-21.9947 29.9277-24.0014Q35.3374-26.0081 42.2474-26.0081Q49.1951-26.0081 54.6048-24.0014Q60.0145-21.9947 63.7861-18.8524Q67.5576-15.7101 69.5179-12.1566Q71.4781-8.6032 71.4781-5.54751Q71.4781-4.32523 70.7724-3.81962Q70.0668-3.31401 68.1908-3.31401ZM42.323-34.8239Q46.7238-34.8239 50.2733-37.1196Q53.8228-39.4153 55.9043-43.3334Q57.9858-47.2514 57.9858-52.0807Q57.9858-56.721 55.872-60.5548Q53.7582-64.3885 50.2142-66.6567Q46.6702-68.9248 42.323-68.9248Q38.0355-68.9248 34.486-66.6268Q30.9366-64.3287 28.8173-60.5083Q26.698-56.6879 26.7358-52.0587Q26.7736-47.2404 28.8606-43.3224Q30.9476-39.4043 34.4538-37.1141Q37.9599-34.8239 42.323-34.8239ZM42.323-38.0025Q38.9034-38.0025 36.1147-39.8619Q33.326-41.7213 31.6753-44.9006Q30.0246-48.08 30.0246-52.0587Q29.9868-55.8483 31.6509-58.9489Q33.315-62.0495 36.1415-63.8924Q38.968-65.7353 42.323-65.7353Q45.7268-65.7353 48.5344-63.9168Q51.342-62.0983 53.0006-58.9789Q54.6591-55.8594 54.6591-52.0807Q54.6591-48.102 53.014-44.9171Q51.3688-41.7323 48.58-39.8674Q45.7913-38.0025 42.323-38.0025Z"/>
  </g>
  <g id="Ultralight-S" transform="matrix(1 0 0 1 517.768 696)">
   <path d="M16.0645-0.488281L67.7734-0.488281Q74.1211-0.488281 74.1211-5.32227Q74.1211-9.0332 71.875-13.1348Q69.6289-17.2363 65.4297-20.8252Q61.2305-24.4141 55.2979-26.6602Q49.3652-28.9062 41.8945-28.9062Q34.5215-28.9062 28.5889-26.6602Q22.6562-24.4141 18.4326-20.8252Q14.209-17.2363 11.9873-13.1348Q9.76562-9.0332 9.76562-5.32227Q9.76562-0.488281 16.0645-0.488281ZM15.9668-2.68555Q13.6719-2.68555 12.8174-3.2959Q11.9629-3.90625 11.9629-5.37109Q11.9629-8.69141 14.0137-12.4268Q16.0645-16.1621 19.9219-19.4092Q23.7793-22.6562 29.3213-24.707Q34.8633-26.7578 41.8945-26.7578Q48.9746-26.7578 54.5166-24.707Q60.0586-22.6562 63.9404-19.4092Q67.8223-16.1621 69.8486-12.4268Q71.875-8.69141 71.875-5.37109Q71.875-3.90625 71.0205-3.2959Q70.166-2.68555 67.8711-2.68555ZM41.9922-34.9121Q46.3379-34.9121 49.8047-37.1582Q53.2715-39.4043 55.2979-43.2617Q57.3242-47.1191 57.3242-51.9043Q57.3242-56.4453 55.249-60.2295Q53.1738-64.0137 49.707-66.2598Q46.2402-68.5059 41.9922-68.5059Q37.793-68.5059 34.3262-66.2354Q30.8594-63.9648 28.7842-60.2051Q26.709-56.4453 26.7578-51.9043Q26.8066-47.1191 28.833-43.2617Q30.8594-39.4043 34.2773-37.1582Q37.6953-34.9121 41.9922-34.9121ZM41.9922-37.1094Q38.3301-37.1094 35.376-39.0625Q32.4219-41.0156 30.6885-44.3604Q28.9551-47.7051 28.9551-51.9043Q28.9062-55.8594 30.6641-59.1309Q32.4219-62.4023 35.4248-64.3555Q38.4277-66.3086 41.9922-66.3086Q45.6055-66.3086 48.584-64.3799Q51.5625-62.4512 53.3203-59.1553Q55.0781-55.8594 55.0781-51.9043Q55.0781-47.7051 53.3447-44.3604Q51.6113-41.0156 48.6572-39.0625Q45.7031-37.1094 41.9922-37.1094Z"/>
  </g>
 </g>
</svg>
