<?xml version="1.0" encoding="UTF-8" standalone="no"?>
<!DOCTYPE svg PUBLIC "-//W3C//DTD SVG 1.1//EN" "http://www.w3.org/Graphics/SVG/1.1/DTD/svg11.dtd">
<svg width="100%" height="100%" viewBox="0 0 32 32" version="1.1" xmlns="http://www.w3.org/2000/svg" xmlns:xlink="http://www.w3.org/1999/xlink" xml:space="preserve" xmlns:serif="http://www.serif.com/" style="fill-rule:evenodd;clip-rule:evenodd;stroke-linecap:round;stroke-linejoin:round;stroke-miterlimit:1.5;">
    <g>
        <path d="M1.576,27.53C1.576,27.53 0.679,15.119 0.471,11.988C0.436,10.236 1.801,10.522 2.49,10.454C2.489,6.509 2.654,4.533 4.466,4.496C6.219,4.482 10.669,4.464 12.384,4.452C13.654,4.505 13.574,6.468 13.574,6.468C13.574,6.468 25.412,6.546 28.389,6.518C29.472,6.508 29.477,8.521 29.513,10.468C31.017,10.502 31.573,10.825 31.49,12.031C31.418,13.47 30.516,27.606 30.516,27.606L1.576,27.53Z" style="fill:rgb(178,206,224);stroke:black;stroke-width:1px;"/>
        <g transform="matrix(1.00371,-4.52438e-06,-4.51905e-06,1,-0.0220214,1.99999)">
            <path d="M2.326,8.463L29.5,8.466" style="fill:none;stroke:black;stroke-width:1px;"/>
        </g>
    </g>
</svg>
