<?xml version="1.0" encoding="UTF-8" standalone="no"?>
<!DOCTYPE svg PUBLIC "-//W3C//DTD SVG 1.1//EN" "http://www.w3.org/Graphics/SVG/1.1/DTD/svg11.dtd">
<svg width="100%" height="100%" viewBox="0 0 32 32" version="1.1" xmlns="http://www.w3.org/2000/svg" xmlns:xlink="http://www.w3.org/1999/xlink" xml:space="preserve" xmlns:serif="http://www.serif.com/" style="fill-rule:evenodd;clip-rule:evenodd;stroke-linejoin:round;stroke-miterlimit:2;">
    <g>
        <g transform="matrix(1.15385,0,0,1.11111,-2.46154,-2.33333)">
            <ellipse cx="16" cy="16.5" rx="13" ry="13.5" style="fill:rgb(0,144,255);"/>
        </g>
        <g transform="matrix(1.01663,0,0,0.916624,-10.0144,5.67163)">
            <path d="M25.302,3.226C25.009,3.226 24.889,3.079 24.94,2.786L25.387,0.252C25.439,-0.041 25.611,-0.187 25.904,-0.187L28.013,-0.187C28.306,-0.187 28.427,-0.041 28.375,0.252L27.929,2.786C27.877,3.079 27.705,3.226 27.412,3.226L25.302,3.226ZM26.786,22.723C25.175,22.723 24.019,22.203 23.319,21.163C22.618,20.123 22.434,18.66 22.767,16.776L24.26,8.309L20.671,8.309L21.043,6.199L27.327,6.199L25.462,16.776C25.252,17.967 25.316,18.875 25.655,19.5C25.994,20.125 26.594,20.438 27.453,20.438L30.602,20.438L30.199,22.723L26.786,22.723Z" style="fill:white;fill-rule:nonzero;"/>
        </g>
    </g>
</svg>
