<?xml version="1.0" encoding="UTF-8" standalone="no"?>
<!DOCTYPE svg PUBLIC "-//W3C//DTD SVG 1.1//EN" "http://www.w3.org/Graphics/SVG/1.1/DTD/svg11.dtd">
<svg width="100%" height="100%" viewBox="0 0 32 32" version="1.1" xmlns="http://www.w3.org/2000/svg" xmlns:xlink="http://www.w3.org/1999/xlink" xml:space="preserve" xmlns:serif="http://www.serif.com/" style="fill-rule:evenodd;clip-rule:evenodd;stroke-linejoin:round;stroke-miterlimit:2;">
    <g>
        <g transform="matrix(1.15385,0,0,1.11111,-2.46154,-2.33333)">
            <ellipse cx="16" cy="16.5" rx="13" ry="13.5" style="fill:rgb(255,124,10);"/>
        </g>
        <g transform="matrix(1.38642,0,0,1.46529,5.239,10.5732)">
            <path d="M5.833,7.448L5.833,3.262L8.152,3.262C11.858,3.262 12.16,6.081 12.164,6.765C12.175,8.654 10.199,10.177 10.199,10.177L12.164,10.177C12.164,10.177 14.251,8.814 14.284,6.773C14.343,6.049 14.239,4.892 13.659,3.821C12.783,2.458 11.247,1.074 8.152,1.099L5.833,1.099L5.833,-2.78L0.549,2.217L5.833,7.448Z" style="fill:white;fill-rule:nonzero;"/>
        </g>
    </g>
</svg>
